<svg width="24" height="24" viewBox="0 0 24 24" fill="none" xmlns="http://www.w3.org/2000/svg">
<path fill-rule="evenodd" clip-rule="evenodd" d="M6 3.25C3.92893 3.25 2.25 4.92893 2.25 7V17C2.25 17.1249 2.25611 17.2485 2.26805 17.3703C2.28795 17.5733 2.32404 17.7716 2.375 17.9638C2.80035 19.5678 4.26212 20.75 6 20.75H18C20.063 20.75 21.7369 19.0842 21.7499 17.0243C21.7499 17.0242 21.7499 17.0243 21.7499 17.0243C21.75 17.0162 21.75 17.008 21.75 17V7C21.75 4.92893 20.0711 3.25 18 3.25H6ZM20.25 7.99973V7C20.25 5.75736 19.2426 4.75 18 4.75H6C4.75736 4.75 3.75 5.75736 3.75 7V7.99973C4.37675 7.52896 5.1558 7.25 6 7.25H18C18.8442 7.25 19.6233 7.52896 20.25 7.99973ZM3.75 11V11.6C3.98828 11.5655 4.23914 11.5802 4.49 11.6533L14.7974 14.6597C14.8632 14.6789 14.9341 14.6702 14.9934 14.6356L19.1182 12.2294C19.4843 12.0159 19.8797 11.9522 20.25 12.0071V11C20.25 9.75736 19.2426 8.75 18 8.75H6C4.75736 8.75 3.75 9.75736 3.75 11Z" fill="#2B2B2B"/>
</svg>
