<svg width="24" height="24" viewBox="0 0 24 24" fill="none" xmlns="http://www.w3.org/2000/svg">
<path d="M12.75 8C12.75 7.58579 12.4142 7.25 12 7.25C11.5858 7.25 11.25 7.58579 11.25 8V11.25H8C7.58579 11.25 7.25 11.5858 7.25 12C7.25 12.4142 7.58579 12.75 8 12.75H11.25V16C11.25 16.4142 11.5858 16.75 12 16.75C12.4142 16.75 12.75 16.4142 12.75 16V12.75H16C16.4142 12.75 16.75 12.4142 16.75 12C16.75 11.5858 16.4142 11.25 16 11.25H12.75V8Z" fill="#2B2B2B"/>
<path fill-rule="evenodd" clip-rule="evenodd" d="M12.02 1.25C5.77012 1.25 1.25 6.35805 1.25 12.015C1.25 13.8406 1.7805 15.6943 2.69103 17.3697C2.69718 17.381 2.70361 17.3921 2.71032 17.4031C2.73452 17.4426 2.75975 17.5312 2.71281 17.6641C2.70871 17.6757 2.70489 17.6874 2.70137 17.6992L2.03137 19.9426L2.02728 19.9568C1.8815 20.4824 2.0256 21.0127 2.4042 21.3617C2.77274 21.7014 3.29608 21.8072 3.7883 21.655L5.80352 21.0565L5.8236 21.0502C6.01265 20.9882 6.16241 21.0165 6.68909 21.3381L6.69925 21.3442C8.28603 22.2792 10.24 22.75 12 22.75C17.3149 22.75 22.75 18.6354 22.75 11.985C22.75 6.25953 18.1318 1.25 12.02 1.25ZM2.75 12.015C2.75 7.13419 6.64988 2.75 12.02 2.75C17.2682 2.75 21.25 7.05244 21.25 11.985C21.25 17.6931 16.6051 21.25 12 21.25C10.4819 21.25 8.79816 20.8385 7.46572 20.0548C6.97462 19.7549 6.2699 19.3307 5.36742 19.6212L3.52983 20.167L4.13397 18.1441C4.29759 17.665 4.28202 17.1118 4.00125 16.6392C3.19665 15.1538 2.75 13.5496 2.75 12.015Z" fill="#2B2B2B"/>
</svg>
