<svg width="24" height="24" viewBox="0 0 24 24" fill="none" xmlns="http://www.w3.org/2000/svg">
<path d="M12.75 9C12.75 8.58579 12.4142 8.25 12 8.25C11.5858 8.25 11.25 8.58579 11.25 9V12.25H8C7.58579 12.25 7.25 12.5858 7.25 13C7.25 13.4142 7.58579 13.75 8 13.75H11.25V17C11.25 17.4142 11.5858 17.75 12 17.75C12.4142 17.75 12.75 17.4142 12.75 17V13.75H16C16.4142 13.75 16.75 13.4142 16.75 13C16.75 12.5858 16.4142 12.25 16 12.25H12.75V9Z" fill="#2B2B2B"/>
<path fill-rule="evenodd" clip-rule="evenodd" d="M6 1.25C3.92893 1.25 2.25 2.92893 2.25 5V19C2.25 21.0711 3.92893 22.75 6 22.75H18C20.0711 22.75 21.75 21.0711 21.75 19V8C21.75 7.80109 21.671 7.61032 21.5303 7.46967L15.5303 1.46967C15.3897 1.32902 15.1989 1.25 15 1.25H6ZM3.75 5C3.75 3.75736 4.75736 2.75 6 2.75H14.25V6C14.25 7.51878 15.4812 8.75 17 8.75H20.25V19C20.25 20.2426 19.2426 21.25 18 21.25H6C4.75736 21.25 3.75 20.2426 3.75 19V5ZM19.1893 7.25L15.75 3.81066V6C15.75 6.69036 16.3096 7.25 17 7.25H19.1893Z" fill="#2B2B2B"/>
</svg>
