<svg width="24" height="24" viewBox="0 0 24 24" fill="none" xmlns="http://www.w3.org/2000/svg">
<path d="M7.25 11C7.25 10.5858 7.58579 10.25 8 10.25H14C14.4142 10.25 14.75 10.5858 14.75 11C14.75 11.4142 14.4142 11.75 14 11.75H8C7.58579 11.75 7.25 11.4142 7.25 11Z" fill="#2B2B2B"/>
<path d="M7.25 16C7.25 15.5858 7.58579 15.25 8 15.25H16C16.4142 15.25 16.75 15.5858 16.75 16C16.75 16.4142 16.4142 16.75 16 16.75H8C7.58579 16.75 7.25 16.4142 7.25 16Z" fill="#2B2B2B"/>
<path fill-rule="evenodd" clip-rule="evenodd" d="M6 1.25C3.92893 1.25 2.25 2.92893 2.25 5V19C2.25 21.0711 3.92893 22.75 6 22.75H18C20.0711 22.75 21.75 21.0711 21.75 19V8C21.75 7.80109 21.671 7.61032 21.5303 7.46967L15.5303 1.46967C15.3897 1.32902 15.1989 1.25 15 1.25H6ZM3.75 5C3.75 3.75736 4.75736 2.75 6 2.75H14.25V6C14.25 7.51878 15.4812 8.75 17 8.75H20.25V19C20.25 20.2426 19.2426 21.25 18 21.25H6C4.75736 21.25 3.75 20.2426 3.75 19V5ZM19.1893 7.25L15.75 3.81066V6C15.75 6.69036 16.3096 7.25 17 7.25H19.1893Z" fill="#2B2B2B"/>
</svg>
