<svg width="24" height="24" viewBox="0 0 24 24" fill="none" xmlns="http://www.w3.org/2000/svg">
<path d="M16.5623 13.5349C16.8844 12.6643 18.1161 12.6643 18.4382 13.5349L19.0964 15.3132C19.1978 15.5869 19.4136 15.8028 19.6873 15.9041L21.4656 16.5623C22.3361 16.8845 22.3362 18.1161 21.4656 18.4382L19.6873 19.0964C19.4135 19.1977 19.1977 19.4135 19.0964 19.6873L18.4382 21.4656C18.1161 22.3362 16.8845 22.3361 16.5623 21.4656L15.9041 19.6873C15.8028 19.4136 15.5869 19.1978 15.3132 19.0964L13.5349 18.4382C12.6643 18.1161 12.6643 16.8844 13.5349 16.5623L15.3132 15.9041C15.5869 15.8028 15.8028 15.5869 15.9041 15.3132L16.5623 13.5349Z" fill="#2B2B2B"/>
<path d="M8.56227 2.53492C8.88442 1.6643 10.1161 1.6643 10.4382 2.53492L11.906 6.5027C12.0073 6.77632 12.2233 6.99219 12.4968 7.09352L16.4656 8.56227C17.3361 8.8845 17.3362 10.1161 16.4656 10.4382L12.4968 11.906C12.2232 12.0073 12.0073 12.2232 11.906 12.4968L10.4382 16.4656C10.1161 17.3362 8.8845 17.3361 8.56227 16.4656L7.09352 12.4968C6.99219 12.2232 6.77632 12.0073 6.5027 11.906L2.53492 10.4382C1.6643 10.1161 1.6643 8.88442 2.53492 8.56227L6.5027 7.09352C6.77641 6.99223 6.99223 6.77641 7.09352 6.5027L8.56227 2.53492Z" fill="#2B2B2B"/>
</svg>
