<svg width="24" height="24" viewBox="0 0 24 24" fill="none" xmlns="http://www.w3.org/2000/svg">
<path d="M4.53033 1.53033C4.82322 1.23744 4.82322 0.762563 4.53033 0.46967C4.23744 0.176777 3.76256 0.176777 3.46967 0.46967L0.46967 3.46967C0.176777 3.76256 0.176777 4.23744 0.46967 4.53033C0.762563 4.82322 1.23744 4.82322 1.53033 4.53033L4.53033 1.53033Z" fill="#2B2B2B"/>
<path d="M20.5303 0.46967C20.2374 0.176777 19.7626 0.176777 19.4697 0.46967C19.1768 0.762563 19.1768 1.23744 19.4697 1.53033L22.4697 4.53033C22.7626 4.82322 23.2374 4.82322 23.5303 4.53033C23.8232 4.23744 23.8232 3.76256 23.5303 3.46967L20.5303 0.46967Z" fill="#2B2B2B"/>
<path d="M12.75 7C12.75 6.58579 12.4142 6.25 12 6.25C11.5858 6.25 11.25 6.58579 11.25 7V12.375L15.55 15.6C15.8814 15.8485 16.3515 15.7814 16.6 15.45C16.8485 15.1186 16.7814 14.6485 16.45 14.4L12.75 11.625V7Z" fill="#2B2B2B"/>
<path fill-rule="evenodd" clip-rule="evenodd" d="M12 1.25C6.06294 1.25 1.25 6.06294 1.25 12C1.25 17.9371 6.06294 22.75 12 22.75C17.9371 22.75 22.75 17.9371 22.75 12C22.75 6.06294 17.9371 1.25 12 1.25ZM2.75 12C2.75 6.89137 6.89137 2.75 12 2.75C17.1086 2.75 21.25 6.89137 21.25 12C21.25 17.1086 17.1086 21.25 12 21.25C6.89137 21.25 2.75 17.1086 2.75 12Z" fill="#2B2B2B"/>
</svg>
