<svg width="24" height="24" viewBox="0 0 24 24" fill="none" xmlns="http://www.w3.org/2000/svg">
<path fill-rule="evenodd" clip-rule="evenodd" d="M12 8.25C9.92893 8.25 8.25 9.92893 8.25 12C8.25 14.0711 9.92893 15.75 12 15.75C14.0711 15.75 15.75 14.0711 15.75 12C15.75 9.92893 14.0711 8.25 12 8.25ZM9.75 12C9.75 10.7574 10.7574 9.75 12 9.75C13.2426 9.75 14.25 10.7574 14.25 12C14.25 13.2426 13.2426 14.25 12 14.25C10.7574 14.25 9.75 13.2426 9.75 12Z" fill="#2B2B2B"/>
<path d="M12.8285 6.01036C12.9357 5.61026 13.3469 5.37282 13.747 5.48003C15.4762 5.94337 16.9506 7.07466 17.8457 8.62502C18.0528 8.98374 17.9299 9.44244 17.5712 9.64954C17.2124 9.85665 16.7537 9.73374 16.5466 9.37502C15.8504 8.16918 14.7037 7.28929 13.3588 6.92892C12.9587 6.82171 12.7213 6.41046 12.8285 6.01036Z" fill="#2B2B2B"/>
<path d="M7.45336 14.625C7.24625 14.2663 6.78756 14.1434 6.42884 14.3505C6.07012 14.5576 5.94721 15.0163 6.15432 15.375C7.04942 16.9254 8.52375 18.0567 10.253 18.52C10.6531 18.6272 11.0643 18.3898 11.1715 17.9897C11.2787 17.5896 11.0413 17.1783 10.6412 17.0711C9.29625 16.7107 8.14955 15.8308 7.45336 14.625Z" fill="#2B2B2B"/>
<path fill-rule="evenodd" clip-rule="evenodd" d="M12 1.25C6.06294 1.25 1.25 6.06294 1.25 12C1.25 17.9371 6.06294 22.75 12 22.75C17.9371 22.75 22.75 17.9371 22.75 12C22.75 6.06294 17.9371 1.25 12 1.25ZM2.75 12C2.75 6.89137 6.89137 2.75 12 2.75C17.1086 2.75 21.25 6.89137 21.25 12C21.25 17.1086 17.1086 21.25 12 21.25C6.89137 21.25 2.75 17.1086 2.75 12Z" fill="#2B2B2B"/>
</svg>
