<svg width="24" height="24" viewBox="0 0 24 24" fill="none" xmlns="http://www.w3.org/2000/svg">
<path d="M16.9516 3.35977C19.271 2.24052 22 3.86829 22 6.37102V13.8152C22 16.3179 19.271 17.9457 16.9516 16.8265L14.1609 15.4798C12.9791 14.9095 12.2326 13.7438 12.2326 12.4686V7.71769C12.2326 6.44249 12.9791 5.27673 14.1609 4.70644L16.9516 3.35977Z" fill="#2B2B2B"/>
<path d="M6.4186 5.82869C3.97828 5.82869 2 7.73795 2 10.0931C2 12.2813 3.70757 14.0845 5.9068 14.3293L7.8086 19.3959C8.25414 20.5828 9.56661 21.2434 10.8301 20.9167C12.2868 20.54 13.0768 19.021 12.5194 17.6686L11.0891 14.1981C11.4937 13.981 11.7674 13.5642 11.7674 13.0857V7.10054C11.7674 6.39811 11.1774 5.82869 10.4496 5.82869H6.4186Z" fill="#2B2B2B"/>
</svg>
