<svg width="24" height="24" viewBox="0 0 24 24" fill="none" xmlns="http://www.w3.org/2000/svg">
<path fill-rule="evenodd" clip-rule="evenodd" d="M13.3592 4.89617C12.7881 5.14159 12.31 5.52252 11.9588 5.98872H6.4186C3.97828 5.98872 2 7.87784 2 10.2082C2 12.3733 3.70762 14.1575 5.9069 14.3997L7.8087 19.4128C8.25424 20.5872 9.56671 21.2409 10.8302 20.9176C12.2869 20.5448 13.0769 19.0419 12.5195 17.7037L11.1549 14.4277H11.9588C12.3099 14.8939 12.7881 15.2748 13.3592 15.5203L17.0801 17.1192C19.3885 18.1112 22 16.4987 22 14.0815V6.33497C22 3.91769 19.3885 2.30525 17.0801 3.29721L13.3592 4.89617ZM20.6047 6.33497C20.6047 4.8846 19.0378 3.91713 17.6527 4.51231L13.9318 6.11127C13.1807 6.43403 12.6977 7.14742 12.6977 7.93392V12.4825C12.6977 13.269 13.1807 13.9824 13.9318 14.3052L17.6527 15.9041C19.0378 16.4993 20.6047 15.5318 20.6047 14.0815V6.33497ZM11.3023 7.32118V13.0952H6.4186C4.74891 13.0952 3.39535 11.8026 3.39535 10.2082C3.39535 8.61374 4.74891 7.32118 6.4186 7.32118H11.3023ZM9.12062 18.9589L7.4135 14.459H9.66631L11.223 18.1962C11.4717 18.7934 11.1192 19.4642 10.4691 19.6305C9.90519 19.7748 9.31945 19.4831 9.12062 18.9589Z" fill="#2B2B2B"/>
</svg>
