<svg width="24" height="24" viewBox="0 0 24 24" fill="none" xmlns="http://www.w3.org/2000/svg">
<path d="M13.0303 8.46967C12.7374 8.17678 12.2626 8.17678 11.9697 8.46967C11.6768 8.76256 11.6768 9.23744 11.9697 9.53033L13.6893 11.25H8C7.58579 11.25 7.25 11.5858 7.25 12C7.25 12.4142 7.58579 12.75 8 12.75H13.6893L11.9697 14.4697C11.6768 14.7626 11.6768 15.2374 11.9697 15.5303C12.2626 15.8232 12.7374 15.8232 13.0303 15.5303L16.0303 12.5303C16.3232 12.2374 16.3232 11.7626 16.0303 11.4697L13.0303 8.46967Z" fill="#2B2B2B"/>
<path fill-rule="evenodd" clip-rule="evenodd" d="M12 1.25C6.06294 1.25 1.25 6.06294 1.25 12C1.25 17.9371 6.06294 22.75 12 22.75C17.9371 22.75 22.75 17.9371 22.75 12C22.75 6.06294 17.9371 1.25 12 1.25ZM2.75 12C2.75 6.89137 6.89137 2.75 12 2.75C17.1086 2.75 21.25 6.89137 21.25 12C21.25 17.1086 17.1086 21.25 12 21.25C6.89137 21.25 2.75 17.1086 2.75 12Z" fill="#2B2B2B"/>
</svg>
