<svg width="24" height="24" viewBox="0 0 24 24" fill="none" xmlns="http://www.w3.org/2000/svg">
<path fill-rule="evenodd" clip-rule="evenodd" d="M3.46967 11.4697C3.76256 11.1768 4.23744 11.1768 4.53033 11.4697L12 18.9393L19.4697 11.4697C19.7626 11.1768 20.2374 11.1768 20.5303 11.4697C20.8232 11.7626 20.8232 12.2374 20.5303 12.5303L12.5303 20.5303C12.3897 20.671 12.1989 20.75 12 20.75C11.8011 20.75 11.6103 20.671 11.4697 20.5303L3.46967 12.5303C3.17678 12.2374 3.17678 11.7626 3.46967 11.4697Z" fill="#2B2B2B"/>
<path fill-rule="evenodd" clip-rule="evenodd" d="M12 20.75C11.5858 20.75 11.25 20.4142 11.25 20L11.25 4C11.25 3.58579 11.5858 3.25 12 3.25C12.4142 3.25 12.75 3.58579 12.75 4L12.75 20C12.75 20.4142 12.4142 20.75 12 20.75Z" fill="#2B2B2B"/>
</svg>
