<svg width="24" height="24" viewBox="0 0 24 24" fill="none" xmlns="http://www.w3.org/2000/svg">
<path fill-rule="evenodd" clip-rule="evenodd" d="M12.5303 3.46967C12.8232 3.76256 12.8232 4.23744 12.5303 4.53033L5.06066 12L12.5303 19.4697C12.8232 19.7626 12.8232 20.2374 12.5303 20.5303C12.2374 20.8232 11.7626 20.8232 11.4697 20.5303L3.46967 12.5303C3.32902 12.3897 3.25 12.1989 3.25 12C3.25 11.8011 3.32902 11.6103 3.46967 11.4697L11.4697 3.46967C11.7626 3.17678 12.2374 3.17678 12.5303 3.46967Z" fill="#2B2B2B"/>
<path fill-rule="evenodd" clip-rule="evenodd" d="M3.25 12C3.25 11.5858 3.58579 11.25 4 11.25H20C20.4142 11.25 20.75 11.5858 20.75 12C20.75 12.4142 20.4142 12.75 20 12.75H4C3.58579 12.75 3.25 12.4142 3.25 12Z" fill="#2B2B2B"/>
</svg>
