<svg width="24" height="24" viewBox="0 0 24 24" fill="none" xmlns="http://www.w3.org/2000/svg">
<path d="M15.5303 13.0303C15.8232 12.7374 15.8232 12.2626 15.5303 11.9697C15.2374 11.6768 14.7626 11.6768 14.4697 11.9697L12.75 13.6893V8C12.75 7.58579 12.4142 7.25 12 7.25C11.5858 7.25 11.25 7.58579 11.25 8V13.6893L9.53033 11.9697C9.23744 11.6768 8.76256 11.6768 8.46967 11.9697C8.17678 12.2626 8.17678 12.7374 8.46967 13.0303L11.4697 16.0303C11.7626 16.3232 12.2374 16.3232 12.5303 16.0303L15.5303 13.0303Z" fill="#2B2B2B"/>
<path fill-rule="evenodd" clip-rule="evenodd" d="M12 1.25C6.06294 1.25 1.25 6.06294 1.25 12C1.25 17.9371 6.06294 22.75 12 22.75C17.9371 22.75 22.75 17.9371 22.75 12C22.75 6.06294 17.9371 1.25 12 1.25ZM2.75 12C2.75 6.89137 6.89137 2.75 12 2.75C17.1086 2.75 21.25 6.89137 21.25 12C21.25 17.1086 17.1086 21.25 12 21.25C6.89137 21.25 2.75 17.1086 2.75 12Z" fill="#2B2B2B"/>
</svg>
