<svg width="24" height="24" viewBox="0 0 24 24" fill="none" xmlns="http://www.w3.org/2000/svg">
<path d="M4.53033 12.5303C4.23744 12.8232 3.76256 12.8232 3.46967 12.5303C3.17678 12.2374 3.17678 11.7626 3.46967 11.4697L11.4692 3.47017C11.6049 3.33415 11.7926 3.25 12 3.25C12.2075 3.25 12.3954 3.33431 12.5312 3.47054L20.5303 11.4697C20.8232 11.7626 20.8232 12.2374 20.5303 12.5303C20.2374 12.8232 19.7626 12.8232 19.4697 12.5303L12.75 5.81066L12.75 20C12.75 20.4142 12.4142 20.75 12 20.75C11.5858 20.75 11.25 20.4142 11.25 20L11.25 5.81066L4.53033 12.5303Z" fill="#2B2B2B"/>
</svg>
