<svg width="24" height="24" viewBox="0 0 24 24" fill="none" xmlns="http://www.w3.org/2000/svg">
<path d="M10.7817 7.7845C10.9007 7.38776 11.3188 7.16262 11.7156 7.28164C12.1123 7.40067 12.3374 7.81878 12.2184 8.21553L11.7581 9.75H12C12.4142 9.75 12.75 10.0858 12.75 10.5C12.75 10.9142 12.4142 11.25 12 11.25H11.3081L10.7184 13.2155C10.6777 13.3513 10.602 13.4669 10.504 13.5556C10.4421 13.6119 10.3699 13.6584 10.2893 13.692C10.1988 13.7299 10.1006 13.7503 10 13.7502C9.89942 13.7503 9.80123 13.7299 9.71075 13.692C9.63009 13.6584 9.55792 13.6119 9.49596 13.5556C9.39805 13.4669 9.32231 13.3513 9.28158 13.2155L8.69193 11.25H8.30807L7.71842 13.2155C7.67768 13.3513 7.60193 13.467 7.50398 13.5556C7.44204 13.6119 7.36988 13.6584 7.28925 13.692C7.19877 13.7299 7.10058 13.7503 7 13.7502C6.89942 13.7503 6.80123 13.7299 6.71075 13.692C6.63012 13.6584 6.55796 13.6119 6.49602 13.5556C6.39808 13.467 6.32232 13.3513 6.28158 13.2155L5.69193 11.25H5C4.58579 11.25 4.25 10.9142 4.25 10.5C4.25 10.0858 4.58579 9.75 5 9.75H5.24193L4.78158 8.21553C4.66256 7.81878 4.8877 7.40067 5.28444 7.28164C5.68119 7.16262 6.0993 7.38776 6.21832 7.7845L6.80797 9.75H7.19203L7.77685 7.8006C7.7878 7.76103 7.80196 7.7225 7.81912 7.6854C7.851 7.61618 7.89259 7.55365 7.94173 7.49897C8.02261 7.40868 8.1263 7.33698 8.24746 7.29377C8.32754 7.26506 8.41288 7.24979 8.5 7.24982C8.58712 7.24979 8.67246 7.26506 8.75254 7.29377C8.8737 7.33698 8.97739 7.40868 9.05827 7.49897C9.10741 7.55365 9.149 7.61618 9.18088 7.6854C9.19804 7.7225 9.2122 7.76103 9.22315 7.8006L9.80797 9.75H10.192L10.7817 7.7845Z" fill="#2B2B2B"/>
<path fill-rule="evenodd" clip-rule="evenodd" d="M1.25 6C1.25 4.48122 2.48122 3.25 4 3.25H20C21.5188 3.25 22.75 4.48122 22.75 6V18C22.75 19.5188 21.5188 20.75 20 20.75H4C2.48122 20.75 1.25 19.5188 1.25 18V6ZM21.25 6V15.25H2.75V6C2.75 5.30964 3.30964 4.75 4 4.75H20C20.6904 4.75 21.25 5.30964 21.25 6ZM21.25 18V16.75H2.75V18C2.75 18.6904 3.30964 19.25 4 19.25H20C20.6904 19.25 21.25 18.6904 21.25 18Z" fill="#2B2B2B"/>
</svg>
