<svg width="24" height="24" viewBox="0 0 24 24" fill="none" xmlns="http://www.w3.org/2000/svg">
<path d="M15.75 7C15.75 6.58579 15.4142 6.25 15 6.25C14.5858 6.25 14.25 6.58579 14.25 7V11C14.25 11.4142 14.5858 11.75 15 11.75C15.4142 11.75 15.75 11.4142 15.75 11V7Z" fill="#2B2B2B"/>
<path fill-rule="evenodd" clip-rule="evenodd" d="M8 2.25C5.92893 2.25 4.25 3.92893 4.25 6V20.2768C4.25 21.6205 5.70159 22.4629 6.86824 21.7962L10.3875 19.7852C11.3867 19.2143 12.6133 19.2143 13.6125 19.7852L17.1318 21.7962C18.2984 22.4629 19.75 21.6205 19.75 20.2768V6C19.75 3.92893 18.0711 2.25 16 2.25H8ZM5.75 6C5.75 4.75736 6.75736 3.75 8 3.75H16C17.2426 3.75 18.25 4.75736 18.25 6V20.2768C18.25 20.4688 18.0426 20.5891 17.876 20.4939L14.3567 18.4828C12.8964 17.6484 11.1036 17.6484 9.64334 18.4828L6.12403 20.4939C5.95737 20.5891 5.75 20.4688 5.75 20.2768V6Z" fill="#2B2B2B"/>
</svg>
