<svg width="24" height="24" viewBox="0 0 24 24" fill="none" xmlns="http://www.w3.org/2000/svg">
<path d="M12.75 8C12.75 7.58579 12.4142 7.25 12 7.25C11.5858 7.25 11.25 7.58579 11.25 8V16C11.25 16.4142 11.5858 16.75 12 16.75C12.4142 16.75 12.75 16.4142 12.75 16V8Z" fill="#2B2B2B"/>
<path fill-rule="evenodd" clip-rule="evenodd" d="M16.5518 1.42891C15.835 1.29858 15.0977 1.3349 14.3972 1.53506L12.8928 1.96486C12.3093 2.13159 11.6907 2.13159 11.1072 1.96486L9.60283 1.53506C8.90227 1.3349 8.16505 1.29858 7.4482 1.42891L4.50806 1.96348C3.20046 2.20123 2.25 3.34009 2.25 4.66913V18.6035C2.25 20.3193 3.80388 21.6161 5.49194 21.3092L7.19983 20.9987C7.95255 20.8618 8.72941 20.9949 9.39366 21.3745L9.64334 21.5171C11.1036 22.3516 12.8964 22.3516 14.3567 21.5171L14.6063 21.3745C15.2706 20.9949 16.0475 20.8618 16.8002 20.9987L18.5081 21.3092C20.1961 21.6161 21.75 20.3193 21.75 18.6035V4.66913C21.75 3.34009 20.7995 2.20123 19.4919 1.96348L16.5518 1.42891ZM14.8092 2.97734C15.2886 2.84039 15.793 2.81554 16.2835 2.90472L19.2236 3.43929C19.818 3.54735 20.25 4.06502 20.25 4.66913V18.6035C20.25 19.3834 19.5437 19.9729 18.7764 19.8334L17.0685 19.5229C15.9684 19.3228 14.833 19.5173 13.8621 20.0721L13.6125 20.2148C12.6133 20.7857 11.3867 20.7857 10.3875 20.2148L10.1379 20.0721C9.16704 19.5173 8.03162 19.3228 6.9315 19.5229L5.22361 19.8334C4.45631 19.9729 3.75 19.3834 3.75 18.6035V4.66913C3.75 4.06502 4.18203 3.54735 4.77639 3.43929L7.71653 2.90472C8.207 2.81554 8.71142 2.84039 9.19075 2.97734L10.6951 3.40715C11.548 3.65083 12.452 3.65083 13.3049 3.40715L14.8092 2.97734Z" fill="#2B2B2B"/>
</svg>
