<svg width="24" height="24" viewBox="0 0 24 24" fill="none" xmlns="http://www.w3.org/2000/svg">
<path fill-rule="evenodd" clip-rule="evenodd" d="M4.25 6C4.25 3.92893 5.92893 2.25 8 2.25H16C18.0711 2.25 19.75 3.92893 19.75 6V20.2768C19.75 21.6205 18.2984 22.4629 17.1318 21.7962L13.6125 19.7852C12.6133 19.2143 11.3867 19.2143 10.3875 19.7852L6.86824 21.7962C5.70159 22.4629 4.25 21.6205 4.25 20.2768V6ZM15.75 7C15.75 6.58579 15.4142 6.25 15 6.25C14.5858 6.25 14.25 6.58579 14.25 7V11C14.25 11.4142 14.5858 11.75 15 11.75C15.4142 11.75 15.75 11.4142 15.75 11V7Z" fill="#2B2B2B"/>
</svg>
