<svg width="24" height="24" viewBox="0 0 24 24" fill="none" xmlns="http://www.w3.org/2000/svg">
<path fill-rule="evenodd" clip-rule="evenodd" d="M8 1.25C8.41421 1.25 8.75 1.58579 8.75 2V2.25H15.25V2C15.25 1.58579 15.5858 1.25 16 1.25C16.4142 1.25 16.75 1.58579 16.75 2V2.25H18C20.0711 2.25 21.75 3.92893 21.75 6V18C21.75 20.0711 20.0711 21.75 18 21.75H6C3.92893 21.75 2.25 20.0711 2.25 18V6C2.25 3.92893 3.92893 2.25 6 2.25H7.25V2C7.25 1.58579 7.58579 1.25 8 1.25ZM7.25 3.75H6C4.75736 3.75 3.75 4.75736 3.75 6V8.29268C3.82819 8.26504 3.91234 8.25 4 8.25H20C20.0877 8.25 20.1718 8.26504 20.25 8.29268V6C20.25 4.75736 19.2426 3.75 18 3.75H16.75V5C16.75 5.41421 16.4142 5.75 16 5.75C15.5858 5.75 15.25 5.41421 15.25 5V3.75H8.75V5C8.75 5.41421 8.41421 5.75 8 5.75C7.58579 5.75 7.25 5.41421 7.25 5V3.75ZM20.25 9.70732C20.1718 9.73496 20.0877 9.75 20 9.75H4C3.91234 9.75 3.82819 9.73496 3.75 9.70732V18C3.75 19.2426 4.75736 20.25 6 20.25H18C19.2426 20.25 20.25 19.2426 20.25 18V9.70732ZM15.5303 12.4697C15.8232 12.7626 15.8232 13.2374 15.5303 13.5303L11.5303 17.5303C11.2374 17.8232 10.7626 17.8232 10.4697 17.5303L8.46967 15.5303C8.17678 15.2374 8.17678 14.7626 8.46967 14.4697C8.76256 14.1768 9.23744 14.1768 9.53033 14.4697L11 15.9393L14.4697 12.4697C14.7626 12.1768 15.2374 12.1768 15.5303 12.4697Z" fill="#2B2B2B"/>
</svg>
