<svg width="24" height="24" viewBox="0 0 24 24" fill="none" xmlns="http://www.w3.org/2000/svg">
<path fill-rule="evenodd" clip-rule="evenodd" d="M8.75 2C8.75 1.58579 8.41421 1.25 8 1.25C7.58579 1.25 7.25 1.58579 7.25 2V2.25H6C3.92893 2.25 2.25 3.92893 2.25 6V18C2.25 20.0711 3.92893 21.75 6 21.75H18C20.0711 21.75 21.75 20.0711 21.75 18V6C21.75 3.92893 20.0711 2.25 18 2.25H16.75V2C16.75 1.58579 16.4142 1.25 16 1.25C15.5858 1.25 15.25 1.58579 15.25 2V2.25H8.75V2ZM6 3.75H7.25V5C7.25 5.41421 7.58579 5.75 8 5.75C8.41421 5.75 8.75 5.41421 8.75 5V3.75H15.25V5C15.25 5.41421 15.5858 5.75 16 5.75C16.4142 5.75 16.75 5.41421 16.75 5V3.75H18C19.2426 3.75 20.25 4.75736 20.25 6V8.29268C20.1718 8.26504 20.0877 8.25 20 8.25H4C3.91234 8.25 3.82819 8.26504 3.75 8.29268V6C3.75 4.75736 4.75736 3.75 6 3.75ZM9 13C9 13.5523 8.55228 14 8 14C7.44772 14 7 13.5523 7 13C7 12.4477 7.44772 12 8 12C8.55228 12 9 12.4477 9 13ZM9 17C9 17.5523 8.55228 18 8 18C7.44772 18 7 17.5523 7 17C7 16.4477 7.44772 16 8 16C8.55228 16 9 16.4477 9 17ZM13 13C13 13.5523 12.5523 14 12 14C11.4477 14 11 13.5523 11 13C11 12.4477 11.4477 12 12 12C12.5523 12 13 12.4477 13 13ZM13 17C13 17.5523 12.5523 18 12 18C11.4477 18 11 17.5523 11 17C11 16.4477 11.4477 16 12 16C12.5523 16 13 16.4477 13 17ZM17 13C17 13.5523 16.5523 14 16 14C15.4477 14 15 13.5523 15 13C15 12.4477 15.4477 12 16 12C16.5523 12 17 12.4477 17 13Z" fill="#2B2B2B"/>
</svg>
