<svg width="24" height="24" viewBox="0 0 24 24" fill="none" xmlns="http://www.w3.org/2000/svg">
<path d="M6 7.25C5.58579 7.25 5.25 7.58579 5.25 8C5.25 8.41421 5.58579 8.75 6 8.75H9C9.41421 8.75 9.75 8.41421 9.75 8C9.75 7.58579 9.41421 7.25 9 7.25H6Z" fill="#2B2B2B"/>
<path fill-rule="evenodd" clip-rule="evenodd" d="M1.25 8C1.25 5.37665 3.37665 3.25 6 3.25H13C14.9314 3.25 16.5936 4.40274 17.3361 6.05776L20.35 4.85217C21.4995 4.39237 22.75 5.23894 22.75 6.47701V17.5229C22.75 18.761 21.4995 19.6076 20.35 19.1478L17.3361 17.9422C16.5936 19.5972 14.9314 20.75 13 20.75H6C3.37665 20.75 1.25 18.6234 1.25 16V8ZM17.75 8C17.75 7.83709 17.7418 7.6761 17.7258 7.51742L20.9071 6.24489C21.0713 6.1792 21.25 6.30014 21.25 6.47701V17.5229C21.25 17.6998 21.0713 17.8207 20.9071 17.7551L17.7258 16.4825C17.7418 16.3239 17.75 16.1629 17.75 16V8ZM6 4.75C4.20507 4.75 2.75 6.20507 2.75 8V16C2.75 17.7949 4.20507 19.25 6 19.25H13C14.7949 19.25 16.25 17.7949 16.25 16V8C16.25 6.20507 14.7949 4.75 13 4.75H6Z" fill="#2B2B2B"/>
</svg>
