<svg width="24" height="24" viewBox="0 0 24 24" fill="none" xmlns="http://www.w3.org/2000/svg">
<path d="M13.25 15C13.25 14.5858 13.5858 14.25 14 14.25H17C17.4142 14.25 17.75 14.5858 17.75 15C17.75 15.4142 17.4142 15.75 17 15.75H14C13.5858 15.75 13.25 15.4142 13.25 15Z" fill="#2B2B2B"/>
<path fill-rule="evenodd" clip-rule="evenodd" d="M5 3.25C2.92893 3.25 1.25 4.92893 1.25 7V17C1.25 19.0711 2.92893 20.75 5 20.75H19C21.0711 20.75 22.75 19.0711 22.75 17V7C22.75 4.92893 21.0711 3.25 19 3.25H5ZM2.75 7C2.75 5.75736 3.75736 4.75 5 4.75H19C20.2426 4.75 21.25 5.75736 21.25 7V8.29268C21.1718 8.26504 21.0877 8.25 21 8.25H3C2.91234 8.25 2.82819 8.26504 2.75 8.29268V7ZM2.75 9.70732V17C2.75 18.2426 3.75736 19.25 5 19.25H19C20.2426 19.25 21.25 18.2426 21.25 17V9.70732C21.1718 9.73496 21.0877 9.75 21 9.75H3C2.91234 9.75 2.82819 9.73496 2.75 9.70732Z" fill="#2B2B2B"/>
</svg>
