<svg width="24" height="24" viewBox="0 0 24 24" fill="none" xmlns="http://www.w3.org/2000/svg">
<path fill-rule="evenodd" clip-rule="evenodd" d="M23 12C23 18.0751 18.0751 23 12 23C5.92487 23 1 18.0751 1 12C1 5.92487 5.92487 1 12 1C18.0751 1 23 5.92487 23 12ZM7.78947 11.2105C7.35346 11.2105 7 11.564 7 12C7 12.436 7.35346 12.7895 7.78947 12.7895H11.2105V16.2105C11.2105 16.6465 11.564 17 12 17C12.436 17 12.7895 16.6465 12.7895 16.2105V12.7895H16.2105C16.6465 12.7895 17 12.436 17 12C17 11.564 16.6465 11.2105 16.2105 11.2105H12.7895V7.78947C12.7895 7.35346 12.436 7 12 7C11.564 7 11.2105 7.35346 11.2105 7.78947V11.2105H7.78947Z" fill="#2B2B2B"/>
</svg>
