<svg width="24" height="24" viewBox="0 0 24 24" fill="none" xmlns="http://www.w3.org/2000/svg">
<path fill-rule="evenodd" clip-rule="evenodd" d="M12 1.25C6.06294 1.25 1.25 6.06294 1.25 12C1.25 17.9371 6.06294 22.75 12 22.75C17.9371 22.75 22.75 17.9371 22.75 12C22.75 6.06294 17.9371 1.25 12 1.25ZM2.75 12C2.75 6.89137 6.89137 2.75 12 2.75C14.2843 2.75 16.3753 3.57804 17.989 4.95033L4.95033 17.989C3.57804 16.3752 2.75 14.2843 2.75 12ZM6.01099 19.0497C7.62474 20.422 9.71567 21.25 12 21.25C17.1086 21.25 21.25 17.1086 21.25 12C21.25 9.71567 20.422 7.62474 19.0497 6.01099L6.01099 19.0497Z" fill="#2B2B2B"/>
</svg>
