<svg width="24" height="24" viewBox="0 0 24 24" fill="none" xmlns="http://www.w3.org/2000/svg">
<path fill-rule="evenodd" clip-rule="evenodd" d="M12 23C18.0751 23 23 18.0751 23 12C23 5.92487 18.0751 1 12 1C5.92487 1 1 5.92487 1 12C1 18.0751 5.92487 23 12 23ZM16.5762 9.48016C16.8413 9.16195 16.7983 8.68903 16.4801 8.42385C16.1619 8.15868 15.689 8.20167 15.4238 8.51988L10.9496 13.889L8.53033 11.4697C8.23744 11.1768 7.76256 11.1768 7.46967 11.4697C7.17678 11.7626 7.17678 12.2375 7.46967 12.5303L10.4697 15.5303C10.6187 15.6793 10.8235 15.7588 11.034 15.7492C11.2445 15.7397 11.4413 15.642 11.5762 15.4802L16.5762 9.48016Z" fill="#2B2B2B"/>
</svg>
