<svg width="24" height="24" viewBox="0 0 24 24" fill="none" xmlns="http://www.w3.org/2000/svg">
<path fill-rule="evenodd" clip-rule="evenodd" d="M12 2.75C6.89137 2.75 2.75 6.89137 2.75 12C2.75 17.1086 6.89137 21.25 12 21.25C17.1086 21.25 21.25 17.1086 21.25 12C21.25 6.89137 17.1086 2.75 12 2.75ZM1.25 12C1.25 6.06294 6.06294 1.25 12 1.25C17.9371 1.25 22.75 6.06294 22.75 12C22.75 17.9371 17.9371 22.75 12 22.75C6.06294 22.75 1.25 17.9371 1.25 12ZM12 6.25C12.2474 6.25 12.4788 6.37197 12.6187 6.57601L14.2312 8.92896L16.9673 9.73552C17.2046 9.80546 17.3921 9.9879 17.4686 10.2232C17.545 10.4584 17.5005 10.7162 17.3497 10.9123L15.6102 13.173L15.6886 16.0245C15.6954 16.2717 15.5799 16.5065 15.3798 16.6518C15.1796 16.7972 14.9207 16.8346 14.6876 16.7517L12 15.796L9.31236 16.7517C9.0793 16.8346 8.82035 16.7972 8.62023 16.6518C8.42012 16.5065 8.30456 16.2717 8.31136 16.0245L8.38978 13.173L6.6503 10.9123C6.49946 10.7162 6.45499 10.4584 6.53142 10.2232C6.60786 9.9879 6.79539 9.80546 7.03265 9.73552L9.76876 8.92896L11.3813 6.57601C11.5212 6.37197 11.7526 6.25 12 6.25ZM12 8.32668L10.8553 9.99694C10.7578 10.1392 10.6142 10.2436 10.4487 10.2923L8.50647 10.8649L9.74124 12.4697C9.84644 12.6064 9.90129 12.7752 9.89655 12.9477L9.84088 14.9718L11.7487 14.2933C11.9113 14.2355 12.0887 14.2355 12.2513 14.2933L14.1591 14.9718L14.1035 12.9477C14.0987 12.7752 14.1536 12.6064 14.2588 12.4697L15.4935 10.8649L13.5513 10.2923C13.3858 10.2436 13.2422 10.1392 13.1447 9.99694L12 8.32668Z" fill="#2B2B2B"/>
</svg>
