<svg width="24" height="24" viewBox="0 0 24 24" fill="none" xmlns="http://www.w3.org/2000/svg">
<path d="M10.8553 9.99694L12 8.32668L13.1447 9.99694C13.2423 10.1392 13.3859 10.2436 13.5513 10.2923L15.4936 10.8649L14.2588 12.4697C14.1536 12.6064 14.0988 12.7752 14.1035 12.9477L14.1592 14.9718L12.2513 14.2933C12.0888 14.2355 11.9113 14.2355 11.7488 14.2933L9.84092 14.9718L9.89659 12.9477C9.90133 12.7752 9.84648 12.6064 9.74128 12.4697L8.50651 10.8649L10.4487 10.2923C10.6142 10.2436 10.7578 10.1392 10.8553 9.99694Z" fill="#2B2B2B"/>
<path fill-rule="evenodd" clip-rule="evenodd" d="M12 23C18.0751 23 23 18.0751 23 12C23 5.92487 18.0751 1 12 1C5.92487 1 1 5.92487 1 12C1 18.0751 5.92487 23 12 23ZM12.6187 6.57601C12.4789 6.37197 12.2474 6.25 12 6.25C11.7527 6.25 11.5212 6.37197 11.3814 6.57601L9.7688 8.92896L7.03269 9.73552C6.79543 9.80546 6.6079 9.9879 6.53147 10.2232C6.45503 10.4584 6.4995 10.7162 6.65034 10.9123L8.38982 13.173L8.3114 16.0245C8.3046 16.2717 8.42016 16.5065 8.62028 16.6518C8.82039 16.7972 9.07934 16.8346 9.3124 16.7517L12 15.796L14.6877 16.7517C14.9207 16.8346 15.1797 16.7972 15.3798 16.6518C15.5799 16.5065 15.6955 16.2717 15.6887 16.0245L15.6103 13.173L17.3497 10.9123C17.5006 10.7162 17.5451 10.4584 17.4686 10.2232C17.3922 9.9879 17.2047 9.80546 16.9674 9.73552L14.2313 8.92896L12.6187 6.57601Z" fill="#2B2B2B"/>
</svg>
