<svg width="24" height="24" viewBox="0 0 24 24" fill="none" xmlns="http://www.w3.org/2000/svg">
<path d="M16.5762 9.48013C16.8413 9.16192 16.7983 8.689 16.4801 8.42382C16.1619 8.15865 15.689 8.20164 15.4238 8.51985L10.9496 13.8889L8.53033 11.4697C8.23744 11.1768 7.76256 11.1768 7.46967 11.4697C7.17678 11.7626 7.17678 12.2374 7.46967 12.5303L10.4697 15.5303C10.6187 15.6793 10.8235 15.7588 11.034 15.7492C11.2445 15.7397 11.4413 15.642 11.5762 15.4801L16.5762 9.48013Z" fill="#2B2B2B"/>
<path fill-rule="evenodd" clip-rule="evenodd" d="M12 1.25C6.06294 1.25 1.25 6.06294 1.25 12C1.25 17.9371 6.06294 22.75 12 22.75C17.9371 22.75 22.75 17.9371 22.75 12C22.75 6.06294 17.9371 1.25 12 1.25ZM2.75 12C2.75 6.89137 6.89137 2.75 12 2.75C17.1086 2.75 21.25 6.89137 21.25 12C21.25 17.1086 17.1086 21.25 12 21.25C6.89137 21.25 2.75 17.1086 2.75 12Z" fill="#2B2B2B"/>
</svg>
