<svg width="24" height="24" viewBox="0 0 24 24" fill="none" xmlns="http://www.w3.org/2000/svg">
<path fill-rule="evenodd" clip-rule="evenodd" d="M12 23C18.0751 23 23 18.0751 23 12C23 5.92487 18.0751 1 12 1C5.92487 1 1 5.92487 1 12C1 18.0751 5.92487 23 12 23ZM16.3515 8.21965C16.6444 8.51255 16.6444 8.98742 16.3515 9.28031L13.3463 12.2855L16.3515 15.2907C16.6444 15.5836 16.6444 16.0585 16.3515 16.3514C16.0586 16.6443 15.5838 16.6443 15.2909 16.3514L12.2857 13.3462L9.28045 16.3514C8.98756 16.6443 8.51268 16.6443 8.21979 16.3514C7.9269 16.0585 7.9269 15.5836 8.21979 15.2907L11.225 12.2855L8.21979 9.28032C7.9269 8.98743 7.9269 8.51256 8.21979 8.21966C8.51269 7.92677 8.98756 7.92677 9.28045 8.21966L12.2857 11.2249L15.2909 8.21965C15.5838 7.92676 16.0586 7.92676 16.3515 8.21965Z" fill="#2B2B2B"/>
</svg>
