<svg width="24" height="24" viewBox="0 0 24 24" fill="none" xmlns="http://www.w3.org/2000/svg">
<path d="M14.5303 13.0303C14.8232 12.7374 14.8232 12.2626 14.5303 11.9697C14.2374 11.6768 13.7626 11.6768 13.4697 11.9697L11.75 13.6893V9C11.75 8.58579 11.4142 8.25 11 8.25C10.5858 8.25 10.25 8.58579 10.25 9V13.6893L8.53033 11.9697C8.23744 11.6768 7.76256 11.6768 7.46967 11.9697C7.17678 12.2626 7.17678 12.7374 7.46967 13.0303L10.4697 16.0303C10.7626 16.3232 11.2374 16.3232 11.5303 16.0303L14.5303 13.0303Z" fill="#2B2B2B"/>
<path fill-rule="evenodd" clip-rule="evenodd" d="M9.8 2.25C4.52568 2.25 0.25 6.52568 0.25 11.8V12C0.25 17.3848 4.61522 21.75 10 21.75H18.5C21.3995 21.75 23.75 19.3995 23.75 16.5V16.3137C23.75 13.7375 21.8261 11.6106 19.3367 11.2914C19.0723 6.25352 14.9037 2.25 9.8 2.25ZM1.75 11.8C1.75 7.35411 5.35411 3.75 9.8 3.75C14.2459 3.75 17.85 7.35411 17.85 11.8V11.9137C17.85 12.3756 18.2244 12.75 18.6863 12.75C20.6545 12.75 22.25 14.3455 22.25 16.3137V16.5C22.25 18.5711 20.5711 20.25 18.5 20.25H10C5.44365 20.25 1.75 16.5563 1.75 12V11.8Z" fill="#2B2B2B"/>
</svg>
