<svg width="24" height="24" viewBox="0 0 24 24" fill="none" xmlns="http://www.w3.org/2000/svg">
<path fill-rule="evenodd" clip-rule="evenodd" d="M0.25 11.8C0.25 6.52568 4.52568 2.25 9.8 2.25C14.9037 2.25 19.0723 6.25352 19.3367 11.2914C21.8261 11.6106 23.75 13.7375 23.75 16.3137V16.5C23.75 19.3995 21.3995 21.75 18.5 21.75H10C4.61522 21.75 0.25 17.3848 0.25 12V11.8ZM9.8 3.75C5.35411 3.75 1.75 7.35411 1.75 11.8V12C1.75 16.5563 5.44365 20.25 10 20.25H18.5C20.5711 20.25 22.25 18.5711 22.25 16.5V16.3137C22.25 14.3455 20.6545 12.75 18.6863 12.75C18.2244 12.75 17.85 12.3756 17.85 11.9137V11.8C17.85 7.35411 14.2459 3.75 9.8 3.75Z" fill="#2B2B2B"/>
</svg>
