<svg width="24" height="24" viewBox="0 0 24 24" fill="none" xmlns="http://www.w3.org/2000/svg">
<path fill-rule="evenodd" clip-rule="evenodd" d="M13.7734 17.6867L12.4743 12.75H11.5255L10.2289 17.6769C10.198 17.804 10.1341 17.9212 10.0442 18.0162C9.9693 18.0953 9.87628 18.159 9.76906 18.2001C9.69116 18.2301 9.60786 18.2473 9.52238 18.2499C9.42464 18.2528 9.3288 18.2365 9.23969 18.2035C9.13904 18.1664 9.05041 18.1093 8.9772 18.038C8.90385 17.9669 8.84424 17.8799 8.80426 17.7804C8.79344 17.7536 8.78415 17.7261 8.77645 17.6981L7.32112 12.75H6C5.58579 12.75 5.25 12.4142 5.25 12C5.25 11.5858 5.58579 11.25 6 11.25H6.87995L6.28043 9.21164C6.16355 8.81426 6.39094 8.39737 6.78833 8.28049C7.18571 8.16361 7.6026 8.39101 7.71948 8.78839L8.44348 11.25H10.3691L11.2695 7.82846C11.2814 7.7781 11.2984 7.72929 11.3202 7.68278C11.3505 7.61772 11.3894 7.5585 11.4352 7.50617C11.5185 7.41079 11.6267 7.33557 11.7532 7.29167C11.8315 7.26433 11.9147 7.24977 11.9999 7.24982C12.2179 7.24969 12.4236 7.34536 12.5645 7.50613C12.6103 7.55847 12.6493 7.61771 12.6796 7.68278C12.7013 7.72929 12.7183 7.7781 12.7302 7.82846L13.6306 11.25H15.5564L16.2804 8.78839C16.3973 8.39101 16.8142 8.16361 17.2116 8.28049C17.6089 8.39737 17.8363 8.81426 17.7195 9.21164L17.1199 11.25H18C18.4142 11.25 18.75 11.5858 18.75 12C18.75 12.4142 18.4142 12.75 18 12.75H16.6788L15.2203 17.7088L13.9704 12.75L15.2195 17.7116L15.2186 17.7146C15.176 17.8574 15.0945 17.9781 14.9892 18.0686C14.9286 18.1208 14.8589 18.1639 14.7817 18.1951C14.6873 18.2334 14.5847 18.2528 14.4798 18.2499C14.3854 18.2475 14.2937 18.2271 14.2088 18.1913C14.004 18.1049 13.8397 17.9288 13.7765 17.6984L13.7734 17.6867ZM11.9999 10.9473L11.9202 11.25H12.0795L11.9999 10.9473ZM8.88466 12.75H9.97441L9.4598 14.7055L8.88466 12.75ZM14.54 14.7057L14.0254 12.75H15.1152L14.54 14.7057Z" fill="#2B2B2B"/>
<path fill-rule="evenodd" clip-rule="evenodd" d="M12 1.25C6.06294 1.25 1.25 6.06294 1.25 12C1.25 17.9371 6.06294 22.75 12 22.75C17.9371 22.75 22.75 17.9371 22.75 12C22.75 6.06294 17.9371 1.25 12 1.25ZM2.75 12C2.75 6.89137 6.89137 2.75 12 2.75C17.1086 2.75 21.25 6.89137 21.25 12C21.25 17.1086 17.1086 21.25 12 21.25C6.89137 21.25 2.75 17.1086 2.75 12Z" fill="#2B2B2B"/>
</svg>
