<svg width="24" height="24" viewBox="0 0 24 24" fill="none" xmlns="http://www.w3.org/2000/svg">
<path fill-rule="evenodd" clip-rule="evenodd" d="M1.25 12.015C1.25 6.35805 5.77012 1.25 12.02 1.25C18.1318 1.25 22.75 6.25953 22.75 11.985C22.75 18.6354 17.3149 22.75 12 22.75C10.24 22.75 8.28603 22.2792 6.69925 21.3442L6.68909 21.3381C6.16241 21.0165 6.01265 20.9882 5.8236 21.0502L5.80352 21.0565L3.7883 21.655C3.29608 21.8072 2.77274 21.7014 2.4042 21.3617C2.0256 21.0127 1.8815 20.4824 2.02728 19.9568L2.03137 19.9426L2.70137 17.6992C2.70489 17.6874 2.70871 17.6757 2.71281 17.6641C2.75975 17.5312 2.73452 17.4426 2.71032 17.4031C2.70361 17.3921 2.69718 17.381 2.69103 17.3697C1.7805 15.6943 1.25 13.8406 1.25 12.015ZM7.07397 12.2C7.07397 12.7803 7.5454 13.2517 8.12569 13.2517C8.70597 13.2517 9.1774 12.7803 9.1774 12.2C9.1774 11.6215 8.70597 11.15 8.12569 11.15C7.5454 11.15 7.07397 11.6215 7.07397 12.2ZM11.1626 12.2C11.1626 12.7803 11.634 13.2518 12.2143 13.2518C12.7946 13.2518 13.266 12.7803 13.266 12.2C13.266 11.6215 12.7946 11.15 12.2143 11.15C11.634 11.15 11.1626 11.6215 11.1626 12.2ZM16.303 13.2518C15.7227 13.2518 15.2512 12.7803 15.2512 12.2C15.2512 11.6215 15.7227 11.15 16.303 11.15C16.8832 11.15 17.3547 11.6215 17.3547 12.2C17.3547 12.7803 16.8832 13.2518 16.303 13.2518Z" fill="#2B2B2B"/>
</svg>
