<svg width="24" height="24" viewBox="0 0 24 24" fill="none" xmlns="http://www.w3.org/2000/svg">
<path fill-rule="evenodd" clip-rule="evenodd" d="M15.2423 7.77686C15.286 7.47331 15.1406 7.17373 14.875 7.02039C14.6094 6.86705 14.2772 6.89085 14.0362 7.0805L9.80414 10.4106C9.65279 10.5297 9.55306 10.7025 9.52559 10.8931L8.75764 16.2232C8.71391 16.5267 8.85939 16.8263 9.12498 16.9797C9.39057 17.133 9.72276 17.1092 9.96377 16.9196L14.1958 13.5894C14.3472 13.4703 14.4469 13.2976 14.4744 13.107L15.2423 7.77686ZM10.5097 14.5813L10.9675 11.4039L13.4903 9.41879L13.0325 12.5961L10.5097 14.5813Z" fill="#2B2B2B"/>
<path fill-rule="evenodd" clip-rule="evenodd" d="M12 1.25C6.06294 1.25 1.25 6.06294 1.25 12C1.25 17.9371 6.06294 22.75 12 22.75C17.9371 22.75 22.75 17.9371 22.75 12C22.75 6.06294 17.9371 1.25 12 1.25ZM2.75 12C2.75 6.89137 6.89137 2.75 12 2.75C17.1086 2.75 21.25 6.89137 21.25 12C21.25 17.1086 17.1086 21.25 12 21.25C6.89137 21.25 2.75 17.1086 2.75 12Z" fill="#2B2B2B"/>
</svg>
