<svg width="24" height="24" viewBox="0 0 24 24" fill="none" xmlns="http://www.w3.org/2000/svg">
<path fill-rule="evenodd" clip-rule="evenodd" d="M5 2.25C5.41421 2.25 5.75 2.58579 5.75 3L5.75 8.35352C6.90425 8.67998 7.75 9.74122 7.75 11C7.75 12.2588 6.90425 13.32 5.75 13.6465L5.75 21C5.75 21.4142 5.41421 21.75 5 21.75C4.58579 21.75 4.25 21.4142 4.25 21L4.25 13.6465C3.09575 13.32 2.25 12.2588 2.25 11C2.25 9.74122 3.09575 8.67998 4.25 8.35352L4.25 3C4.25 2.58579 4.58579 2.25 5 2.25ZM5 9.75C4.30964 9.75 3.75 10.3096 3.75 11C3.75 11.6904 4.30964 12.25 5 12.25C5.69036 12.25 6.25 11.6904 6.25 11C6.25 10.3096 5.69036 9.75 5 9.75Z" fill="#2B2B2B"/>
<path fill-rule="evenodd" clip-rule="evenodd" d="M19 2.25C19.4142 2.25 19.75 2.58579 19.75 3V5.35352C20.9043 5.67998 21.75 6.74122 21.75 8C21.75 9.25878 20.9043 10.32 19.75 10.6465V21C19.75 21.4142 19.4142 21.75 19 21.75C18.5858 21.75 18.25 21.4142 18.25 21V10.6465C17.0957 10.32 16.25 9.25878 16.25 8C16.25 6.74122 17.0957 5.67998 18.25 5.35352V3C18.25 2.58579 18.5858 2.25 19 2.25ZM20.25 8C20.25 8.69036 19.6904 9.25 19 9.25C18.3096 9.25 17.75 8.69036 17.75 8C17.75 7.30964 18.3096 6.75 19 6.75C19.6904 6.75 20.25 7.30964 20.25 8Z" fill="#2B2B2B"/>
<path fill-rule="evenodd" clip-rule="evenodd" d="M11.25 21C11.25 21.4142 11.5858 21.75 12 21.75C12.4142 21.75 12.75 21.4142 12.75 21V19.6465C13.9043 19.32 14.75 18.2588 14.75 17C14.75 15.7412 13.9043 14.68 12.75 14.3535V3C12.75 2.58579 12.4142 2.25 12 2.25C11.5858 2.25 11.25 2.58579 11.25 3V14.3535C10.0957 14.68 9.25 15.7412 9.25 17C9.25 18.2588 10.0957 19.32 11.25 19.6465V21ZM12 15.75C12.6904 15.75 13.25 16.3096 13.25 17C13.25 17.6904 12.6904 18.25 12 18.25C11.3096 18.25 10.75 17.6904 10.75 17C10.75 16.3096 11.3096 15.75 12 15.75Z" fill="#2B2B2B"/>
</svg>
