<svg width="24" height="24" viewBox="0 0 24 24" fill="none" xmlns="http://www.w3.org/2000/svg">
<path fill-rule="evenodd" clip-rule="evenodd" d="M15 4.25C16.2588 4.25 17.32 5.09575 17.6465 6.25H21C21.4142 6.25 21.75 6.58579 21.75 7C21.75 7.41421 21.4142 7.75 21 7.75H17.6465C17.32 8.90425 16.2588 9.75 15 9.75C13.7131 9.75 12.6327 8.86611 12.3328 7.67232C12.2325 7.72204 12.1195 7.75 12 7.75H3C2.58579 7.75 2.25 7.41421 2.25 7C2.25 6.58579 2.58579 6.25 3 6.25H12C12.1195 6.25 12.2325 6.27796 12.3328 6.32768C12.6327 5.13389 13.7131 4.25 15 4.25ZM15 5.75C15.6904 5.75 16.25 6.30964 16.25 7C16.25 7.69036 15.6904 8.25 15 8.25C14.3096 8.25 13.75 7.69036 13.75 7C13.75 6.30964 14.3096 5.75 15 5.75Z" fill="#2B2B2B"/>
<path fill-rule="evenodd" clip-rule="evenodd" d="M10 14.25C11.2588 14.25 12.32 15.0957 12.6465 16.25H21C21.4142 16.25 21.75 16.5858 21.75 17C21.75 17.4142 21.4142 17.75 21 17.75H12.6465C12.32 18.9043 11.2588 19.75 10 19.75C8.74122 19.75 7.67998 18.9043 7.35352 17.75H3C2.58579 17.75 2.25 17.4142 2.25 17C2.25 16.5858 2.58579 16.25 3 16.25H7.35352C7.67998 15.0957 8.74122 14.25 10 14.25ZM8.75 17C8.75 16.3096 9.30964 15.75 10 15.75C10.6904 15.75 11.25 16.3096 11.25 17C11.25 17.6904 10.6904 18.25 10 18.25C9.30964 18.25 8.75 17.6904 8.75 17Z" fill="#2B2B2B"/>
</svg>
