<svg width="24" height="24" viewBox="0 0 24 24" fill="none" xmlns="http://www.w3.org/2000/svg">
<path fill-rule="evenodd" clip-rule="evenodd" d="M12 2.25C9.41414 2.25 6.93419 3.27723 5.10571 5.10571C3.27723 6.93419 2.25 9.41414 2.25 12V17C2.25 18.5188 3.48122 19.75 5 19.75C6.51878 19.75 7.75 18.5188 7.75 17V14C7.75 12.4812 6.51878 11.25 5 11.25C4.55493 11.25 4.13456 11.3557 3.76263 11.5434C3.8746 9.5218 4.72715 7.60559 6.16637 6.16637C7.71354 4.61919 9.81196 3.75 12 3.75C14.188 3.75 16.2865 4.61919 17.8336 6.16637C19.2728 7.60559 20.1254 9.5218 20.2374 11.5434C19.8654 11.3557 19.4451 11.25 19 11.25C17.4812 11.25 16.25 12.4812 16.25 14V17C16.25 18.0774 16.8695 19.01 17.7718 19.4612C17.5529 19.7466 17.2969 20.0322 16.9761 20.2937C16.3414 20.8111 15.425 21.25 14 21.25C13.5858 21.25 13.25 21.5858 13.25 22C13.25 22.4142 13.5858 22.75 14 22.75C15.775 22.75 17.0252 22.1889 17.9239 21.4563C18.6332 20.8781 19.106 20.2019 19.426 19.7172C20.7425 19.5124 21.75 18.3739 21.75 17V12C21.75 9.41414 20.7228 6.93419 18.8943 5.10571C17.0658 3.27723 14.5859 2.25 12 2.25ZM20.25 14C20.25 13.3096 19.6904 12.75 19 12.75C18.3096 12.75 17.75 13.3096 17.75 14V17C17.75 17.688 18.3059 18.2462 18.993 18.25L19.008 18.25C19.6947 18.2457 20.25 17.6877 20.25 17V14ZM3.75 14V17C3.75 17.6904 4.30964 18.25 5 18.25C5.69036 18.25 6.25 17.6904 6.25 17V14C6.25 13.3096 5.69036 12.75 5 12.75C4.30964 12.75 3.75 13.3096 3.75 14Z" fill="#2B2B2B"/>
</svg>
