<svg width="24" height="24" viewBox="0 0 24 24" fill="none" xmlns="http://www.w3.org/2000/svg">
<path fill-rule="evenodd" clip-rule="evenodd" d="M5 3.75C2.92893 3.75 1.25 5.42893 1.25 7.5V16.5C1.25 18.5711 2.92893 20.25 5 20.25H19C21.0711 20.25 22.75 18.5711 22.75 16.5V15.1449C22.75 14.6032 22.4799 14.0973 22.0299 13.7959C20.7515 12.9399 20.7515 11.0601 22.0299 10.2041C22.4799 9.9027 22.75 9.39675 22.75 8.85514V7.5C22.75 5.42893 21.0711 3.75 19 3.75H5ZM2.75 7.5C2.75 6.25736 3.75736 5.25 5 5.25H7.25V18.75H5C3.75736 18.75 2.75 17.7426 2.75 16.5V7.5ZM8.75 18.75H19C20.2426 18.75 21.25 17.7426 21.25 16.5V15.1449C21.25 15.1037 21.2295 15.0652 21.1952 15.0423C19.0297 13.5922 19.0297 10.4078 21.1952 8.9577C21.2295 8.93478 21.25 8.89632 21.25 8.85514V7.5C21.25 6.25736 20.2426 5.25 19 5.25H8.75V18.75Z" fill="#2B2B2B"/>
</svg>
