<svg width="24" height="24" viewBox="0 0 24 24" fill="none" xmlns="http://www.w3.org/2000/svg">
<path fill-rule="evenodd" clip-rule="evenodd" d="M10 2.75C9.30964 2.75 8.75 3.30964 8.75 4V5.25H15.25V4C15.25 3.30964 14.6904 2.75 14 2.75H10ZM16.75 5.25V4C16.75 2.48122 15.5188 1.25 14 1.25H10C8.48122 1.25 7.25 2.48122 7.25 4V5.25H3C2.58579 5.25 2.25 5.58579 2.25 6C2.25 6.41421 2.58579 6.75 3 6.75H3.25V18C3.25 20.6234 5.37665 22.75 8 22.75H16C18.6234 22.75 20.75 20.6234 20.75 18V6.75H21C21.4142 6.75 21.75 6.41421 21.75 6C21.75 5.58579 21.4142 5.25 21 5.25H16.75ZM19.25 6.75H4.75V18C4.75 19.7949 6.20507 21.25 8 21.25H16C17.7949 21.25 19.25 19.7949 19.25 18V6.75ZM10 10.25C10.4142 10.25 10.75 10.5858 10.75 11V17C10.75 17.4142 10.4142 17.75 10 17.75C9.58579 17.75 9.25 17.4142 9.25 17V11C9.25 10.5858 9.58579 10.25 10 10.25ZM14 10.25C14.4142 10.25 14.75 10.5858 14.75 11V17C14.75 17.4142 14.4142 17.75 14 17.75C13.5858 17.75 13.25 17.4142 13.25 17V11C13.25 10.5858 13.5858 10.25 14 10.25Z" fill="#2B2B2B"/>
</svg>
