<svg width="24" height="24" viewBox="0 0 24 24" fill="none" xmlns="http://www.w3.org/2000/svg">
<path d="M17.4847 10.337C17.8008 10.0693 17.84 9.59601 17.5723 9.27995C17.3045 8.96388 16.8313 8.9247 16.5152 9.19242L12.75 12.3818V2C12.75 1.58579 12.4142 1.25 12 1.25C11.5858 1.25 11.25 1.58579 11.25 2V12.3818L7.48474 9.19242C7.16868 8.9247 6.69542 8.96388 6.4277 9.27995C6.15998 9.59601 6.19916 10.0693 6.51523 10.337L11.5152 14.5723C11.795 14.8092 12.205 14.8092 12.4847 14.5723L17.4847 10.337Z" fill="#2B2B2B"/>
<path d="M3.75 15C3.75 14.5858 3.41421 14.25 3 14.25C2.58579 14.25 2.25 14.5858 2.25 15V18.6C2.25 20.2934 3.54829 21.75 5.25 21.75H18.75C20.4517 21.75 21.75 20.2934 21.75 18.6V15C21.75 14.5858 21.4142 14.25 21 14.25C20.5858 14.25 20.25 14.5858 20.25 15V18.6C20.25 19.5576 19.5336 20.25 18.75 20.25H5.25C4.46643 20.25 3.75 19.5576 3.75 18.6V15Z" fill="#2B2B2B"/>
</svg>
