<svg width="24" height="24" viewBox="0 0 24 24" fill="none" xmlns="http://www.w3.org/2000/svg">
<path d="M8 2.25C7.58579 2.25 7.25 2.58579 7.25 3C7.25 3.41421 7.58579 3.75 8 3.75H16C16.4142 3.75 16.75 3.41421 16.75 3C16.75 2.58579 16.4142 2.25 16 2.25H8Z" fill="#2B2B2B"/>
<path d="M9.25 9C9.25 8.58579 9.58579 8.25 10 8.25H14C14.4142 8.25 14.75 8.58579 14.75 9C14.75 9.41421 14.4142 9.75 14 9.75H10C9.58579 9.75 9.25 9.41421 9.25 9Z" fill="#2B2B2B"/>
<path fill-rule="evenodd" clip-rule="evenodd" d="M2.25 9C2.25 6.92893 3.92893 5.25 6 5.25H18C20.0711 5.25 21.75 6.92893 21.75 9V18C21.75 20.0711 20.0711 21.75 18 21.75H6C3.92893 21.75 2.25 20.0711 2.25 18V9ZM6 6.75C4.75736 6.75 3.75 7.75736 3.75 9V18C3.75 19.2426 4.75736 20.25 6 20.25H18C19.2426 20.25 20.25 19.2426 20.25 18V9C20.25 7.75736 19.2426 6.75 18 6.75H6Z" fill="#2B2B2B"/>
</svg>
