<svg width="24" height="24" viewBox="0 0 24 24" fill="none" xmlns="http://www.w3.org/2000/svg">
<path d="M4.38462 19.6154H5.07692V21H3V18.9231H4.38462V19.6154Z" fill="#2B2B2B"/>
<path d="M10.6154 21H7.84615V19.6154H10.6154V21Z" fill="#2B2B2B"/>
<path d="M16.1538 21H13.3846V19.6154H16.1538V21Z" fill="#2B2B2B"/>
<path d="M21 21H18.9231V19.6154H19.6154V18.9231H21V21Z" fill="#2B2B2B"/>
<path d="M4.38462 16.1538H3V13.3846H4.38462V16.1538Z" fill="#2B2B2B"/>
<path d="M21 16.1538H19.6154V13.3846H21V16.1538Z" fill="#2B2B2B"/>
<path d="M4.38462 10.6154H3V7.84615H4.38462V10.6154Z" fill="#2B2B2B"/>
<path d="M21 10.6154H19.6154V7.84615H21V10.6154Z" fill="#2B2B2B"/>
<path d="M5.07692 4.38462H4.38462V5.07692H3V3H5.07692V4.38462Z" fill="#2B2B2B"/>
<path d="M21 5.07692H19.6154V4.38462H18.9231V3H21V5.07692Z" fill="#2B2B2B"/>
<path d="M10.6154 4.38462H7.84615V3H10.6154V4.38462Z" fill="#2B2B2B"/>
<path d="M16.1538 4.38462H13.3846V3H16.1538V4.38462Z" fill="#2B2B2B"/>
</svg>
