<svg width="24" height="24" viewBox="0 0 24 24" fill="none" xmlns="http://www.w3.org/2000/svg">
<path fill-rule="evenodd" clip-rule="evenodd" d="M16.75 2C16.75 1.58579 16.4142 1.25 16 1.25C15.5858 1.25 15.25 1.58579 15.25 2V2.25H8.75V2C8.75 1.58579 8.41421 1.25 8 1.25C7.58579 1.25 7.25 1.58579 7.25 2V2.25H6C3.92893 2.25 2.25 3.92893 2.25 6V18C2.25 20.0711 3.92893 21.75 6 21.75H18C20.0711 21.75 21.75 20.0711 21.75 18V6C21.75 3.92893 20.0711 2.25 18 2.25H16.75V2ZM7.25 5V3.75H6C4.75736 3.75 3.75 4.75736 3.75 6V18C3.75 19.2426 4.75736 20.25 6 20.25H18C19.2426 20.25 20.25 19.2426 20.25 18V6C20.25 4.75736 19.2426 3.75 18 3.75H16.75V5C16.75 5.41421 16.4142 5.75 16 5.75C15.5858 5.75 15.25 5.41421 15.25 5V3.75H8.75V5C8.75 5.41421 8.41421 5.75 8 5.75C7.58579 5.75 7.25 5.41421 7.25 5Z" fill="#2B2B2B"/>
<path fill-rule="evenodd" clip-rule="evenodd" d="M13.1808 8.11248C12.7917 6.99302 11.2085 6.99303 10.8194 8.11248L10.2875 9.64278L8.66767 9.67579C7.48276 9.69994 6.99355 11.2056 7.93796 11.9216L9.22899 12.9004L8.75984 14.4511C8.41665 15.5855 9.69746 16.5161 10.6703 15.8391L12.0001 14.9137L13.3299 15.8391C14.3027 16.5161 15.5835 15.5855 15.2404 14.4511L14.7712 12.9004L16.0622 11.9216C17.0067 11.2056 16.5174 9.69994 15.3325 9.67579L13.7127 9.64278L13.1808 8.11248Z" fill="#2B2B2B"/>
</svg>
