<svg width="24" height="24" viewBox="0 0 24 24" fill="none" xmlns="http://www.w3.org/2000/svg">
<path d="M16.4697 2.46967C16.7626 2.17678 17.2374 2.17678 17.5303 2.46967L21.5303 6.46967C21.8232 6.76256 21.8232 7.23744 21.5303 7.53033L17.5303 11.5303C17.2374 11.8232 16.7626 11.8232 16.4697 11.5303C16.1768 11.2374 16.1768 10.7626 16.4697 10.4697L19.1893 7.75H6C5.58579 7.75 5.25 7.41421 5.25 7C5.25 6.58579 5.58579 6.25 6 6.25H19.1893L16.4697 3.53033C16.1768 3.23744 16.1768 2.76256 16.4697 2.46967Z" fill="#2B2B2B"/>
<path d="M4.81066 17.75L7.53033 20.4697C7.82322 20.7626 7.82322 21.2374 7.53033 21.5303C7.23744 21.8232 6.76256 21.8232 6.46967 21.5303L2.46967 17.5303C2.17678 17.2374 2.17678 16.7626 2.46967 16.4697L6.46967 12.4697C6.76256 12.1768 7.23744 12.1768 7.53033 12.4697C7.82322 12.7626 7.82322 13.2374 7.53033 13.5303L4.81066 16.25H18C18.4142 16.25 18.75 16.5858 18.75 17C18.75 17.4142 18.4142 17.75 18 17.75H4.81066Z" fill="#2B2B2B"/>
</svg>
