<svg width="24" height="24" viewBox="0 0 24 24" fill="none" xmlns="http://www.w3.org/2000/svg">
<path d="M9.47646 2.58223C7.40329 3.13773 5.57134 4.3618 4.26475 6.06458C3.13597 7.53563 2.45379 9.29295 2.28902 11.1279L1.57012 10.409C1.27722 10.1161 0.802349 10.1161 0.509456 10.409C0.216563 10.7019 0.216563 11.1768 0.509456 11.4696L2.63078 13.591C2.92367 13.8839 3.39854 13.8839 3.69144 13.591L5.81276 11.4696C6.10565 11.1768 6.10565 10.7019 5.81276 10.409C5.51986 10.1161 5.04499 10.1161 4.7521 10.409L3.77264 11.3884C3.89142 9.7902 4.47378 8.25619 5.45478 6.97772C6.56036 5.53691 8.11047 4.50116 9.86469 4.03112C11.6189 3.56107 13.4792 3.683 15.1571 4.378C16.835 5.07299 18.2366 6.30221 19.1447 7.875C19.3518 8.23372 19.8105 8.35663 20.1692 8.14952C20.5279 7.94242 20.6508 7.48372 20.4437 7.125C19.3705 5.26625 17.714 3.81354 15.7311 2.99218C13.7482 2.17082 11.5496 2.02672 9.47646 2.58223Z" fill="#2B2B2B"/>
<path d="M14.5235 21.4177C16.5967 20.8622 18.4287 19.6382 19.7352 17.9354C20.864 16.4644 21.5462 14.7071 21.711 12.8722L22.4298 13.591C22.7227 13.8839 23.1975 13.8839 23.4904 13.591C23.7833 13.2981 23.7833 12.8232 23.4904 12.5303L21.3691 10.409C21.0762 10.1161 20.6013 10.1161 20.3084 10.409L18.1871 12.5303C17.8942 12.8232 17.8942 13.2981 18.1871 13.591C18.48 13.8839 18.9549 13.8839 19.2478 13.591L20.2274 12.6114C20.1086 14.2097 19.5263 15.7437 18.5452 17.0222C17.4396 18.4631 15.8895 19.4988 14.1353 19.9689C12.3811 20.4389 10.5208 20.317 8.84291 19.622C7.16505 18.927 5.7634 17.6978 4.85534 16.125C4.64824 15.7662 4.18954 15.6433 3.83082 15.8504C3.4721 16.0576 3.3492 16.5162 3.55631 16.875C4.62946 18.7337 6.28596 20.1864 8.26889 21.0078C10.2518 21.8291 12.4504 21.9732 14.5235 21.4177Z" fill="#2B2B2B"/>
<path fill-rule="evenodd" clip-rule="evenodd" d="M9 7.24999C8.0335 7.24999 7.25 8.03349 7.25 8.99999V15C7.25 15.9665 8.0335 16.75 9 16.75H15C15.9665 16.75 16.75 15.9665 16.75 15V8.99999C16.75 8.03349 15.9665 7.24999 15 7.24999H9ZM8.75 8.99999C8.75 8.86191 8.86193 8.74999 9 8.74999H11.25V11C11.25 11.4142 11.5858 11.75 12 11.75C12.4142 11.75 12.75 11.4142 12.75 11V8.74999H15C15.1381 8.74999 15.25 8.86191 15.25 8.99999V15C15.25 15.1381 15.1381 15.25 15 15.25H9C8.86193 15.25 8.75 15.1381 8.75 15V8.99999Z" fill="#2B2B2B"/>
</svg>
