<svg width="24" height="24" viewBox="0 0 24 24" fill="none" xmlns="http://www.w3.org/2000/svg">
<path d="M7 2.25C4.37665 2.25 2.25 4.37665 2.25 7V17C2.25 19.6234 4.37665 21.75 7 21.75H17C19.6234 21.75 21.75 19.6234 21.75 17V13.125C21.75 12.7108 21.4142 12.375 21 12.375C20.5858 12.375 20.25 12.7108 20.25 13.125V17C20.25 18.7949 18.7949 20.25 17 20.25H7C5.20507 20.25 3.75 18.7949 3.75 17V7C3.75 5.20507 5.20507 3.75 7 3.75H10.875C11.2892 3.75 11.625 3.41421 11.625 3C11.625 2.58579 11.2892 2.25 10.875 2.25H7Z" fill="#2B2B2B"/>
<path d="M15.25 4C15.25 4.41421 15.5858 4.75 16 4.75H18.1893L12.4697 10.4697C12.1768 10.7626 12.1768 11.2374 12.4697 11.5303C12.7626 11.8232 13.2374 11.8232 13.5303 11.5303L19.25 5.81066V8C19.25 8.41421 19.5858 8.75 20 8.75C20.4142 8.75 20.75 8.41421 20.75 8V4C20.75 3.58579 20.4142 3.25 20 3.25H16C15.5858 3.25 15.25 3.58579 15.25 4Z" fill="#2B2B2B"/>
</svg>
