<svg width="24" height="24" viewBox="0 0 24 24" fill="none" xmlns="http://www.w3.org/2000/svg">
<path fill-rule="evenodd" clip-rule="evenodd" d="M12 7.25C9.37779 7.25 7.25 9.37779 7.25 12C7.25 14.6222 9.37779 16.75 12 16.75C14.6222 16.75 16.75 14.6222 16.75 12C16.75 9.37779 14.6222 7.25 12 7.25ZM8.75 12C8.75 10.2062 10.2062 8.75 12 8.75C13.7938 8.75 15.25 10.2062 15.25 12C15.25 13.7938 13.7938 15.25 12 15.25C10.2062 15.25 8.75 13.7938 8.75 12Z" fill="#2B2B2B"/>
<path fill-rule="evenodd" clip-rule="evenodd" d="M12 3.25C7.45345 3.25 3.4953 5.81584 1.29233 9.61997C0.440805 11.0904 0.440806 12.9096 1.29233 14.38C3.4953 18.1842 7.45345 20.75 12 20.75C16.5465 20.75 20.5047 18.1842 22.7077 14.38C23.5592 12.9096 23.5592 11.0904 22.7077 9.61997C20.5047 5.81584 16.5465 3.25 12 3.25ZM2.59038 10.3717C4.55363 6.9815 8.04316 4.75 12 4.75C15.9568 4.75 19.4464 6.9815 21.4096 10.3717C21.9919 11.3771 21.9919 12.6229 21.4096 13.6283C19.4464 17.0185 15.9568 19.25 12 19.25C8.04316 19.25 4.55363 17.0185 2.59038 13.6283C2.00812 12.6229 2.00812 11.3771 2.59038 10.3717Z" fill="#2B2B2B"/>
</svg>
