<svg width="24" height="24" viewBox="0 0 24 24" fill="none" xmlns="http://www.w3.org/2000/svg">
<path d="M12 8.75C10.2062 8.75 8.75 10.2062 8.75 12C8.75 13.7938 10.2062 15.25 12 15.25C13.7938 15.25 15.25 13.7938 15.25 12C15.25 10.2062 13.7938 8.75 12 8.75Z" fill="#2B2B2B"/>
<path fill-rule="evenodd" clip-rule="evenodd" d="M12.0001 3C7.2519 3 3.10717 5.82801 0.868404 10.0354C0.215578 11.2623 0.215578 12.7377 0.868403 13.9646C3.10717 18.172 7.2519 21 12.0001 21C16.7483 21 20.893 18.172 23.1318 13.9646C23.7846 12.7377 23.7846 11.2623 23.1318 10.0354C20.893 5.82801 16.7483 3 12.0001 3ZM7.25 12C7.25 9.37779 9.37779 7.25 12 7.25C14.6222 7.25 16.75 9.37779 16.75 12C16.75 14.6222 14.6222 16.75 12 16.75C9.37779 16.75 7.25 14.6222 7.25 12Z" fill="#2B2B2B"/>
</svg>
