<svg width="24" height="24" viewBox="0 0 24 24" fill="none" xmlns="http://www.w3.org/2000/svg">
<path d="M21.5303 3.53031C21.8232 3.23742 21.8232 2.76255 21.5303 2.46965C21.2374 2.17676 20.7626 2.17676 20.4697 2.46965L2.08489 20.8544C1.792 21.1473 1.792 21.6222 2.08489 21.9151C2.37779 22.208 2.85266 22.208 3.14555 21.9151L21.5303 3.53031Z" fill="#2B2B2B"/>
<path d="M12 3.24999C7.4535 3.24999 3.49535 5.81584 1.29238 9.61996C0.440874 11.0904 0.440745 12.9093 1.29226 14.3798C1.87203 15.381 2.57257 16.2957 3.37313 17.1004C3.66527 17.394 4.14014 17.3953 4.43379 17.1031C4.72743 16.811 4.72866 16.3361 4.43652 16.0425C3.7281 15.3304 3.10613 14.5189 2.59032 13.6281C2.00809 12.6227 2.00815 11.3772 2.59043 10.3717C4.55368 6.9815 8.04321 4.74999 12 4.74999C13.0691 4.74999 14.1015 4.91243 15.0779 5.21527C15.4735 5.33798 15.8937 5.11674 16.0164 4.72112C16.1391 4.3255 15.9178 3.90531 15.5222 3.7826C14.4042 3.43583 13.2221 3.24999 12 3.24999Z" fill="#2B2B2B"/>
<path d="M20.627 6.8996C20.3348 6.60596 19.8599 6.60473 19.5663 6.89687C19.2726 7.18901 19.2714 7.66388 19.5636 7.95753C20.272 8.6696 20.8939 9.48111 21.4098 10.3719C21.992 11.3773 21.9919 12.6228 21.4096 13.6283C19.4464 17.0185 15.9569 19.25 12 19.25C10.931 19.25 9.89858 19.0876 8.92223 18.7847C8.52661 18.662 8.10642 18.8832 7.98371 19.2789C7.861 19.6745 8.08223 20.0947 8.47785 20.2174C9.59584 20.5642 10.778 20.75 12 20.75C16.5466 20.75 20.5047 18.1841 22.7077 14.38C23.5592 12.9096 23.5593 11.0906 22.7078 9.62017C22.1281 8.61898 21.4275 7.7043 20.627 6.8996Z" fill="#2B2B2B"/>
<path d="M13.2294 7.41185C12.424 7.19604 11.576 7.19604 10.7706 7.41185C9.96522 7.62765 9.23083 8.05165 8.64124 8.64124C8.05166 9.23082 7.62766 9.96522 7.41185 10.7706C7.19605 11.576 7.19605 12.424 7.41185 13.2294C7.51906 13.6295 7.93031 13.8669 8.33041 13.7597C8.73051 13.6525 8.96795 13.2413 8.86074 12.8412C8.71309 12.2901 8.71309 11.7099 8.86074 11.1588C9.0084 10.6078 9.2985 10.1053 9.7019 9.7019C10.1053 9.2985 10.6078 9.00839 11.1588 8.86073C11.7099 8.71308 12.2901 8.71308 12.8412 8.86073C13.2413 8.96794 13.6525 8.7305 13.7597 8.3304C13.8669 7.9303 13.6295 7.51905 13.2294 7.41185Z" fill="#2B2B2B"/>
<path d="M15.6695 10.2402C16.0696 10.133 16.4809 10.3704 16.5881 10.7705C16.8039 11.5759 16.8039 12.4239 16.5881 13.2293C16.3723 14.0347 15.9483 14.7691 15.3587 15.3587C14.7691 15.9483 14.0347 16.3723 13.2293 16.5881C12.4239 16.8039 11.5759 16.8039 10.7705 16.5881C10.3705 16.4809 10.133 16.0696 10.2402 15.6695C10.3474 15.2694 10.7587 15.032 11.1588 15.1392C11.7098 15.2868 12.29 15.2868 12.8411 15.1392C13.3922 14.9915 13.8946 14.7014 14.298 14.298C14.7014 13.8946 14.9915 13.3921 15.1392 12.8411C15.2869 12.29 15.2869 11.7098 15.1392 11.1588C15.032 10.7587 15.2694 10.3474 15.6695 10.2402Z" fill="#2B2B2B"/>
</svg>
