<svg width="24" height="24" viewBox="0 0 24 24" fill="none" xmlns="http://www.w3.org/2000/svg">
<path d="M8.75 3C8.75 2.58579 8.41421 2.25 8 2.25H6C3.92893 2.25 2.25 3.92893 2.25 6V8C2.25 8.41421 2.58579 8.75 3 8.75C3.41421 8.75 3.75 8.41421 3.75 8V6C3.75 4.75736 4.75736 3.75 6 3.75H8C8.41421 3.75 8.75 3.41421 8.75 3Z" fill="#2B2B2B"/>
<path d="M16 2.25C15.5858 2.25 15.25 2.58579 15.25 3C15.25 3.41421 15.5858 3.75 16 3.75H18C19.2426 3.75 20.25 4.75736 20.25 6V8C20.25 8.41421 20.5858 8.75 21 8.75C21.4142 8.75 21.75 8.41421 21.75 8V6C21.75 3.92893 20.0711 2.25 18 2.25H16Z" fill="#2B2B2B"/>
<path d="M16 21.75C15.5858 21.75 15.25 21.4142 15.25 21C15.25 20.5858 15.5858 20.25 16 20.25H18C19.2426 20.25 20.25 19.2426 20.25 18V16C20.25 15.5858 20.5858 15.25 21 15.25C21.4142 15.25 21.75 15.5858 21.75 16V18C21.75 20.0711 20.0711 21.75 18 21.75H16Z" fill="#2B2B2B"/>
<path d="M8 21.75C8.41421 21.75 8.75 21.4142 8.75 21C8.75 20.5858 8.41421 20.25 8 20.25H6C4.75736 20.25 3.75 19.2426 3.75 18V16C3.75 15.5858 3.41421 15.25 3 15.25C2.58579 15.25 2.25 15.5858 2.25 16V18C2.25 20.0711 3.92893 21.75 6 21.75H8Z" fill="#2B2B2B"/>
<path d="M9 6.25C9.41421 6.25 9.75 6.58579 9.75 7V9C9.75 9.41421 9.41421 9.75 9 9.75C8.58579 9.75 8.25 9.41421 8.25 9V7C8.25 6.58579 8.58579 6.25 9 6.25Z" fill="#2B2B2B"/>
<path d="M15.75 7C15.75 6.58579 15.4142 6.25 15 6.25C14.5858 6.25 14.25 6.58579 14.25 7V9C14.25 9.41421 14.5858 9.75 15 9.75C15.4142 9.75 15.75 9.41421 15.75 9V7Z" fill="#2B2B2B"/>
<path d="M8.6413 16.298C8.93419 16.0051 9.40907 16.0051 9.70196 16.298C10.0038 16.5998 10.362 16.8392 10.7563 17.0026C11.1506 17.1659 11.5733 17.2499 12.0001 17.2499C12.4269 17.2499 12.8495 17.1659 13.2438 17.0026C13.6381 16.8392 13.9964 16.5998 14.2982 16.298C14.591 16.0051 15.0659 16.0051 15.3588 16.298C15.6517 16.5909 15.6517 17.0658 15.3588 17.3587C14.9177 17.7998 14.3941 18.1497 13.8178 18.3884C13.2415 18.6271 12.6238 18.7499 12.0001 18.7499C11.3763 18.7499 10.7586 18.6271 10.1823 18.3884C9.60602 18.1497 9.08238 17.7998 8.6413 17.3587C8.34841 17.0658 8.34841 16.5909 8.6413 16.298Z" fill="#2B2B2B"/>
<path d="M12 14.75C12.4142 14.75 12.75 14.4142 12.75 14V10C12.75 9.58579 12.4142 9.25 12 9.25C11.5858 9.25 11.25 9.58579 11.25 10V13.25H11C10.5858 13.25 10.25 13.5858 10.25 14C10.25 14.4142 10.5858 14.75 11 14.75H12Z" fill="#2B2B2B"/>
</svg>
