<svg width="24" height="24" viewBox="0 0 24 24" fill="none" xmlns="http://www.w3.org/2000/svg">
<path fill-rule="evenodd" clip-rule="evenodd" d="M12 2.75C6.89137 2.75 2.75 6.89137 2.75 12C2.75 17.1086 6.89137 21.25 12 21.25C17.1086 21.25 21.25 17.1086 21.25 12C21.25 6.89137 17.1086 2.75 12 2.75ZM1.25 12C1.25 6.06294 6.06294 1.25 12 1.25C17.9371 1.25 22.75 6.06294 22.75 12C22.75 17.9371 17.9371 22.75 12 22.75C6.06294 22.75 1.25 17.9371 1.25 12ZM8.66667 7.91667C9.08088 7.91667 9.41667 8.25245 9.41667 8.66667V10.8889C9.41667 11.3031 9.08088 11.6389 8.66667 11.6389C8.25245 11.6389 7.91667 11.3031 7.91667 10.8889V8.66667C7.91667 8.25245 8.25245 7.91667 8.66667 7.91667ZM15.3333 7.91667C15.7475 7.91667 16.0833 8.25245 16.0833 8.66667V10.8889C16.0833 11.3031 15.7475 11.6389 15.3333 11.6389C14.9191 11.6389 14.5833 11.3031 14.5833 10.8889V8.66667C14.5833 8.25245 14.9191 7.91667 15.3333 7.91667ZM9.02778 16.4444C9.02778 16.0302 9.36357 15.6944 9.77778 15.6944H14.2222C14.6364 15.6944 14.9722 16.0302 14.9722 16.4444C14.9722 16.8587 14.6364 17.1944 14.2222 17.1944H9.77778C9.36357 17.1944 9.02778 16.8587 9.02778 16.4444Z" fill="#2B2B2B"/>
</svg>
