<svg width="24" height="24" viewBox="0 0 24 24" fill="none" xmlns="http://www.w3.org/2000/svg">
<path d="M13.4031 1.34197C12.0035 1.1577 10.5813 1.25092 9.21767 1.6163C7.85407 1.98168 6.57578 2.61206 5.45579 3.47145C4.33581 4.33085 3.39606 5.40243 2.69021 6.625C2.4831 6.98372 2.60601 7.44242 2.96473 7.64952C3.32344 7.85663 3.78214 7.73372 3.98924 7.375C4.59661 6.32302 5.40523 5.40096 6.36894 4.66148C7.33264 3.922 8.43257 3.37958 9.6059 3.06519C10.7792 2.75079 12.003 2.67058 13.2073 2.82914C14.4117 2.98769 15.573 3.3819 16.625 3.98926C16.9837 4.19637 17.4424 4.07347 17.6495 3.71475C17.8566 3.35603 17.7337 2.89733 17.375 2.69023C16.1524 1.98437 14.8028 1.52623 13.4031 1.34197Z" fill="#2B2B2B"/>
<path d="M8.875 6.58739C9.23372 6.38028 9.35663 5.92159 9.14952 5.56287C8.94241 5.20415 8.48372 5.08124 8.125 5.28835C6.94685 5.96855 5.96851 6.9469 5.2883 8.12505C4.6081 9.3032 4.25 10.6396 4.25 12C4.25 12.4143 4.58579 12.75 5 12.75C5.41421 12.75 5.75 12.4143 5.75 12C5.75 10.9029 6.03879 9.82517 6.58734 8.87505C7.13589 7.92493 7.92488 7.13594 8.875 6.58739Z" fill="#2B2B2B"/>
<path d="M2.53486 8.68736C2.93496 8.79457 3.17239 9.20582 3.06519 9.60592C2.64494 11.1743 2.64494 12.8257 3.06519 14.3941C3.17239 14.7942 2.93496 15.2054 2.53486 15.3126C2.13476 15.4198 1.7235 15.1824 1.6163 14.7823C1.1279 12.9596 1.1279 11.0404 1.6163 9.21769C1.7235 8.81759 2.13476 8.58016 2.53486 8.68736Z" fill="#2B2B2B"/>
<path d="M20.1117 4.94572C19.8399 4.63316 19.3662 4.60013 19.0536 4.87194C18.7411 5.14376 18.708 5.61748 18.9799 5.93004C19.9738 7.07296 20.6719 8.44248 21.0127 9.91829C21.3536 11.3941 21.3269 12.931 20.9348 14.3941C20.8276 14.7942 21.0651 15.2054 21.4652 15.3126C21.8653 15.4198 22.2765 15.1824 22.3837 14.7823C22.8393 13.082 22.8704 11.2958 22.4743 9.58071C22.0781 7.86559 21.2668 6.27398 20.1117 4.94572Z" fill="#2B2B2B"/>
<path d="M5 14.25C5.41421 14.25 5.75 14.5858 5.75 15V19.5C5.75 19.9142 5.41421 20.25 5 20.25C4.58579 20.25 4.25 19.9142 4.25 19.5V15C4.25 14.5858 4.58579 14.25 5 14.25Z" fill="#2B2B2B"/>
<path d="M11.38 7.29065C12.5225 7.14023 13.6808 7.4103 14.639 8.05053C15.5971 8.69076 16.2899 9.6575 16.5881 10.7706C16.6954 11.1707 16.4579 11.582 16.0578 11.6892C15.6577 11.7964 15.2465 11.559 15.1393 11.1588C14.9352 10.3972 14.4612 9.73579 13.8056 9.29774C13.15 8.85968 12.3575 8.6749 11.5758 8.77782C10.7941 8.88073 10.0764 9.26433 9.55652 9.85714C9.03664 10.4499 8.75 11.2115 8.75 12V21C8.75 21.4142 8.41421 21.75 8 21.75C7.58579 21.75 7.25 21.4142 7.25 21V12C7.25 10.8476 7.66894 9.73453 8.42876 8.86812C9.18859 8.00171 10.2375 7.44106 11.38 7.29065Z" fill="#2B2B2B"/>
<path d="M16 13.25C16.4142 13.25 16.75 13.5858 16.75 14V21C16.75 21.4142 16.4142 21.75 16 21.75C15.5858 21.75 15.25 21.4142 15.25 21V14C15.25 13.5858 15.5858 13.25 16 13.25Z" fill="#2B2B2B"/>
<path d="M12.75 12C12.75 11.5858 12.4142 11.25 12 11.25C11.5858 11.25 11.25 11.5858 11.25 12V14C11.25 14.4142 11.5858 14.75 12 14.75C12.4142 14.75 12.75 14.4142 12.75 14V12Z" fill="#2B2B2B"/>
<path d="M12 16.25C12.4142 16.25 12.75 16.5858 12.75 17V22C12.75 22.4142 12.4142 22.75 12 22.75C11.5858 22.75 11.25 22.4142 11.25 22V17C11.25 16.5858 11.5858 16.25 12 16.25Z" fill="#2B2B2B"/>
<path d="M11.25 5C11.25 4.58579 11.5858 4.25 12 4.25C13.0177 4.25 14.0255 4.45046 14.9658 4.83993C15.9061 5.22941 16.7604 5.80027 17.4801 6.51992C18.1997 7.23958 18.7706 8.09393 19.1601 9.0342C19.5495 9.97448 19.75 10.9823 19.75 12V19.5C19.75 19.9142 19.4142 20.25 19 20.25C18.5858 20.25 18.25 19.9142 18.25 19.5V12C18.2499 11.1795 18.0882 10.3663 17.7742 9.60823C17.4602 8.84994 16.9998 8.16095 16.4194 7.58058C15.8391 7.00022 15.1501 6.53984 14.3918 6.22575C13.6335 5.91166 12.8208 5.75 12 5.75C11.5858 5.75 11.25 5.41421 11.25 5Z" fill="#2B2B2B"/>
</svg>
