<svg width="24" height="24" viewBox="0 0 24 24" fill="none" xmlns="http://www.w3.org/2000/svg">
<path d="M15.5303 12.5303C15.8232 12.2374 15.8232 11.7626 15.5303 11.4697C15.2374 11.1768 14.7626 11.1768 14.4697 11.4697L11 14.9393L9.53033 13.4697C9.23744 13.1768 8.76256 13.1768 8.46967 13.4697C8.17678 13.7626 8.17678 14.2374 8.46967 14.5303L10.4697 16.5303C10.7626 16.8232 11.2374 16.8232 11.5303 16.5303L15.5303 12.5303Z" fill="#2B2B2B"/>
<path fill-rule="evenodd" clip-rule="evenodd" d="M6 2.25C3.37665 2.25 1.25 4.37665 1.25 7V17C1.25 19.6234 3.37665 21.75 6 21.75H18C20.6234 21.75 22.75 19.6234 22.75 17V10.375C22.75 7.75165 20.6234 5.625 18 5.625H12.682C12.3293 3.70491 10.6471 2.25 8.625 2.25H6ZM8.625 3.75C10.0747 3.75 11.25 4.92525 11.25 6.375C11.25 6.78921 11.5858 7.125 12 7.125H18C19.7949 7.125 21.25 8.58007 21.25 10.375V17C21.25 18.7949 19.7949 20.25 18 20.25H6C4.20507 20.25 2.75 18.7949 2.75 17V7C2.75 5.20507 4.20507 3.75 6 3.75H8.625Z" fill="#2B2B2B"/>
</svg>
