<svg width="24" height="24" viewBox="0 0 24 24" fill="none" xmlns="http://www.w3.org/2000/svg">
<path fill-rule="evenodd" clip-rule="evenodd" d="M1.25 7C1.25 4.37665 3.37665 2.25 6 2.25H8.625C10.6471 2.25 12.3293 3.70491 12.682 5.625H18C20.6234 5.625 22.75 7.75165 22.75 10.375V17C22.75 19.6234 20.6234 21.75 18 21.75H6C3.37665 21.75 1.25 19.6234 1.25 17V7ZM11.25 6.375C11.25 4.92525 10.0747 3.75 8.625 3.75H6C4.20507 3.75 2.75 5.20507 2.75 7V11.25H21.25V10.375C21.25 8.58007 19.7949 7.125 18 7.125H12C11.5858 7.125 11.25 6.78921 11.25 6.375ZM21.25 12.75H2.75V17C2.75 18.7949 4.20507 20.25 6 20.25H18C19.7949 20.25 21.25 18.7949 21.25 17V12.75Z" fill="#2B2B2B"/>
</svg>
