<svg width="24" height="24" viewBox="0 0 24 24" fill="none" xmlns="http://www.w3.org/2000/svg">
<path fill-rule="evenodd" clip-rule="evenodd" d="M5 3.75C2.92893 3.75 1.25 5.42893 1.25 7.5V16.5C1.25 18.5711 2.92893 20.25 5 20.25H19C21.0711 20.25 22.75 18.5711 22.75 16.5V15.1449C22.75 14.6032 22.4799 14.0973 22.0299 13.7959C20.7515 12.9399 20.7515 11.0601 22.0299 10.2041C22.4799 9.9027 22.75 9.39675 22.75 8.85514V7.5C22.75 5.42893 21.0711 3.75 19 3.75H5ZM2.75 7.5C2.75 6.25736 3.75736 5.25 5 5.25H7.25V9.49223L5.97998 8.98422C4.67238 8.46118 3.24999 9.42418 3.24999 10.8325C3.24999 12.166 4.53544 13.1224 5.81268 12.7392L6.36633 12.5731L4.46978 14.4697C4.17689 14.7626 4.17689 15.2374 4.46978 15.5303C4.76268 15.8232 5.23755 15.8232 5.53044 15.5303L7.25 13.8108V18.75H5C3.75736 18.75 2.75 17.7426 2.75 16.5V7.5ZM8.75 18.75H19C20.2426 18.75 21.25 17.7426 21.25 16.5V15.1449C21.25 15.1037 21.2295 15.0652 21.1952 15.0423C19.0297 13.5922 19.0297 10.4078 21.1952 8.9577C21.2295 8.93478 21.25 8.89632 21.25 8.85514V7.5C21.25 6.25736 20.2426 5.25 19 5.25H8.75V9.49223L10.02 8.98422C11.3276 8.46118 12.75 9.42418 12.75 10.8325C12.75 12.166 11.4646 13.1224 10.1873 12.7392L9.63367 12.5731L11.5302 14.4697C11.8231 14.7626 11.8231 15.2374 11.5302 15.5303C11.2373 15.8232 10.7625 15.8232 10.4696 15.5303L8.75 13.8108V18.75ZM10.5771 10.3769C10.8994 10.248 11.25 10.4854 11.25 10.8325C11.25 11.1612 10.9332 11.3969 10.6183 11.3025L9.74884 11.0416L9.74925 11.0334C9.75399 10.9269 9.73606 10.8233 9.69903 10.7282L10.5771 10.3769ZM6.25075 11.0334C6.246 10.9269 6.26394 10.8233 6.30097 10.7282L5.42289 10.3769C5.10059 10.248 4.74999 10.4854 4.74999 10.8325C4.74999 11.1612 5.06684 11.3969 5.38165 11.3025L6.25116 11.0416L6.25075 11.0334Z" fill="#2B2B2B"/>
</svg>
