<svg width="24" height="24" viewBox="0 0 24 24" fill="none" xmlns="http://www.w3.org/2000/svg">
<path fill-rule="evenodd" clip-rule="evenodd" d="M9.09608 2.3464C7.71806 1.09366 5.50462 1.70806 4.96948 3.49186C4.77328 4.14586 4.85334 4.80156 5.12971 5.35151C3.47832 5.74396 2.25 7.22853 2.25 9V18C2.25 20.0711 3.92893 21.75 6 21.75H18C20.0711 21.75 21.75 20.0711 21.75 18V9C21.75 7.22853 20.5217 5.74396 18.8703 5.35151C19.1467 4.80156 19.2267 4.14586 19.0305 3.49186C18.4954 1.70806 16.2819 1.09366 14.9039 2.3464L12 4.98633L9.09608 2.3464ZM6.40622 3.92288C6.62419 3.1963 7.52578 2.94604 8.08707 3.45631L10.0601 5.24998H7.39362C6.70308 5.24998 6.20779 4.5843 6.40622 3.92288ZM17.5938 3.92288C17.3758 3.1963 16.4742 2.94604 15.9129 3.45631L13.9399 5.24998H16.6064C17.2969 5.24998 17.7922 4.5843 17.5938 3.92288ZM6 6.75C4.75736 6.75 3.75 7.75736 3.75 9V18C3.75 19.2426 4.75736 20.25 6 20.25H11.2927C11.265 20.1718 11.25 20.0877 11.25 20V6.75H6ZM12.75 6.75V20C12.75 20.0877 12.735 20.1718 12.7073 20.25H18C19.2426 20.25 20.25 19.2426 20.25 18V9C20.25 7.75736 19.2426 6.75 18 6.75H12.75Z" fill="#2B2B2B"/>
</svg>
