<svg width="24" height="24" viewBox="0 0 24 24" fill="none" xmlns="http://www.w3.org/2000/svg">
<path fill-rule="evenodd" clip-rule="evenodd" d="M12 22.75C17.9371 22.75 22.75 17.9371 22.75 12C22.75 6.06294 17.9371 1.25 12 1.25C6.06294 1.25 1.25 6.06294 1.25 12C1.25 17.9371 6.06294 22.75 12 22.75ZM12 2.75C11.7204 2.75 11.3781 2.88858 10.9879 3.30118C10.5962 3.71536 10.2089 4.35495 9.86793 5.20748C9.53766 6.03315 9.2646 7.02386 9.07104 8.13256C11.0211 8.27313 12.9789 8.27313 14.929 8.13256C14.7354 7.02385 14.4623 6.03315 14.1321 5.20748C13.7911 4.35495 13.4038 3.71536 13.0121 3.30118C12.6219 2.88858 12.2796 2.75 12 2.75ZM15.1325 9.62167C13.0471 9.77676 10.9529 9.77676 8.86749 9.62167C8.79103 10.3795 8.75 11.1762 8.75 12C8.75 12.8239 8.79103 13.6206 8.8675 14.3784C10.9529 14.2233 13.0471 14.2233 15.1325 14.3784C15.209 13.6206 15.25 12.8239 15.25 12C15.25 11.1762 15.209 10.3795 15.1325 9.62167ZM7.57244 7.99668C7.7829 6.74751 8.09007 5.61325 8.47522 4.65039C8.69034 4.11258 8.93444 3.61652 9.20735 3.17903C6.96644 3.88783 5.09459 5.42695 3.9529 7.4353C5.15247 7.67702 6.36022 7.86415 7.57244 7.99668ZM3.30616 8.83359C4.65327 9.11693 6.01078 9.3337 7.3738 9.48388C7.29267 10.2923 7.25 11.1353 7.25 12C7.25 12.8647 7.29268 13.7077 7.37381 14.5162C6.01079 14.6664 4.65329 14.8831 3.30618 15.1665C2.94631 14.1787 2.75 13.1123 2.75 12C2.75 10.8878 2.9463 9.82137 3.30616 8.83359ZM16.6262 9.48388C17.9892 9.33368 19.3467 9.11692 20.6938 8.83357C21.0537 9.82136 21.25 10.8878 21.25 12C21.25 13.1123 21.0537 14.1787 20.6938 15.1665C19.3467 14.8832 17.9892 14.6664 16.6262 14.5162C16.7073 13.7077 16.75 12.8647 16.75 12C16.75 11.1353 16.7073 10.2923 16.6262 9.48388ZM20.0471 7.43529C18.8475 7.67701 17.6398 7.86414 16.4276 7.99667C16.2171 6.7475 15.9099 5.61324 15.5248 4.65039C15.3097 4.11258 15.0656 3.61652 14.7927 3.17903C17.0336 3.88783 18.9054 5.42694 20.0471 7.43529ZM7.57246 16.0034C6.36024 16.1359 5.1525 16.323 3.95294 16.5648C5.09463 18.5731 6.96646 20.1122 9.20735 20.821C8.93444 20.3835 8.69034 19.8874 8.47522 19.3496C8.09008 18.3868 7.78291 17.2525 7.57246 16.0034ZM14.1321 18.7925C14.4623 17.9669 14.7354 16.9762 14.929 15.8675C12.9789 15.7269 11.0211 15.7269 9.07105 15.8675C9.26461 16.9762 9.53767 17.9669 9.86793 18.7925C10.2089 19.6451 10.5962 20.2846 10.9879 20.6988C11.3781 21.1114 11.7204 21.25 12 21.25C12.2796 21.25 12.6219 21.1114 13.0121 20.6988C13.4038 20.2846 13.7911 19.6451 14.1321 18.7925ZM15.5248 19.3496C15.9099 18.3868 16.2171 17.2525 16.4275 16.0034C17.6398 16.1359 18.8475 16.3231 20.0471 16.5648C18.9054 18.5731 17.0335 20.1122 14.7927 20.821C15.0656 20.3835 15.3097 19.8874 15.5248 19.3496Z" fill="#2B2B2B"/>
</svg>
