<svg width="24" height="24" viewBox="0 0 24 24" fill="none" xmlns="http://www.w3.org/2000/svg">
<path fill-rule="evenodd" clip-rule="evenodd" d="M12 2.25C9.41414 2.25 6.93419 3.27723 5.10571 5.10571C3.27723 6.93419 2.25 9.41414 2.25 12V19C2.25 20.5188 3.48122 21.75 5 21.75C6.51878 21.75 7.75 20.5188 7.75 19V15C7.75 13.4812 6.51878 12.25 5 12.25C4.54989 12.25 4.12503 12.3581 3.75 12.5499V12C3.75 9.81196 4.61919 7.71354 6.16637 6.16637C7.71354 4.61919 9.81196 3.75 12 3.75C14.188 3.75 16.2865 4.61919 17.8336 6.16637C19.3808 7.71354 20.25 9.81196 20.25 12V12.5499C19.875 12.3581 19.4501 12.25 19 12.25C17.4812 12.25 16.25 13.4812 16.25 15V19C16.25 20.5188 17.4812 21.75 19 21.75C20.5188 21.75 21.75 20.5188 21.75 19V12C21.75 9.41414 20.7228 6.93419 18.8943 5.10571C17.0658 3.27723 14.5859 2.25 12 2.25ZM20.25 15C20.25 14.3096 19.6904 13.75 19 13.75C18.3096 13.75 17.75 14.3096 17.75 15V19C17.75 19.6904 18.3096 20.25 19 20.25C19.6904 20.25 20.25 19.6904 20.25 19V15ZM3.75 15V19C3.75 19.6904 4.30964 20.25 5 20.25C5.69036 20.25 6.25 19.6904 6.25 19V15C6.25 14.3096 5.69036 13.75 5 13.75C4.30964 13.75 3.75 14.3096 3.75 15Z" fill="#2B2B2B"/>
</svg>
