<svg width="24" height="24" viewBox="0 0 24 24" fill="none" xmlns="http://www.w3.org/2000/svg">
<path fill-rule="evenodd" clip-rule="evenodd" d="M6.78233 3.85866C5.43364 4.14628 4.36888 4.95245 3.81968 5.59839C3.80892 5.61104 3.79775 5.62333 3.78618 5.63523C3.03032 6.41311 2.31836 8.09866 3.06789 10.6144C3.82246 13.1471 6.07089 16.5336 11.2927 20.538C11.7092 20.8574 12.2908 20.8574 12.7073 20.538C17.9291 16.5336 20.1775 13.1471 20.9321 10.6144C21.6816 8.09866 20.9697 6.41311 20.2138 5.63523C20.2023 5.62333 20.1911 5.61104 20.1803 5.59839C19.6311 4.95245 18.5664 4.14628 17.2177 3.85866C15.9075 3.57925 14.267 3.77393 12.4687 5.21334C12.1947 5.43263 11.8053 5.43263 11.5313 5.21334C9.73304 3.77393 8.0925 3.57925 6.78233 3.85866ZM12 3.68867C10.0238 2.2872 8.10267 2.04335 6.46948 2.39165C4.75854 2.75653 3.42361 3.75684 2.69293 4.608C1.52133 5.82812 0.750393 8.08921 1.63033 11.0427C2.50959 13.9939 5.02378 17.6209 10.3799 21.7283C11.3349 22.4606 12.6651 22.4606 13.6201 21.7283C18.9762 17.6209 21.4904 13.9939 22.3697 11.0427C23.2496 8.08921 22.4787 5.82812 21.3071 4.608C20.5764 3.75684 19.2415 2.75653 17.5305 2.39165C15.8973 2.04335 13.9762 2.2872 12 3.68867Z" fill="#2B2B2B"/>
</svg>
