<svg width="24" height="24" viewBox="0 0 24 24" fill="none" xmlns="http://www.w3.org/2000/svg">
<path fill-rule="evenodd" clip-rule="evenodd" d="M12 23C18.0751 23 23 18.0751 23 12C23 5.92487 18.0751 1 12 1C5.92487 1 1 5.92487 1 12C1 18.0751 5.92487 23 12 23ZM12.5954 7.35959L12.3699 7.322C12.125 7.28118 11.875 7.28118 11.6301 7.322C10.5452 7.50282 9.75 8.44149 9.75 9.54138V10C9.75 10.4142 9.41421 10.75 9 10.75C8.58579 10.75 8.25 10.4142 8.25 10V9.54138C8.25 7.70824 9.5753 6.14377 11.3835 5.8424C11.7917 5.77437 12.2083 5.77437 12.6165 5.8424L12.842 5.88C14.5221 6.16 15.75 7.61945 15.75 9.31865C15.75 10.6292 15.01 11.8335 13.8354 12.4208C13.1702 12.7534 12.75 13.4333 12.75 14.1771V14.5C12.75 14.9142 12.4142 15.25 12 15.25C11.5858 15.25 11.25 14.9142 11.25 14.5V14.1771C11.25 12.8652 11.9912 11.6659 13.1646 11.0792C13.8286 10.7472 14.25 10.0637 14.25 9.31865C14.25 8.34871 13.5482 7.51839 12.5954 7.35959ZM13 18C13 18.5523 12.5523 19 12 19C11.4477 19 11 18.5523 11 18C11 17.4477 11.4477 17 12 17C12.5523 17 13 17.4477 13 18Z" fill="#2B2B2B"/>
</svg>
