<svg width="24" height="24" viewBox="0 0 24 24" fill="none" xmlns="http://www.w3.org/2000/svg">
<path fill-rule="evenodd" clip-rule="evenodd" d="M9.89985 1.90948C11.1686 1.03017 12.8314 1.03017 14.1002 1.90948L21.2272 6.84907C21.2342 6.85393 21.2412 6.8589 21.248 6.864L23.448 8.50255C23.7802 8.74997 23.8489 9.21984 23.6015 9.55204C23.3541 9.88424 22.8842 9.95296 22.552 9.70554L21.75 9.10821V19.9366C21.75 21.4682 20.5407 22.75 19 22.75H15.8125C14.2718 22.75 13.0625 21.4682 13.0625 19.9366V17.0609C13.0625 16.4201 12.5649 15.941 12 15.941C11.4351 15.941 10.9375 16.4201 10.9375 17.0609V19.9366C10.9375 21.4682 9.72816 22.75 8.1875 22.75H5C3.45934 22.75 2.25 21.4682 2.25 19.9366V9.10821L1.44799 9.70554C1.1158 9.95296 0.645921 9.88424 0.398501 9.55204C0.15108 9.21984 0.219807 8.74997 0.552006 8.50255L2.75201 6.864C2.75884 6.8589 2.76577 6.85393 2.77277 6.84907L9.89985 1.90948ZM3.75 8.19277V19.9366C3.75 20.6842 4.33152 21.25 5 21.25H8.1875C8.85598 21.25 9.4375 20.6842 9.4375 19.9366V17.0609C9.4375 15.6362 10.5629 14.441 12 14.441C13.4371 14.441 14.5625 15.6362 14.5625 17.0609V19.9366C14.5625 20.6842 15.144 21.25 15.8125 21.25H19C19.6685 21.25 20.25 20.6842 20.25 19.9366V8.19276L20.1663 7.93882L13.2457 3.14233C12.4909 2.61922 11.5091 2.61922 10.7543 3.14233L3.83369 7.93882L3.75 8.19277Z" fill="#2B2B2B"/>
</svg>
