<svg width="24" height="24" viewBox="0 0 24 24" fill="none" xmlns="http://www.w3.org/2000/svg">
<path d="M13.9661 2.61347C12.7784 1.79551 11.2216 1.79551 10.0339 2.61347L3.36178 7.20844C3.35522 7.21296 3.34874 7.21758 3.34234 7.22232L1.28277 8.74655C0.971778 8.97671 0.907438 9.41381 1.13906 9.72283C1.37069 10.0319 1.81057 10.0958 2.12157 9.86562L2.87238 9.30997V19.3829C2.87238 20.8076 4.00452 22 5.44683 22H8.43087C9.87318 22 11.0053 20.8076 11.0053 19.3829V16.7078C11.0053 16.1118 11.4711 15.666 12 15.666C12.5289 15.666 12.9947 16.1118 12.9947 16.7078V19.3829C12.9947 20.8076 14.1268 22 15.5691 22H18.5532C19.9955 22 21.1276 20.8076 21.1276 19.3829V9.30997L21.8784 9.86562C22.1894 10.0958 22.6293 10.0319 22.8609 9.72283C23.0926 9.41381 23.0282 8.97671 22.7172 8.74655L20.6577 7.22232C20.6513 7.21758 20.6448 7.21296 20.6382 7.20844L13.9661 2.61347Z" fill="#2B2B2B"/>
</svg>
