<svg width="24" height="24" viewBox="0 0 24 24" fill="none" xmlns="http://www.w3.org/2000/svg">
<path d="M1.25 3C1.25 2.58579 1.58579 2.25 2 2.25H2.40897C3.68953 2.25 4.80061 3.13388 5.08855 4.38164L7.37304 14.2811C7.50392 14.8482 8.00896 15.25 8.59103 15.25H18.4914C19.0495 15.25 19.54 14.88 19.6933 14.3434L21.2019 9.06329C21.2338 8.95161 21.25 8.83604 21.25 8.71989V8C21.25 7.30964 20.6904 6.75 20 6.75H8.5C8.08579 6.75 7.75 6.41421 7.75 6C7.75 5.58579 8.08579 5.25 8.5 5.25H20C21.5188 5.25 22.75 6.48122 22.75 8V8.71989C22.75 8.97541 22.7144 9.22968 22.6442 9.47537L21.1356 14.7555C20.7983 15.9361 19.7192 16.75 18.4914 16.75H8.59103C7.31047 16.75 6.19939 15.8661 5.91145 14.6184L3.62696 4.71893C3.49608 4.15176 2.99104 3.75 2.40897 3.75H2C1.58579 3.75 1.25 3.41421 1.25 3Z" fill="#2B2B2B"/>
<path fill-rule="evenodd" clip-rule="evenodd" d="M6.25 20.5C6.25 19.2574 7.25736 18.25 8.5 18.25C9.74264 18.25 10.75 19.2574 10.75 20.5C10.75 21.7426 9.74264 22.75 8.5 22.75C7.25736 22.75 6.25 21.7426 6.25 20.5ZM8.5 19.75C8.08579 19.75 7.75 20.0858 7.75 20.5C7.75 20.9142 8.08579 21.25 8.5 21.25C8.91421 21.25 9.25 20.9142 9.25 20.5C9.25 20.0858 8.91421 19.75 8.5 19.75Z" fill="#2B2B2B"/>
<path fill-rule="evenodd" clip-rule="evenodd" d="M17.5 18.25C16.2574 18.25 15.25 19.2574 15.25 20.5C15.25 21.7426 16.2574 22.75 17.5 22.75C18.7426 22.75 19.75 21.7426 19.75 20.5C19.75 19.2574 18.7426 18.25 17.5 18.25ZM16.75 20.5C16.75 20.0858 17.0858 19.75 17.5 19.75C17.9142 19.75 18.25 20.0858 18.25 20.5C18.25 20.9142 17.9142 21.25 17.5 21.25C17.0858 21.25 16.75 20.9142 16.75 20.5Z" fill="#2B2B2B"/>
</svg>
