<svg width="24" height="24" viewBox="0 0 24 24" fill="none" xmlns="http://www.w3.org/2000/svg">
<path fill-rule="evenodd" clip-rule="evenodd" d="M10.1682 3.69909C10.6108 2.25583 12.2778 1.59567 13.5885 2.34464C15.0278 3.16713 15.8026 4.79907 15.5301 6.4343L15.0391 9.37996C15.0137 9.53234 15.1312 9.67106 15.2857 9.67106H19.1913C21.0816 9.67106 22.4083 11.5343 21.79 13.3206L19.6323 19.5538C18.9701 21.4669 17.1681 22.75 15.1437 22.75H4C2.48122 22.75 1.25 21.5188 1.25 20V13.4737C1.25 11.9549 2.48122 10.7237 4 10.7237H6.66651C6.73583 10.7237 6.80203 10.6949 6.84932 10.6442L8.42452 8.95564C8.55387 8.81698 8.64997 8.65071 8.70556 8.46942L10.1682 3.69909ZM12.8443 3.647C12.3683 3.37505 11.763 3.61476 11.6023 4.13882L10.1397 8.90914C10.0174 9.30799 9.80593 9.67379 9.52136 9.97884L7.94616 11.6674C7.68287 11.9497 7.33575 12.1349 6.96053 12.1988V21.25H15.1437C16.5288 21.25 17.7618 20.3721 18.2149 19.0631L20.3725 12.8299C20.6536 12.018 20.0505 11.1711 19.1913 11.1711H15.2857C14.2043 11.1711 13.3818 10.2 13.5595 9.13336L14.0505 6.1877C14.2198 5.17182 13.7385 4.15798 12.8443 3.647ZM5.46053 21.25V12.2237H4C3.30964 12.2237 2.75 12.7833 2.75 13.4737V20C2.75 20.6904 3.30965 21.25 4 21.25H5.46053Z" fill="#2B2B2B"/>
</svg>
