<svg width="24" height="24" viewBox="0 0 24 24" fill="none" xmlns="http://www.w3.org/2000/svg">
<path fill-rule="evenodd" clip-rule="evenodd" d="M18.8336 5.16637C17.1739 3.50665 14.483 3.50665 12.8232 5.16637L12.1161 5.87348C11.8232 6.16637 11.3484 6.16637 11.0555 5.87348C10.7626 5.58059 10.7626 5.10571 11.0555 4.81282L11.7626 4.10571C14.0081 1.8602 17.6488 1.8602 19.8943 4.10571C22.1398 6.35123 22.1398 9.99193 19.8943 12.2374L16.0659 16.0659C15.773 16.3588 15.2981 16.3588 15.0052 16.0659C14.7123 15.773 14.7123 15.2981 15.0052 15.0052L18.8336 11.1768C20.4934 9.51705 20.4934 6.8261 18.8336 5.16637ZM8.99479 7.93415C9.28769 8.22704 9.28769 8.70191 8.99479 8.99481L5.16637 12.8232C3.50664 14.483 3.50664 17.1739 5.16637 18.8336C6.82609 20.4934 9.51705 20.4934 11.1768 18.8336L11.8839 18.1265C12.1768 17.8336 12.6516 17.8336 12.9445 18.1265C13.2374 18.4194 13.2374 18.8943 12.9445 19.1872L12.2374 19.8943C9.99192 22.1398 6.35122 22.1398 4.10571 19.8943C1.86019 17.6488 1.86019 14.0081 4.10571 11.7626L7.93413 7.93415C8.22703 7.64125 8.7019 7.64125 8.99479 7.93415ZM15.3588 8.64124C15.6517 8.93414 15.6517 9.40901 15.3588 9.7019L9.7019 15.3588C9.40901 15.6516 8.93414 15.6516 8.64124 15.3588C8.34835 15.0659 8.34835 14.591 8.64124 14.2981L14.2981 8.64124C14.591 8.34835 15.0659 8.34835 15.3588 8.64124Z" fill="#2B2B2B"/>
</svg>
