<svg width="24" height="24" viewBox="0 0 24 24" fill="none" xmlns="http://www.w3.org/2000/svg">
<path fill-rule="evenodd" clip-rule="evenodd" d="M12 1C12.4342 0.999997 12.8693 1.05655 13.2941 1.17037C14.3573 1.45525 15.2967 2.08297 15.9668 2.95619C16.6368 3.82942 17 4.89933 17 6V8.41604C18.7659 9.18759 20 10.9497 20 13V17C20 19.7614 17.7614 22 15 22H9C6.23858 22 4 19.7614 4 17V13C4 10.9497 5.2341 9.1876 7 8.41604V6C7 4.89933 7.36319 3.82942 8.03323 2.95619C8.70328 2.08297 9.64274 1.45525 10.7059 1.17037C11.1307 1.05655 11.5658 0.999997 12 1ZM9 8H15V6C15 5.3396 14.7821 4.69765 14.38 4.17372C13.978 3.64978 13.4143 3.27315 12.7764 3.10222C12.5215 3.03392 12.2605 3 12 3C11.7395 3 11.4784 3.03392 11.2235 3.10222C10.5856 3.27315 10.022 3.64978 9.61994 4.17372C9.21791 4.69765 9 5.3396 9 6L9 8Z" fill="#2B2B2B"/>
</svg>
