<svg width="24" height="24" viewBox="0 0 24 24" fill="none" xmlns="http://www.w3.org/2000/svg">
<path fill-rule="evenodd" clip-rule="evenodd" d="M5 3.25C2.92893 3.25 1.25 4.92893 1.25 7V7.98036C1.24967 7.99312 1.24968 8.00585 1.25 8.01856V17C1.25 19.0711 2.92893 20.75 5 20.75H19C21.0711 20.75 22.75 19.0711 22.75 17V8.01067C22.7501 8.0032 22.7501 7.99573 22.75 7.98825V7C22.75 4.92893 21.0711 3.25 19 3.25H5ZM21.25 7.53648V7C21.25 5.75736 20.2426 4.75 19 4.75H5C3.75736 4.75 2.75 5.75736 2.75 7V7.53656L11.9999 12.1615L21.25 7.53648ZM2.75 9.21361V17C2.75 18.2426 3.75736 19.25 5 19.25H19C20.2426 19.25 21.25 18.2426 21.25 17V9.21353L12.3353 13.6709C12.1242 13.7764 11.8757 13.7764 11.6645 13.6709L2.75 9.21361Z" fill="#2B2B2B"/>
</svg>
