<svg width="24" height="24" viewBox="0 0 24 24" fill="none" xmlns="http://www.w3.org/2000/svg">
<path fill-rule="evenodd" clip-rule="evenodd" d="M8.66459 3.32918C8.87574 3.22361 9.12426 3.22361 9.33541 3.32918L15 6.16147L19.2174 4.05279C20.381 3.471 21.75 4.31712 21.75 5.61803V16.382C21.75 17.0448 21.3755 17.6508 20.7826 17.9472L15.3354 20.6708C15.1243 20.7764 14.8757 20.7764 14.6646 20.6708L9 17.8385L4.78262 19.9472C3.61905 20.529 2.25 19.6829 2.25 18.382V7.61803C2.25 6.95518 2.6245 6.34922 3.21738 6.05279L8.66459 3.32918ZM9.75 16.5365L14.25 18.7865V7.46353L9.75 5.21353V16.5365ZM8.25 5.21353V16.5365L4.1118 18.6056C3.94558 18.6887 3.75 18.5678 3.75 18.382V7.61803C3.75 7.52334 3.8035 7.43678 3.8882 7.39443L8.25 5.21353ZM15.75 7.46353V18.7865L20.1118 16.6056C20.1965 16.5632 20.25 16.4767 20.25 16.382V5.61803C20.25 5.43219 20.0544 5.31131 19.8882 5.39443L15.75 7.46353Z" fill="#2B2B2B"/>
</svg>
