<svg width="24" height="24" viewBox="0 0 24 24" fill="none" xmlns="http://www.w3.org/2000/svg">
<path fill-rule="evenodd" clip-rule="evenodd" d="M13.655 11.4771C13.1102 9.90983 10.8897 9.90983 10.3449 11.4771C10.3106 11.5758 10.2164 11.6442 10.1119 11.6464C8.45303 11.6802 7.76685 13.792 9.08903 14.7944C9.17236 14.8576 9.20832 14.9683 9.17805 15.0684C8.69758 16.6565 10.494 17.9617 11.8559 17.014C11.9418 16.9543 12.0582 16.9543 12.144 17.014C13.5059 17.9617 15.3024 16.6565 14.8219 15.0684C14.7916 14.9683 14.8276 14.8576 14.9109 14.7944C16.2331 13.792 15.5469 11.6802 13.888 11.6464C13.7835 11.6442 13.6893 11.5758 13.655 11.4771ZM11.7618 11.9696C11.8396 11.7457 12.1603 11.7457 12.2381 11.9696C12.4785 12.6609 13.1257 13.1312 13.8575 13.1461C14.0945 13.1509 14.1936 13.4559 14.0047 13.5991C13.4214 14.0413 13.1742 14.8022 13.3862 15.5027C13.4548 15.7296 13.1953 15.9181 13.0008 15.7827C12.4 15.3647 11.6 15.3647 10.9992 15.7827C10.8046 15.9181 10.5451 15.7296 10.6138 15.5027C10.8257 14.8022 10.5785 14.0413 9.99525 13.5991C9.80637 13.4559 9.90547 13.1509 10.1425 13.1461C10.8743 13.1312 11.5215 12.6609 11.7618 11.9696Z" fill="#2B2B2B"/>
<path fill-rule="evenodd" clip-rule="evenodd" d="M6.25 7C6.25 7.14305 6.29005 7.27675 6.35955 7.39049L5.83081 7.69575C4.36116 8.54426 3.45581 10.1124 3.45581 11.8094V16.1906C3.45581 17.8876 4.36116 19.4557 5.83081 20.3042L9.62504 22.4948C11.0947 23.3433 12.9054 23.3433 14.375 22.4948L18.1693 20.3042C19.6389 19.4557 20.5443 17.8876 20.5443 16.1906V11.8094C20.5443 10.1124 19.6389 8.54426 18.1693 7.69575L17.6405 7.39045C17.71 7.27672 17.75 7.14304 17.75 7V4C17.75 2.48122 16.5188 1.25 15 1.25H9C7.48122 1.25 6.25 2.48122 6.25 4V7ZM9 2.75C8.30964 2.75 7.75 3.30964 7.75 4V6.58771L9.62504 5.50515C11.0947 4.65665 12.9054 4.65665 14.375 5.50515L16.25 6.58766V4C16.25 3.30964 15.6904 2.75 15 2.75H9ZM13.625 6.80419C12.6195 6.22364 11.3806 6.22364 10.375 6.80419L6.58081 8.99479C5.57526 9.57535 4.95581 10.6483 4.95581 11.8094V16.1906C4.95581 17.3517 5.57526 18.4246 6.58081 19.0052L10.375 21.1958C11.3806 21.7763 12.6195 21.7763 13.625 21.1958L17.4193 19.0052C18.4248 18.4246 19.0443 17.3517 19.0443 16.1906V11.8094C19.0443 10.6483 18.4248 9.57535 17.4193 8.99479L13.625 6.80419Z" fill="#2B2B2B"/>
</svg>
