<svg width="24" height="24" viewBox="0 0 24 24" fill="none" xmlns="http://www.w3.org/2000/svg">
<path fill-rule="evenodd" clip-rule="evenodd" d="M7.25 7C7.25 4.37665 9.37665 2.25 12 2.25C14.6234 2.25 16.75 4.37665 16.75 7V11C16.75 13.6234 14.6234 15.75 12 15.75C9.37665 15.75 7.25 13.6234 7.25 11V7ZM12 3.75C10.2051 3.75 8.75 5.20507 8.75 7V11C8.75 12.7949 10.2051 14.25 12 14.25C13.7949 14.25 15.25 12.7949 15.25 11V7C15.25 5.20507 13.7949 3.75 12 3.75Z" fill="#2B2B2B"/>
<path d="M5 10.25C5.41421 10.25 5.75 10.5858 5.75 11C5.75 12.6576 6.40848 14.2473 7.58058 15.4194C8.75268 16.5915 10.3424 17.25 12 17.25C13.6576 17.25 15.2473 16.5915 16.4194 15.4194C17.5915 14.2473 18.25 12.6576 18.25 11C18.25 10.5858 18.5858 10.25 19 10.25C19.4142 10.25 19.75 10.5858 19.75 11C19.75 13.0554 18.9335 15.0267 17.4801 16.4801C16.1915 17.7686 14.4959 18.5566 12.6955 18.7188C12.7306 18.8056 12.75 18.9005 12.75 19V21C12.75 21.4142 12.4142 21.75 12 21.75C11.5858 21.75 11.25 21.4142 11.25 21V19C11.25 18.9005 11.2694 18.8056 11.3045 18.7188C9.50409 18.5566 7.80849 17.7686 6.51992 16.4801C5.06652 15.0267 4.25 13.0554 4.25 11C4.25 10.5858 4.58579 10.25 5 10.25Z" fill="#2B2B2B"/>
</svg>
