<svg width="24" height="24" viewBox="0 0 24 24" fill="none" xmlns="http://www.w3.org/2000/svg">
<path d="M11.25 11C11.25 11.4142 11.5858 11.75 12 11.75C12.4142 11.75 12.75 11.4142 12.75 11V7C12.75 6.58579 12.4142 6.25 12 6.25C11.5858 6.25 11.25 6.58579 11.25 7V11Z" fill="#2B2B2B"/>
<path fill-rule="evenodd" clip-rule="evenodd" d="M10 1.25C6.27208 1.25 3.25 4.27208 3.25 8V16C3.25 19.7279 6.27208 22.75 10 22.75H14C17.7279 22.75 20.75 19.7279 20.75 16V8C20.75 4.27208 17.7279 1.25 14 1.25H10ZM4.75 8C4.75 5.10051 7.10051 2.75 10 2.75H14C16.8995 2.75 19.25 5.10051 19.25 8V16C19.25 18.8995 16.8995 21.25 14 21.25H10C7.10051 21.25 4.75 18.8995 4.75 16V8Z" fill="#2B2B2B"/>
</svg>
