<svg width="24" height="24" viewBox="0 0 24 24" fill="none" xmlns="http://www.w3.org/2000/svg">
<path fill-rule="evenodd" clip-rule="evenodd" d="M12.25 12.5499C11.875 12.3581 11.4501 12.25 11 12.25C9.48122 12.25 8.25 13.4812 8.25 15C8.25 16.5188 9.48122 17.75 11 17.75C12.5188 17.75 13.75 16.5188 13.75 15V7.76772C14.5981 7.88903 15.25 8.61838 15.25 9.5V10C15.25 10.4142 15.5858 10.75 16 10.75C16.4142 10.75 16.75 10.4142 16.75 10V9.5C16.75 7.70507 15.2949 6.25 13.5 6.25C12.8096 6.25 12.25 6.80964 12.25 7.5V12.5499ZM11 13.75C10.3096 13.75 9.75 14.3096 9.75 15C9.75 15.6904 10.3096 16.25 11 16.25C11.6904 16.25 12.25 15.6904 12.25 15C12.25 14.3096 11.6904 13.75 11 13.75Z" fill="#2B2B2B"/>
<path fill-rule="evenodd" clip-rule="evenodd" d="M1.25 12C1.25 6.06294 6.06294 1.25 12 1.25C17.9371 1.25 22.75 6.06294 22.75 12C22.75 17.9371 17.9371 22.75 12 22.75C6.06294 22.75 1.25 17.9371 1.25 12ZM12 2.75C6.89137 2.75 2.75 6.89137 2.75 12C2.75 17.1086 6.89137 21.25 12 21.25C17.1086 21.25 21.25 17.1086 21.25 12C21.25 6.89137 17.1086 2.75 12 2.75Z" fill="#2B2B2B"/>
</svg>
