<svg width="24" height="24" viewBox="0 0 24 24" fill="none" xmlns="http://www.w3.org/2000/svg">
<path d="M8.25 9C8.25 8.58579 8.58579 8.25 9 8.25H15C15.4142 8.25 15.75 8.58579 15.75 9C15.75 9.41421 15.4142 9.75 15 9.75H9C8.58579 9.75 8.25 9.41421 8.25 9Z" fill="#2B2B2B"/>
<path d="M9 12.25C8.58579 12.25 8.25 12.5858 8.25 13C8.25 13.4142 8.58579 13.75 9 13.75H15C15.4142 13.75 15.75 13.4142 15.75 13C15.75 12.5858 15.4142 12.25 15 12.25H9Z" fill="#2B2B2B"/>
<path d="M8.25 17C8.25 16.5858 8.58579 16.25 9 16.25H12C12.4142 16.25 12.75 16.5858 12.75 17C12.75 17.4142 12.4142 17.75 12 17.75H9C8.58579 17.75 8.25 17.4142 8.25 17Z" fill="#2B2B2B"/>
<path fill-rule="evenodd" clip-rule="evenodd" d="M15.6465 3.25H17C19.0711 3.25 20.75 4.92893 20.75 7V18C20.75 20.0711 19.0711 21.75 17 21.75H7C4.92893 21.75 3.25 20.0711 3.25 18V7C3.25 4.92893 4.92893 3.25 7 3.25H8.35352C8.67998 2.09575 9.74122 1.25 11 1.25H13C14.2588 1.25 15.32 2.09575 15.6465 3.25ZM7 4.75C5.75736 4.75 4.75 5.75736 4.75 7V18C4.75 19.2426 5.75736 20.25 7 20.25H17C18.2426 20.25 19.25 19.2426 19.25 18V7C19.25 5.75736 18.2426 4.75 17 4.75H7ZM9.99991 3.25C10.228 2.94639 10.591 2.75 11 2.75H13C13.409 2.75 13.772 2.94639 14.0001 3.25H9.99991Z" fill="#2B2B2B"/>
</svg>
