<svg width="24" height="24" viewBox="0 0 24 24" fill="none" xmlns="http://www.w3.org/2000/svg">
<path d="M13.9998 19C14.552 19 15.0153 19.4596 14.8347 19.9814L14.7752 20.1396C14.6258 20.5035 14.4044 20.8376 14.1209 21.1211C13.5583 21.6836 12.7954 22 11.9998 22L11.7029 21.9854C11.1144 21.9268 10.5559 21.6952 10.0984 21.3203L9.87868 21.1211C9.55465 20.797 9.31198 20.4064 9.16481 19.9814C8.99564 19.4924 9.39217 19.0575 9.89723 19.0049L9.99977 19H13.9998Z" fill="#2B2B2B"/>
<path d="M11.9998 2C16.2952 2 19.7779 5.482 19.7781 9.77734V13.5664C19.7782 13.5698 19.7786 13.5731 19.78 13.5762L20.5466 15.1025C21.214 16.4325 20.2466 18 18.7586 18H5.24098C3.75312 17.9998 2.78655 16.4324 3.45387 15.1025L4.2195 13.5762C4.22104 13.5731 4.22236 13.5698 4.22243 13.5664V9.77734C4.22266 5.48207 7.70447 2.00012 11.9998 2Z" fill="#2B2B2B"/>
</svg>
