<svg width="24" height="24" viewBox="0 0 24 24" fill="none" xmlns="http://www.w3.org/2000/svg">
<path d="M14.0001 19C14.5522 19.0001 15.0155 19.4597 14.835 19.9814L14.7755 20.1396C14.6261 20.5034 14.4046 20.8376 14.1212 21.1211C13.5586 21.6836 12.7956 22 12.0001 22L11.7032 21.9854C11.1147 21.9268 10.5561 21.6952 10.0987 21.3203L9.87897 21.1211C9.55496 20.797 9.31227 20.4064 9.1651 19.9814C8.99593 19.4924 9.39247 19.0575 9.89753 19.0049L10.0001 19H14.0001Z" fill="#2B2B2B"/>
<path d="M20.9698 2.46973C21.2627 2.17684 21.7374 2.17684 22.0303 2.46973C22.3232 2.76262 22.3232 3.2374 22.0303 3.53027L19.0548 6.50488C19.5181 7.49951 19.7783 8.6077 19.7784 9.77734V13.5664C19.7785 13.5698 19.7789 13.5731 19.7803 13.5762L20.5469 15.1025C21.2142 16.4324 20.2467 17.9999 18.7589 18H7.56061L4.03034 21.5303C3.73747 21.8231 3.26269 21.8231 2.96979 21.5303C2.6769 21.2374 2.6769 20.7626 2.96979 20.4697L20.9698 2.46973Z" fill="#2B2B2B"/>
<path d="M12.0001 2C14.0614 2.00005 15.9343 2.80341 17.3262 4.1123L3.92878 17.5098C3.27999 16.9415 3.01812 15.9715 3.45417 15.1025L4.21979 13.5762C4.22132 13.5731 4.22265 13.5698 4.22272 13.5664V9.77734C4.22295 5.48207 7.70477 2.00012 12.0001 2Z" fill="#2B2B2B"/>
</svg>
