<svg width="24" height="24" viewBox="0 0 24 24" fill="none" xmlns="http://www.w3.org/2000/svg">
<path d="M14 19C14.5522 19.0001 15.0155 19.4597 14.835 19.9814L14.7754 20.1396C14.626 20.5035 14.4046 20.8376 14.1211 21.1211C13.5585 21.6837 12.7956 22 12 22L11.7031 21.9854C11.1146 21.9268 10.5561 21.6952 10.0986 21.3203L9.87891 21.1211C9.55484 20.797 9.31223 20.4065 9.16505 19.9814C8.99579 19.4923 9.39228 19.0574 9.89747 19.0049L10 19H14ZM12 2C16.2954 2.00009 19.7771 5.48205 19.7774 9.77734V13.5664L19.7803 13.5762L20.5459 15.1025C21.1924 16.3909 20.3054 17.902 18.8965 17.9951L18.7588 18H5.24121C3.79982 18 2.84715 16.5295 3.3955 15.2285L3.45409 15.1025L4.21972 13.5762L4.22265 13.5664V9.77734C4.22288 5.48199 7.7046 2 12 2ZM12 3.5C8.53303 3.5 5.72288 6.31042 5.72265 9.77734V13.5664C5.72258 13.8034 5.66681 14.0372 5.56054 14.249L4.79394 15.7754C4.6271 16.1079 4.86923 16.5 5.24121 16.5H18.7588C19.1307 16.4999 19.3728 16.1078 19.2061 15.7754L18.4395 14.249C18.3332 14.0372 18.2774 13.8034 18.2774 13.5664V9.77734C18.2771 6.31048 15.4669 3.50009 12 3.5Z" fill="#2B2B2B"/>
</svg>
