<svg width="24" height="24" viewBox="0 0 24 24" fill="none" xmlns="http://www.w3.org/2000/svg">
<path d="M7 2.25C4.92893 2.25 3.25 3.92893 3.25 6V18C3.25 20.0711 4.92893 21.75 7 21.75H17C19.0711 21.75 20.75 20.0711 20.75 18C20.75 17.5858 20.4142 17.25 20 17.25C19.5858 17.25 19.25 17.5858 19.25 18C19.25 19.2426 18.2426 20.25 17 20.25H7C5.75736 20.25 4.75 19.2426 4.75 18V6C4.75 4.75736 5.75736 3.75 7 3.75H17C18.2426 3.75 19.25 4.75736 19.25 6C19.25 6.41421 19.5858 6.75 20 6.75C20.4142 6.75 20.75 6.41421 20.75 6C20.75 3.92893 19.0711 2.25 17 2.25H7Z" fill="#2B2B2B"/>
<path d="M18.0303 8.46967C17.7374 8.17678 17.2626 8.17678 16.9697 8.46967C16.6768 8.76256 16.6768 9.23744 16.9697 9.53033L18.6893 11.25H14C13.5858 11.25 13.25 11.5858 13.25 12C13.25 12.4142 13.5858 12.75 14 12.75H18.6893L16.9697 14.4697C16.6768 14.7626 16.6768 15.2374 16.9697 15.5303C17.2626 15.8232 17.7374 15.8232 18.0303 15.5303L21.0303 12.5303C21.3232 12.2374 21.3232 11.7626 21.0303 11.4697L18.0303 8.46967Z" fill="#2B2B2B"/>
</svg>
