<svg width="24" height="24" viewBox="0 0 24 24" fill="none" xmlns="http://www.w3.org/2000/svg">
<path d="M3.92064 3.75C2.50485 3.75 1.67509 5.3437 2.48699 6.50356L7.76029 14.0368L5.31071 14.6492C5.23331 14.6686 5.15132 14.6498 5.09003 14.5988L3.30022 13.1072C2.48606 12.4288 1.24999 13.0077 1.24999 14.0675V16C1.24999 16.4142 1.58577 16.75 1.99999 16.75C2.4142 16.75 2.74999 16.4142 2.74999 16V14.6013L4.12976 15.7511C4.55879 16.1086 5.13271 16.2399 5.67452 16.1045L9.18189 15.2276C9.42143 15.1677 9.61614 14.9938 9.70256 14.7625C9.78897 14.5312 9.75601 14.2722 9.61441 14.0699L3.71584 5.64337C3.59985 5.47767 3.71839 5.25 3.92064 5.25H4.20483C4.524 5.25 4.83107 5.37209 5.06311 5.59123L12.7444 12.8458C13.3842 13.45 14.2745 13.7116 15.1394 13.5494L19.732 12.6883C20.5208 12.5404 21.25 13.1456 21.25 13.9481C21.25 14.5262 20.8631 15.0327 20.3055 15.1848L5.30265 19.2765C4.90303 19.3854 4.66743 19.7977 4.77642 20.1974C4.8854 20.597 5.29771 20.8326 5.69733 20.7236L20.7002 16.6319C21.9104 16.3018 22.75 15.2026 22.75 13.9481C22.75 12.2064 21.1675 10.893 19.4556 11.214L14.863 12.0751C14.4699 12.1488 14.0652 12.0299 13.7744 11.7553L6.09305 4.50071C5.58256 4.01859 4.90699 3.75 4.20483 3.75H3.92064Z" fill="#2B2B2B"/>
<path d="M7.69728 18.2236C8.0969 18.1146 8.33251 17.7023 8.22352 17.3027C8.11453 16.9031 7.70223 16.6675 7.30261 16.7765L1.80261 18.2764C1.40299 18.3854 1.16738 18.7977 1.27637 19.1973C1.38536 19.597 1.79766 19.8326 2.19728 19.7236L7.69728 18.2236Z" fill="#2B2B2B"/>
</svg>
