<svg width="24" height="24" viewBox="0 0 24 24" fill="none" xmlns="http://www.w3.org/2000/svg">
<path fill-rule="evenodd" clip-rule="evenodd" d="M6 2.75C4.20507 2.75 2.75 4.20507 2.75 6V12C2.75 13.7949 4.20507 15.25 6 15.25C6.41421 15.25 6.75 15.5858 6.75 16C6.75 16.4142 6.41421 16.75 6 16.75C3.37665 16.75 1.25 14.6234 1.25 12V6C1.25 3.37665 3.37665 1.25 6 1.25H12C14.6234 1.25 16.75 3.37665 16.75 6C16.75 6.41421 16.4142 6.75 16 6.75C15.5858 6.75 15.25 6.41421 15.25 6C15.25 4.20507 13.7949 2.75 12 2.75H6ZM7.25 12C7.25 9.37665 9.37665 7.25 12 7.25H18C20.6234 7.25 22.75 9.37665 22.75 12V18C22.75 20.6234 20.6234 22.75 18 22.75H12C9.37665 22.75 7.25 20.6234 7.25 18V12ZM12 8.75C10.2051 8.75 8.75 10.2051 8.75 12V18C8.75 19.7949 10.2051 21.25 12 21.25H18C19.7949 21.25 21.25 19.7949 21.25 18V12C21.25 10.2051 19.7949 8.75 18 8.75H12ZM11.25 15C11.25 14.5858 11.5858 14.25 12 14.25H18C18.4142 14.25 18.75 14.5858 18.75 15C18.75 15.4142 18.4142 15.75 18 15.75H12C11.5858 15.75 11.25 15.4142 11.25 15Z" fill="#2B2B2B"/>
</svg>
