<svg width="24" height="24" viewBox="0 0 24 24" fill="none" xmlns="http://www.w3.org/2000/svg">
<path fill-rule="evenodd" clip-rule="evenodd" d="M14.0555 2.88389C15.1294 1.80995 16.8706 1.80994 17.9445 2.88389L21.1161 6.05546C22.1901 7.1294 22.1901 8.8706 21.1161 9.94455L10.1161 20.9445C9.60039 21.4603 8.90092 21.75 8.17157 21.75H4C3.0335 21.75 2.25 20.9665 2.25 20V15.8284C2.25 15.0991 2.53973 14.3996 3.05546 13.8839L14.0555 2.88389ZM16.8839 3.94455C16.3957 3.45639 15.6043 3.45639 15.1161 3.94455L14.0607 5L19 9.93934L20.0555 8.88389C20.5436 8.39573 20.5436 7.60427 20.0555 7.11612L16.8839 3.94455ZM17.9393 11L13 6.06066L4.11612 14.9445C3.8817 15.179 3.75 15.4969 3.75 15.8284V20C3.75 20.1381 3.86193 20.25 4 20.25H8.17157C8.50309 20.25 8.82104 20.1183 9.05546 19.8839L17.9393 11ZM10.5303 13.4697C10.8232 13.7626 10.8232 14.2374 10.5303 14.5303L8.53033 16.5303C8.23744 16.8232 7.76256 16.8232 7.46967 16.5303C7.17678 16.2374 7.17678 15.7626 7.46967 15.4697L9.46967 13.4697C9.76256 13.1768 10.2374 13.1768 10.5303 13.4697Z" fill="#2B2B2B"/>
</svg>
