<svg width="24" height="24" viewBox="0 0 24 24" fill="none" xmlns="http://www.w3.org/2000/svg">
<path d="M15.5303 10.5303C15.8232 10.2374 15.8232 9.76256 15.5303 9.46967C15.2374 9.17678 14.7626 9.17678 14.4697 9.46967L11 12.9393L9.53033 11.4697C9.23744 11.1768 8.76256 11.1768 8.46967 11.4697C8.17678 11.7626 8.17678 12.2374 8.46967 12.5303L10.4697 14.5303C10.7626 14.8232 11.2374 14.8232 11.5303 14.5303L15.5303 10.5303Z" fill="#2B2B2B"/>
<path fill-rule="evenodd" clip-rule="evenodd" d="M4.25 5C4.25 2.92893 5.92893 1.25 8 1.25H16C18.0711 1.25 19.75 2.92893 19.75 5V19C19.75 21.0711 18.0711 22.75 16 22.75H8C5.92893 22.75 4.25 21.0711 4.25 19V5ZM8 2.75C6.75736 2.75 5.75 3.75736 5.75 5V19C5.75 20.2426 6.75736 21.25 8 21.25H16C17.2426 21.25 18.25 20.2426 18.25 19V5C18.25 3.75736 17.2426 2.75 16 2.75H14.7073C14.735 2.82819 14.75 2.91234 14.75 3C14.75 3.41421 14.4142 3.75 14 3.75H10C9.58579 3.75 9.25 3.41421 9.25 3C9.25 2.91234 9.26504 2.82819 9.29268 2.75H8Z" fill="#2B2B2B"/>
</svg>
