<svg width="24" height="24" viewBox="0 0 24 24" fill="none" xmlns="http://www.w3.org/2000/svg">
<path fill-rule="evenodd" clip-rule="evenodd" d="M14.9051 2.17677C15.5886 1.49335 16.6966 1.49335 17.38 2.17677L19.607 4.40373C21.0347 5.8315 21.4244 8.03606 20.4062 9.83421C19.3267 11.7406 17.6938 14.3669 16.0303 16.0303C14.367 17.6936 11.7409 19.3263 9.83464 20.4058C8.0365 21.424 5.83196 21.0343 4.4042 19.6065L2.17722 17.3796C1.4938 16.6961 1.4938 15.5881 2.17722 14.9047L5.02599 12.0559C5.69534 11.3866 6.77562 11.3708 7.46422 12.0203L9.06681 13.532C9.13841 13.5995 9.22143 13.6051 9.27774 13.5812C10.0498 13.253 11.2905 12.6487 11.9697 11.9696C12.649 11.2904 13.2532 10.0496 13.5813 9.27763C13.6052 9.22135 13.5996 9.13837 13.5321 9.06677L12.0205 7.46368C11.3711 6.77505 11.387 5.69493 12.0563 5.02565L14.9051 2.17677ZM16.3194 3.23743C16.2217 3.1398 16.0634 3.1398 15.9658 3.23743L13.1169 6.08631C13.0213 6.18192 13.019 6.33623 13.1118 6.4346L14.6234 8.03769C15.0738 8.51527 15.2331 9.22598 14.9618 9.86438C14.6353 10.6325 13.9371 12.1236 13.0303 13.0303C12.1237 13.9368 10.6327 14.6351 9.86458 14.9616C9.22607 15.2331 8.51518 15.0737 8.03756 14.6232L6.43497 13.1115C6.3366 13.0187 6.18227 13.021 6.08665 13.1166L3.23788 15.9653C3.14025 16.063 3.14025 16.2213 3.23788 16.3189L5.46486 18.5459C6.44968 19.5307 7.92472 19.7635 9.09554 19.1005C10.9941 18.0255 13.4624 16.4769 14.9697 14.9697C16.4771 13.4623 18.0258 10.9937 19.1009 9.09509C19.7639 7.92427 19.5311 6.44921 18.5463 5.46439L16.3194 3.23743Z" fill="#2B2B2B"/>
</svg>
