<svg width="24" height="24" viewBox="0 0 24 24" fill="none" xmlns="http://www.w3.org/2000/svg">
<path fill-rule="evenodd" clip-rule="evenodd" d="M6 3.25C3.37665 3.25 1.25 5.37665 1.25 8V16C1.25 18.6234 3.37665 20.75 6 20.75H18C20.6234 20.75 22.75 18.6234 22.75 16V8C22.75 5.37665 20.6234 3.25 18 3.25H6ZM17 6.25C16.5858 6.25 16.25 6.58579 16.25 7C16.25 7.41421 16.5858 7.75 17 7.75H19C19.4142 7.75 19.75 7.41421 19.75 7C19.75 6.58579 19.4142 6.25 19 6.25H17ZM8.75 12C8.75 10.2051 10.2051 8.75 12 8.75C13.7949 8.75 15.25 10.2051 15.25 12C15.25 13.7949 13.7949 15.25 12 15.25C10.2051 15.25 8.75 13.7949 8.75 12ZM12 7.25C9.37665 7.25 7.25 9.37665 7.25 12C7.25 14.6234 9.37665 16.75 12 16.75C14.6234 16.75 16.75 14.6234 16.75 12C16.75 9.37665 14.6234 7.25 12 7.25Z" fill="#2B2B2B"/>
</svg>
