<svg width="24" height="24" viewBox="0 0 24 24" fill="none" xmlns="http://www.w3.org/2000/svg">
<path fill-rule="evenodd" clip-rule="evenodd" d="M7.25 12C7.25 9.37665 9.37665 7.25 12 7.25C14.6234 7.25 16.75 9.37665 16.75 12C16.75 14.6234 14.6234 16.75 12 16.75C9.37665 16.75 7.25 14.6234 7.25 12ZM12 8.75C10.2051 8.75 8.75 10.2051 8.75 12C8.75 13.7949 10.2051 15.25 12 15.25C13.7949 15.25 15.25 13.7949 15.25 12C15.25 10.2051 13.7949 8.75 12 8.75Z" fill="#2B2B2B"/>
<path d="M17 6.25C16.5858 6.25 16.25 6.58579 16.25 7C16.25 7.41421 16.5858 7.75 17 7.75H19C19.4142 7.75 19.75 7.41421 19.75 7C19.75 6.58579 19.4142 6.25 19 6.25H17Z" fill="#2B2B2B"/>
<path fill-rule="evenodd" clip-rule="evenodd" d="M1.25 8C1.25 5.37665 3.37665 3.25 6 3.25H18C20.6234 3.25 22.75 5.37665 22.75 8V16C22.75 18.6234 20.6234 20.75 18 20.75H6C3.37665 20.75 1.25 18.6234 1.25 16V8ZM6 4.75C4.20507 4.75 2.75 6.20507 2.75 8V16C2.75 17.7949 4.20507 19.25 6 19.25H18C19.7949 19.25 21.25 17.7949 21.25 16V8C21.25 6.20507 19.7949 4.75 18 4.75H6Z" fill="#2B2B2B"/>
</svg>
