<svg width="24" height="24" viewBox="0 0 24 24" fill="none" xmlns="http://www.w3.org/2000/svg">
<path d="M10 8.5C10 9.32843 9.32843 10 8.5 10C7.67157 10 7 9.32843 7 8.5C7 7.67157 7.67157 7 8.5 7C9.32843 7 10 7.67157 10 8.5Z" fill="#2B2B2B"/>
<path fill-rule="evenodd" clip-rule="evenodd" d="M6 2.25C3.92893 2.25 2.25 3.92893 2.25 6V18C2.25 20.0711 3.92893 21.75 6 21.75H18C20.0711 21.75 21.75 20.0711 21.75 18V6C21.75 3.92893 20.0711 2.25 18 2.25H6ZM3.75 6C3.75 4.75736 4.75736 3.75 6 3.75H18C19.2426 3.75 20.25 4.75736 20.25 6V8.2525C13.6831 8.38396 8.38396 13.6831 8.2525 20.25H6C4.75736 20.25 3.75 19.2426 3.75 18V6ZM9.75285 20.25H18C19.2426 20.25 20.25 19.2426 20.25 18V9.75285C14.5115 9.8838 9.8838 14.5115 9.75285 20.25Z" fill="#2B2B2B"/>
</svg>
