<svg width="24" height="24" viewBox="0 0 24 24" fill="none" xmlns="http://www.w3.org/2000/svg">
<path fill-rule="evenodd" clip-rule="evenodd" d="M17.75 2C19.8211 2 21.5 3.67893 21.5 5.75V17.75C21.5 19.8211 19.8211 21.5 17.75 21.5H5.75C3.67893 21.5 2 19.8211 2 17.75V5.75C2 3.67893 3.67893 2 5.75 2H17.75ZM19 11C19 9.3432 17.6327 7.96009 16.0371 8.40625C15.6142 8.52453 15.1974 8.66818 14.79 8.83691C13.4555 9.38971 12.2431 10.2003 11.2217 11.2217C10.2003 12.2431 9.38971 13.4555 8.83691 14.79C8.66818 15.1974 8.52453 15.6142 8.40625 16.0371C7.96009 17.6327 9.3432 19 11 19H16C17.6569 19 19 17.6569 19 16V11ZM7.5 6C6.67157 6 6 6.67157 6 7.5C6 8.32843 6.67157 9 7.5 9C8.32843 9 9 8.32843 9 7.5C9 6.67157 8.32843 6 7.5 6Z" fill="#2B2B2B"/>
</svg>
