<svg width="24" height="24" viewBox="0 0 24 24" fill="none" xmlns="http://www.w3.org/2000/svg">
<path fill-rule="evenodd" clip-rule="evenodd" d="M16.9493 2.98906C15.1876 1.22736 12.2295 1.64166 11.0195 3.81955L9.77078 6.06731C9.57992 6.41087 9.32832 6.71695 9.02822 6.97071L4.74968 10.5885L3.53038 9.36916C3.23748 9.07626 2.76261 9.07626 2.46972 9.36916C2.17682 9.66205 2.17682 10.1369 2.46972 10.4298L7.59625 15.5563L3.17679 19.9758C2.88389 20.2687 2.88389 20.7436 3.17679 21.0365C3.46968 21.3294 3.94455 21.3294 4.23745 21.0365L8.65691 16.617L13.7834 21.7435C14.0763 22.0364 14.5512 22.0364 14.8441 21.7435C15.137 21.4506 15.137 20.9758 14.8441 20.6829L13.6248 19.4636L17.2425 15.185C17.4963 14.8849 17.8024 14.6333 18.1459 14.4425L20.3937 13.1937C22.5716 11.9838 22.9859 9.02567 21.2242 7.26396L16.9493 2.98906ZM12.5604 18.3992L5.81405 11.6528L9.99673 8.11613C10.4354 7.74525 10.8031 7.29789 11.082 6.79578L12.3308 4.54802C13.0567 3.24128 14.8316 2.9927 15.8886 4.04973L20.1635 8.32462C21.2205 9.38164 20.972 11.1565 19.6652 11.8825L17.4175 13.1312C16.9153 13.4102 16.468 13.7779 16.0971 14.2165L12.5604 18.3992Z" fill="#2B2B2B"/>
</svg>
