<svg width="24" height="24" viewBox="0 0 24 24" fill="none" xmlns="http://www.w3.org/2000/svg">
<path fill-rule="evenodd" clip-rule="evenodd" d="M12 5.25C9.37665 5.25 7.25 7.37665 7.25 10C7.25 12.6234 9.37665 14.75 12 14.75C14.6234 14.75 16.75 12.6234 16.75 10C16.75 7.37665 14.6234 5.25 12 5.25ZM8.75 10C8.75 8.20507 10.2051 6.75 12 6.75C13.7949 6.75 15.25 8.20507 15.25 10C15.25 11.7949 13.7949 13.25 12 13.25C10.2051 13.25 8.75 11.7949 8.75 10Z" fill="#2B2B2B"/>
<path fill-rule="evenodd" clip-rule="evenodd" d="M12 1.25C6.69194 1.25 2.25 5.13738 2.25 10.0952C2.25 11.3645 2.67092 12.7799 3.30292 14.1548C3.93965 15.5399 4.81519 16.9369 5.78237 18.1839C6.74838 19.4293 7.82249 20.5465 8.86724 21.3603C9.87885 22.1483 10.9867 22.75 12 22.75C13.0133 22.75 14.1211 22.1483 15.1328 21.3603C16.1775 20.5465 17.2516 19.4293 18.2176 18.1839C19.1848 16.9369 20.0603 15.5399 20.6971 14.1548C21.3291 12.7799 21.75 11.3645 21.75 10.0952C21.75 5.13738 17.3081 1.25 12 1.25ZM3.75 10.0952C3.75 6.11134 7.36693 2.75 12 2.75C16.6331 2.75 20.25 6.11134 20.25 10.0952C20.25 11.0614 19.9209 12.2519 19.3342 13.5283C18.7522 14.7944 17.9402 16.0941 17.0324 17.2645C16.1234 18.4365 15.135 19.4572 14.211 20.1769C13.2539 20.9225 12.4867 21.25 12 21.25C11.5133 21.25 10.7461 20.9225 9.78901 20.1769C8.86501 19.4572 7.87662 18.4365 6.96763 17.2645C6.05981 16.0941 5.24785 14.7944 4.66582 13.5283C4.07908 12.2519 3.75 11.0614 3.75 10.0952Z" fill="#2B2B2B"/>
</svg>
