<svg width="24" height="24" viewBox="0 0 24 24" fill="none" xmlns="http://www.w3.org/2000/svg">
<path fill-rule="evenodd" clip-rule="evenodd" d="M10 7.25C9.0335 7.25 8.25 8.0335 8.25 9V17C8.25 17.4142 8.58579 17.75 9 17.75C9.41421 17.75 9.75 17.4142 9.75 17V14.1779H13.286C15.1991 14.1779 16.75 12.627 16.75 10.714C16.75 8.80087 15.1991 7.25 13.286 7.25H10ZM13.286 12.6779H9.75V9C9.75 8.86193 9.86193 8.75 10 8.75H13.286C14.3707 8.75 15.25 9.62929 15.25 10.714C15.25 11.7986 14.3707 12.6779 13.286 12.6779Z" fill="#2B2B2B"/>
<path fill-rule="evenodd" clip-rule="evenodd" d="M12 1.25C6.06294 1.25 1.25 6.06294 1.25 12C1.25 17.9371 6.06294 22.75 12 22.75C17.9371 22.75 22.75 17.9371 22.75 12C22.75 6.06294 17.9371 1.25 12 1.25ZM2.75 12C2.75 6.89137 6.89137 2.75 12 2.75C17.1086 2.75 21.25 6.89137 21.25 12C21.25 17.1086 17.1086 21.25 12 21.25C6.89137 21.25 2.75 17.1086 2.75 12Z" fill="#2B2B2B"/>
</svg>
