<svg width="24" height="24" viewBox="0 0 24 24" fill="none" xmlns="http://www.w3.org/2000/svg">
<path d="M12.75 9V3C12.75 2.58579 12.4142 2.25 12 2.25C11.5858 2.25 11.25 2.58579 11.25 3V9C11.25 9.41421 11.5858 9.75 12 9.75C12.4142 9.75 12.75 9.41421 12.75 9Z" fill="#2B2B2B"/>
<path d="M6.36896 19.3385C7.98442 20.5781 9.96376 21.25 12 21.25C14.0362 21.25 16.0156 20.5781 17.631 19.3385C19.2465 18.0989 20.4078 16.3609 20.9348 14.3941C21.4618 12.4272 21.3251 10.3414 20.5459 8.46018C19.7667 6.57894 18.3884 5.00739 16.625 3.98927C16.2663 3.78216 16.1434 3.32347 16.3505 2.96475C16.5576 2.60603 17.0163 2.48312 17.375 2.69023C19.4244 3.87345 21.0261 5.69984 21.9317 7.88615C22.8373 10.0725 22.9962 12.4965 22.3837 14.7823C21.7712 17.0681 20.4216 19.0879 18.5442 20.5285C16.6668 21.9691 14.3664 22.75 12 22.75C9.63356 22.75 7.33324 21.9691 5.45582 20.5285C3.57839 19.0879 2.22878 17.0681 1.6163 14.7823C1.00382 12.4965 1.1627 10.0725 2.0683 7.88615C2.9739 5.69985 4.5756 3.87345 6.625 2.69023C6.98372 2.48312 7.44242 2.60603 7.64952 2.96475C7.85663 3.32347 7.73372 3.78216 7.375 3.98927C5.61157 5.00739 4.23335 6.57894 3.45412 8.46018C2.67488 10.3414 2.53817 12.4272 3.06519 14.3941C3.59221 16.3609 4.7535 18.0989 6.36896 19.3385Z" fill="#2B2B2B"/>
</svg>
