<svg width="23" height="24" viewBox="0 0 23 24" fill="none" xmlns="http://www.w3.org/2000/svg">
<path d="M12 12.25C11.5858 12.25 11.25 12.5858 11.25 13C11.25 13.4142 11.5858 13.75 12 13.75H14C14.4142 13.75 14.75 13.4142 14.75 13C14.75 12.5858 14.4142 12.25 14 12.25H12Z" fill="#2B2B2B"/>
<path d="M16.25 13C16.25 12.5858 16.5858 12.25 17 12.25H18C18.4142 12.25 18.75 12.5858 18.75 13C18.75 13.4142 18.4142 13.75 18 13.75H17C16.5858 13.75 16.25 13.4142 16.25 13Z" fill="#2B2B2B"/>
<path fill-rule="evenodd" clip-rule="evenodd" d="M5.25 6C5.25 3.37665 7.37665 1.25 10 1.25H14C16.6234 1.25 18.75 3.37665 18.75 6V8.25H19C20.5188 8.25 21.75 9.48122 21.75 11V17C21.75 18.5188 20.5188 19.75 19 19.75H17.75V21C17.75 21.9665 16.9665 22.75 16 22.75H8C7.0335 22.75 6.25 21.9665 6.25 21V19.75H5C3.48122 19.75 2.25 18.5188 2.25 17V11C2.25 9.48122 3.48122 8.25 5 8.25H5.25V6ZM7.75 21C7.75 21.1381 7.86193 21.25 8 21.25H16C16.1381 21.25 16.25 21.1381 16.25 21V18C16.25 17.8619 16.1381 17.75 16 17.75H8C7.86193 17.75 7.75 17.8619 7.75 18V21ZM17.75 18.25V18C17.75 17.0335 16.9665 16.25 16 16.25H8C7.0335 16.25 6.25 17.0335 6.25 18V18.25H5C4.30964 18.25 3.75 17.6904 3.75 17V11C3.75 10.3096 4.30964 9.75 5 9.75H19C19.6904 9.75 20.25 10.3096 20.25 11V17C20.25 17.6904 19.6904 18.25 19 18.25H17.75ZM17.25 6V8.25H6.75V6C6.75 4.20507 8.20507 2.75 10 2.75H14C15.7949 2.75 17.25 4.20507 17.25 6Z" fill="#2B2B2B"/>
</svg>
