<svg width="24" height="24" viewBox="0 0 24 24" fill="none" xmlns="http://www.w3.org/2000/svg">
<path fill-rule="evenodd" clip-rule="evenodd" d="M1.25 12C1.25 6.06294 6.06294 1.25 12 1.25C17.9371 1.25 22.75 6.06294 22.75 12C22.75 17.9371 17.9371 22.75 12 22.75C6.06294 22.75 1.25 17.9371 1.25 12ZM12 2.75C6.89137 2.75 2.75 6.89137 2.75 12C2.75 15.0362 4.21281 17.7307 6.4721 19.4172C6.53205 19.2078 6.60397 19.0016 6.68765 18.7996C6.97662 18.1019 7.40016 17.4681 7.9341 16.9341C8.34079 16.5274 8.80546 16.1848 9.31212 15.9169C8.06667 15.0606 7.25 13.6257 7.25 12C7.25 9.37665 9.37665 7.25 12 7.25C14.6234 7.25 16.75 9.37665 16.75 12C16.75 13.6257 15.9333 15.0606 14.6878 15.9169C15.1945 16.1848 15.6591 16.5275 16.0658 16.9341C16.5998 17.4681 17.0233 18.1019 17.3123 18.7996C17.396 19.0016 17.4679 19.2079 17.5278 19.4173C19.7872 17.7307 21.25 15.0362 21.25 12C21.25 6.89137 17.1086 2.75 12 2.75ZM12 8.75C10.2051 8.75 8.75 10.2051 8.75 12C8.75 13.7949 10.2051 15.25 12 15.25C13.7949 15.25 15.25 13.7949 15.25 12C15.25 10.2051 13.7949 8.75 12 8.75ZM10.3736 17.0735C10.8892 16.8599 11.4418 16.75 12 16.75C12.5581 16.75 13.1107 16.8599 13.6264 17.0735C14.142 17.2871 14.6105 17.6001 15.0052 17.9948C15.3998 18.3894 15.7129 18.858 15.9264 19.3736C16.0274 19.6174 16.1052 19.8695 16.1592 20.1265C14.9385 20.8407 13.5179 21.25 12 21.25C10.482 21.25 9.06146 20.8407 7.84069 20.1265C7.89467 19.8695 7.97248 19.6174 8.07347 19.3736C8.28706 18.858 8.60011 18.3894 8.99476 17.9948C9.38941 17.6001 9.85792 17.2871 10.3736 17.0735Z" fill="#2B2B2B"/>
</svg>
