<svg width="24" height="24" viewBox="0 0 24 24" fill="none" xmlns="http://www.w3.org/2000/svg">
<path d="M12 15C14.387 15 16.6765 15.6326 18.3643 16.7578C20.0528 17.8837 21 19.4098 21 21C21 21.4142 20.6642 21.75 20.25 21.75C19.8358 21.75 19.5 21.4142 19.5 21C19.5 20.0469 18.9305 18.9382 17.5322 18.0059C16.1317 17.0722 14.1442 16.5 12 16.5C9.85582 16.5 7.86825 17.0722 6.46777 18.0059C5.06947 18.9382 4.5 20.0469 4.5 21C4.5 21.4142 4.16421 21.75 3.75 21.75C3.33579 21.75 3 21.4142 3 21C3 19.4098 3.94716 17.8837 5.63574 16.7578C7.32353 15.6326 9.61299 15 12 15Z" fill="#2B2B2B"/>
<path fill-rule="evenodd" clip-rule="evenodd" d="M12 2C15.3137 2 18 4.68629 18 8C18 11.3137 15.3137 14 12 14C8.68629 14 6 11.3137 6 8C6 4.68629 8.68629 2 12 2ZM12 3.5C9.51472 3.5 7.5 5.51472 7.5 8C7.5 10.4853 9.51472 12.5 12 12.5C14.4853 12.5 16.5 10.4853 16.5 8C16.5 5.51472 14.4853 3.5 12 3.5Z" fill="#2B2B2B"/>
</svg>
