<svg width="24" height="24" viewBox="0 0 24 24" fill="none" xmlns="http://www.w3.org/2000/svg">
<path fill-rule="evenodd" clip-rule="evenodd" d="M3.25 5C3.25 2.92893 4.92893 1.25 7 1.25H17C19.0711 1.25 20.75 2.92893 20.75 5V20.7388C20.75 21.8724 19.3794 22.4401 18.5779 21.6385L18.4697 21.5303C18.2103 21.2709 17.7897 21.2709 17.5303 21.5303C16.6852 22.3755 15.3148 22.3755 14.4697 21.5303C14.2103 21.2709 13.7897 21.2709 13.5303 21.5303C12.6852 22.3755 11.3148 22.3755 10.4697 21.5303C10.2103 21.2709 9.78972 21.2709 9.53033 21.5303C8.68515 22.3755 7.31485 22.3755 6.46967 21.5303C6.21028 21.2709 5.78972 21.2709 5.53033 21.5303L5.42214 21.6385C4.62056 22.4401 3.25 21.8724 3.25 20.7388V5ZM7 2.75C5.75736 2.75 4.75 3.75736 4.75 5V20.2328C5.59491 19.6337 6.77328 19.7126 7.53033 20.4697C7.78972 20.7291 8.21028 20.7291 8.46967 20.4697C9.31485 19.6245 10.6852 19.6245 11.5303 20.4697C11.7897 20.7291 12.2103 20.7291 12.4697 20.4697C13.3148 19.6245 14.6852 19.6245 15.5303 20.4697C15.7897 20.7291 16.2103 20.7291 16.4697 20.4697C17.2267 19.7126 18.4051 19.6337 19.25 20.2328V5C19.25 3.75736 18.2426 2.75 17 2.75H7ZM8.25 8C8.25 7.58579 8.58579 7.25 9 7.25H15C15.4142 7.25 15.75 7.58579 15.75 8C15.75 8.41421 15.4142 8.75 15 8.75H9C8.58579 8.75 8.25 8.41421 8.25 8ZM8.25 12C8.25 11.5858 8.58579 11.25 9 11.25H15C15.4142 11.25 15.75 11.5858 15.75 12C15.75 12.4142 15.4142 12.75 15 12.75H9C8.58579 12.75 8.25 12.4142 8.25 12ZM8.25 16C8.25 15.5858 8.58579 15.25 9 15.25H13C13.4142 15.25 13.75 15.5858 13.75 16C13.75 16.4142 13.4142 16.75 13 16.75H9C8.58579 16.75 8.25 16.4142 8.25 16Z" fill="#2B2B2B"/>
</svg>
