<svg width="24" height="24" viewBox="0 0 24 24" fill="none" xmlns="http://www.w3.org/2000/svg">
<path d="M14.5235 2.58222C12.8704 2.13926 11.1297 2.13926 9.47657 2.58222C7.82341 3.02519 6.31597 3.89551 5.10577 5.10571C3.89557 6.31591 3.02525 7.82335 2.58228 9.47651C2.13932 11.1297 2.13932 12.8703 2.58228 14.5235C3.02525 16.1767 3.89557 17.6841 5.10577 18.8943C6.31597 20.1045 7.82341 20.9748 9.47657 21.4178C11.1297 21.8607 12.8704 21.8607 14.5235 21.4178C14.9236 21.3106 15.1611 20.8993 15.0539 20.4992C14.9467 20.0991 14.5354 19.8617 14.1353 19.9689C12.7365 20.3437 11.2636 20.3437 9.8648 19.9689C8.46597 19.5941 7.19044 18.8576 6.16643 17.8336C5.14241 16.8096 4.40599 15.5341 4.03117 14.1353C3.65636 12.7364 3.65636 11.2636 4.03117 9.86474C4.40599 8.46591 5.14241 7.19039 6.16643 6.16637C7.19044 5.14235 8.46597 4.40593 9.8648 4.03111C11.2636 3.6563 12.7365 3.6563 14.1353 4.03111C15.3366 4.353 16.447 4.94159 17.3852 5.75H16C15.5858 5.75 15.25 6.08579 15.25 6.5C15.25 6.91421 15.5858 7.25 16 7.25H19C19.4142 7.25 19.75 6.91421 19.75 6.5V3.5C19.75 3.08579 19.4142 2.75 19 2.75C18.5858 2.75 18.25 3.08579 18.25 3.5V4.51664C17.1658 3.61109 15.8948 2.94964 14.5235 2.58222Z" fill="#2B2B2B"/>
<path d="M20.5713 9.15475C20.1687 9.25215 19.9213 9.65747 20.0187 10.0601C20.0593 10.228 20.0947 10.3972 20.1247 10.5674C20.1966 10.9753 20.5856 11.2477 20.9935 11.1758C21.4014 11.1038 21.6738 10.7148 21.6019 10.3069C21.5664 10.1058 21.5247 9.90586 21.4766 9.70736C21.3792 9.30476 20.9739 9.05735 20.5713 9.15475Z" fill="#2B2B2B"/>
<path d="M20.1986 12.9196C20.2448 12.508 20.6159 12.2117 21.0275 12.2579C21.4391 12.3041 21.7354 12.6752 21.6892 13.0868C21.6665 13.2898 21.6373 13.492 21.6019 13.6931C21.5299 14.101 21.141 14.3734 20.733 14.3015C20.3251 14.2295 20.0527 13.8405 20.1247 13.4326C20.1547 13.2624 20.1793 13.0914 20.1986 12.9196Z" fill="#2B2B2B"/>
<path d="M20.3948 15.3299C20.0238 15.1457 19.5738 15.2972 19.3896 15.6682C19.3127 15.823 19.2311 15.9753 19.1447 16.125C18.9376 16.4837 19.0605 16.9424 19.4192 17.1495C19.7779 17.3566 20.2366 17.2337 20.4437 16.875C20.5458 16.6981 20.6423 16.5181 20.7331 16.3352C20.9173 15.9642 20.7659 15.5141 20.3948 15.3299Z" fill="#2B2B2B"/>
<path d="M17.6893 17.9744C17.9893 17.6887 18.464 17.7003 18.7497 18.0003C19.0353 18.3003 19.0237 18.775 18.7238 19.0606C18.5759 19.2015 18.4236 19.3376 18.2672 19.4689C17.9498 19.7352 17.4768 19.6938 17.2105 19.3765C16.9443 19.0592 16.9857 18.5861 17.303 18.3198C17.4353 18.2088 17.5642 18.0936 17.6893 17.9744Z" fill="#2B2B2B"/>
<path d="M12.75 7C12.75 6.58579 12.4142 6.25 12 6.25C11.5858 6.25 11.25 6.58579 11.25 7V12.375L15.55 15.6C15.8814 15.8485 16.3515 15.7814 16.6 15.45C16.8485 15.1186 16.7814 14.6485 16.45 14.4L12.75 11.625V7Z" fill="#2B2B2B"/>
</svg>
