<svg width="24" height="24" viewBox="0 0 24 24" fill="none" xmlns="http://www.w3.org/2000/svg">
<path d="M6.58319 3.89319C8.45875 2.63998 10.7108 2.07587 12.9557 2.29696C14.9098 2.48943 16.7532 3.26652 18.25 4.51668V3.5C18.25 3.08579 18.5858 2.75 19 2.75C19.4142 2.75 19.75 3.08579 19.75 3.5V6.5C19.75 6.91421 19.4142 7.25 19 7.25H16C15.5858 7.25 15.25 6.91421 15.25 6.5C15.25 6.08579 15.5858 5.75 16 5.75H17.3852C16.1017 4.64413 14.5045 3.95676 12.8086 3.78974C10.9092 3.60266 9.00356 4.07999 7.41655 5.14039C5.82954 6.2008 4.6593 7.77867 4.10524 9.60517C3.55118 11.4317 3.64758 13.3938 4.378 15.1572C5.10842 16.9205 6.42767 18.3761 8.11098 19.2759C9.79429 20.1756 11.7375 20.4639 13.6095 20.0915C15.4815 19.7191 17.1665 18.7092 18.3773 17.2338C19.5882 15.7583 20.25 13.9087 20.25 12C20.25 11.5858 20.5858 11.25 21 11.25C21.4142 11.25 21.75 11.5858 21.75 12C21.75 14.2557 20.9679 16.4417 19.5369 18.1853C18.1058 19.929 16.1145 21.1226 13.9021 21.5627C11.6898 22.0027 9.39325 21.6621 7.40389 20.5987C5.41452 19.5354 3.8554 17.8152 2.99218 15.7312C2.12895 13.6472 2.01503 11.3283 2.66983 9.16974C3.32463 7.01116 4.70763 5.1464 6.58319 3.89319Z" fill="#2B2B2B"/>
</svg>
