<svg width="24" height="24" viewBox="0 0 24 24" fill="none" xmlns="http://www.w3.org/2000/svg">
<path fill-rule="evenodd" clip-rule="evenodd" d="M10.7274 2.33341C12.8553 2.05326 15.0162 2.4831 16.875 3.55625C18.7338 4.62941 20.1865 6.2859 21.0078 8.26884C21.8292 10.2518 21.9733 12.4503 21.4178 14.5235C21.3106 14.9236 20.8993 15.161 20.4992 15.0538C20.0991 14.9466 19.8617 14.5354 19.9689 14.1353C20.4389 12.381 20.317 10.5207 19.622 8.84286C18.927 7.165 17.6978 5.76334 16.125 4.85529C14.5522 3.94724 12.7237 3.58353 10.9232 3.82058C9.32546 4.03092 7.82895 4.70384 6.61483 5.75H8C8.41422 5.75 8.75 6.08578 8.75 6.5C8.75 6.91421 8.41422 7.25 8 7.25H5C4.58579 7.25 4.25 6.91421 4.25 6.5V3.5C4.25 3.08579 4.58579 2.75 5 2.75C5.41422 2.75 5.75 3.08579 5.75 3.5V4.51667C7.16402 3.33567 8.88901 2.57544 10.7274 2.33341ZM3.50079 8.94618C3.90088 9.05339 4.13832 9.46464 4.03112 9.86474C3.56107 11.619 3.683 13.4793 4.378 15.1571C5.07299 16.835 6.30221 18.2367 7.875 19.1447C9.4478 20.0528 11.2763 20.4165 13.0768 20.1794C14.6746 19.9691 16.1711 19.2962 17.3852 18.25H16C15.5858 18.25 15.25 17.9142 15.25 17.5C15.25 17.0858 15.5858 16.75 16 16.75H19C19.4142 16.75 19.75 17.0858 19.75 17.5V20.5C19.75 20.9142 19.4142 21.25 19 21.25C18.5858 21.25 18.25 20.9142 18.25 20.5V19.4833C16.836 20.6643 15.111 21.4246 13.2726 21.6666C11.1447 21.9467 8.98376 21.5169 7.125 20.4437C5.26625 19.3706 3.81353 17.7141 2.99218 15.7312C2.17082 13.7482 2.02672 11.5497 2.58223 9.47651C2.68943 9.07641 3.10069 8.83898 3.50079 8.94618Z" fill="#2B2B2B"/>
</svg>
