<svg width="24" height="24" viewBox="0 0 24 24" fill="none" xmlns="http://www.w3.org/2000/svg">
<path d="M10 0.25C10.4142 0.25 10.75 0.585786 10.75 1V4C10.75 4.41421 10.4142 4.75 10 4.75C9.58579 4.75 9.25 4.41421 9.25 4V1C9.25 0.585786 9.58579 0.25 10 0.25Z" fill="#2B2B2B"/>
<path d="M6.75 2C6.75 1.58579 6.41421 1.25 6 1.25C5.58579 1.25 5.25 1.58579 5.25 2V4C5.25 4.41421 5.58579 4.75 6 4.75C6.41421 4.75 6.75 4.41421 6.75 4V2Z" fill="#2B2B2B"/>
<path fill-rule="evenodd" clip-rule="evenodd" d="M1.25 9C1.25 7.48122 2.48122 6.25 4 6.25H16C16.1114 6.25 16.2213 6.25663 16.3293 6.26951C16.3841 6.25675 16.4413 6.25 16.5 6.25H19.5C21.0188 6.25 22.25 7.48122 22.25 9V12C22.25 13.5188 21.0188 14.75 19.5 14.75H18.75V18C18.75 20.6234 16.6234 22.75 14 22.75H6C3.37665 22.75 1.25 20.6234 1.25 18V9ZM18.75 9C18.75 8.54989 18.6419 8.12503 18.4501 7.75H19.5C20.1904 7.75 20.75 8.30964 20.75 9V12C20.75 12.6904 20.1904 13.25 19.5 13.25H18.75V9ZM17.25 9V18C17.25 19.7949 15.7949 21.25 14 21.25H6C4.20507 21.25 2.75 19.7949 2.75 18V9C2.75 8.30964 3.30964 7.75 4 7.75H16C16.6904 7.75 17.25 8.30964 17.25 9Z" fill="#2B2B2B"/>
<path d="M14.75 2C14.75 1.58579 14.4142 1.25 14 1.25C13.5858 1.25 13.25 1.58579 13.25 2V4C13.25 4.41421 13.5858 4.75 14 4.75C14.4142 4.75 14.75 4.41421 14.75 4V2Z" fill="#2B2B2B"/>
</svg>
