<svg width="24" height="24" viewBox="0 0 24 24" fill="none" xmlns="http://www.w3.org/2000/svg">
<path d="M18.8943 17.8336C19.1872 18.1265 19.1872 18.6014 18.8943 18.8943C17.2992 20.4893 15.2005 21.482 12.9556 21.7031C10.7108 21.9242 8.45873 21.3601 6.58317 20.1068C4.70761 18.8536 3.32461 16.9889 2.66981 14.8303C2.01501 12.6717 2.12893 10.3529 2.99215 8.26885C3.85538 6.18484 5.4145 4.46462 7.40386 3.40128C9.39322 2.33795 11.6897 1.99729 13.9021 2.43736C16.1145 2.87743 18.1058 4.07099 19.5368 5.81468C20.6265 7.14239 21.3399 8.7265 21.6182 10.4026L22.4298 9.59101C22.7227 9.29812 23.1976 9.29812 23.4905 9.59101C23.7834 9.88391 23.7834 10.3588 23.4905 10.6517L21.3692 12.773C21.0763 13.0659 20.6014 13.0659 20.3085 12.773L18.1872 10.6517C17.8943 10.3588 17.8943 9.88391 18.1872 9.59101C18.4801 9.29812 18.955 9.29812 19.2478 9.59101L20.1022 10.4453C19.8445 9.10236 19.2552 7.83597 18.3773 6.76627C17.1665 5.29084 15.4815 4.2809 13.6095 3.90854C11.7375 3.53617 9.79426 3.82442 8.11096 4.72416C6.42765 5.62391 5.10839 7.07949 4.37797 8.84288C3.64755 10.6063 3.55116 12.5684 4.10522 14.3949C4.65928 16.2214 5.82951 17.7992 7.41652 18.8596C9.00353 19.92 10.9091 20.3974 12.8086 20.2103C14.7081 20.0232 16.484 19.1833 17.8336 17.8336C18.1265 17.5408 18.6014 17.5408 18.8943 17.8336Z" fill="#2B2B2B"/>
<path fill-rule="evenodd" clip-rule="evenodd" d="M7.25 9C7.25 8.03351 8.0335 7.25 9 7.25H15C15.9665 7.25 16.75 8.03351 16.75 9V15C16.75 15.9665 15.9665 16.75 15 16.75H9C8.0335 16.75 7.25 15.9665 7.25 15V9ZM9 8.75C8.86193 8.75 8.75 8.86193 8.75 9V15C8.75 15.1381 8.86193 15.25 9 15.25H15C15.1381 15.25 15.25 15.1381 15.25 15V9C15.25 8.86193 15.1381 8.75 15 8.75H12.75V11C12.75 11.4142 12.4142 11.75 12 11.75C11.5858 11.75 11.25 11.4142 11.25 11V8.75H9Z" fill="#2B2B2B"/>
</svg>
