<svg width="24" height="24" viewBox="0 0 24 24" fill="none" xmlns="http://www.w3.org/2000/svg">
<g clip-path="url(#clip0_10_1229)">
<path d="M8.46978 14.4696C8.17689 14.7625 8.17689 15.2374 8.46978 15.5303C8.76268 15.8232 9.23755 15.8232 9.53044 15.5303L15.5304 9.5303C15.8233 9.23741 15.8233 8.76253 15.5304 8.46964C15.2375 8.17675 14.7627 8.17675 14.4698 8.46964L8.46978 14.4696Z" fill="#2B2B2B"/>
<path fill-rule="evenodd" clip-rule="evenodd" d="M12.25 14.5C12.25 13.2573 13.2574 12.25 14.5 12.25C15.7426 12.25 16.75 13.2573 16.75 14.5C16.75 15.7426 15.7426 16.75 14.5 16.75C13.2574 16.75 12.25 15.7426 12.25 14.5ZM14.5 13.75C14.0858 13.75 13.75 14.0858 13.75 14.5C13.75 14.9142 14.0858 15.25 14.5 15.25C14.9142 15.25 15.25 14.9142 15.25 14.5C15.25 14.0858 14.9142 13.75 14.5 13.75Z" fill="#2B2B2B"/>
<path fill-rule="evenodd" clip-rule="evenodd" d="M9.5 7.24997C8.25736 7.24997 7.25 8.25733 7.25 9.49997C7.25 10.7426 8.25736 11.75 9.5 11.75C10.7426 11.75 11.75 10.7426 11.75 9.49997C11.75 8.25733 10.7426 7.24997 9.5 7.24997ZM8.75 9.49997C8.75 9.08576 9.08579 8.74997 9.5 8.74997C9.91421 8.74997 10.25 9.08576 10.25 9.49997C10.25 9.91418 9.91421 10.25 9.5 10.25C9.08579 10.25 8.75 9.91418 8.75 9.49997Z" fill="#2B2B2B"/>
<path fill-rule="evenodd" clip-rule="evenodd" d="M13.7837 1.53462C12.7558 0.658707 11.2441 0.658707 10.2163 1.53462L8.63865 2.87905C8.43844 3.04967 8.18952 3.15277 7.92731 3.1737L5.86111 3.33858C4.51496 3.44601 3.44601 4.51496 3.33858 5.86111L3.1737 7.92731C3.15277 8.18952 3.04967 8.43844 2.87905 8.63865L1.53462 10.2163C0.658707 11.2441 0.658707 12.7558 1.53462 13.7837L2.87905 15.3613C3.04967 15.5615 3.15277 15.8104 3.1737 16.0726L3.33858 18.1388C3.44601 19.485 4.51496 20.5539 5.86111 20.6613L7.92731 20.8262C8.18952 20.8471 8.43844 20.9503 8.63865 21.1209L10.2163 22.4653C11.2441 23.3412 12.7558 23.3412 13.7837 22.4653L15.3613 21.1209C15.5615 20.9503 15.8104 20.8471 16.0726 20.8262L18.1388 20.6613C19.485 20.5539 20.5539 19.485 20.6613 18.1388L20.8262 16.0726C20.8471 15.8104 20.9503 15.5615 21.1209 15.3613L22.4653 13.7837C23.3412 12.7558 23.3412 11.2441 22.4653 10.2163L21.1209 8.63865C20.9503 8.43845 20.8471 8.18952 20.8262 7.92731L20.6613 5.86111C20.5539 4.51496 19.485 3.44601 18.1388 3.33858L16.0726 3.1737C15.8104 3.15277 15.5615 3.04967 15.3613 2.87905L13.7837 1.53462ZM11.1892 2.67629C11.6564 2.27815 12.3435 2.27815 12.8107 2.67629L14.3883 4.02073C14.8288 4.39607 15.3764 4.62291 15.9533 4.66895L18.0195 4.83383C18.6314 4.88266 19.1173 5.36855 19.1661 5.98043L19.331 8.04663C19.377 8.62349 19.6038 9.17112 19.9792 9.61158L21.3236 11.1892C21.7218 11.6564 21.7218 12.3435 21.3236 12.8107L19.9792 14.3883C19.6038 14.8288 19.377 15.3764 19.331 15.9533L19.1661 18.0195C19.1173 18.6314 18.6314 19.1173 18.0195 19.1661L15.9533 19.331C15.3764 19.377 14.8288 19.6038 14.3883 19.9792L12.8107 21.3236C12.3435 21.7218 11.6564 21.7218 11.1892 21.3236L9.61158 19.9792C9.17113 19.6038 8.62349 19.377 8.04663 19.331L5.98043 19.1661C5.36855 19.1173 4.88266 18.6314 4.83383 18.0195L4.66895 15.9533C4.62291 15.3764 4.39607 14.8288 4.02073 14.3883L2.67629 12.8107C2.27815 12.3435 2.27815 11.6564 2.67629 11.1892L4.02073 9.61158C4.39607 9.17113 4.62291 8.62349 4.66895 8.04663L4.83383 5.98043C4.88266 5.36855 5.36855 4.88266 5.98043 4.83383L8.04663 4.66895C8.62349 4.62291 9.17112 4.39607 9.61157 4.02073L11.1892 2.67629Z" fill="#2B2B2B"/>
</g>
<defs>
<clipPath id="clip0_10_1229">
<rect width="24" height="24" rx="4" fill="white"/>
</clipPath>
</defs>
</svg>
