<svg width="24" height="24" viewBox="0 0 24 24" fill="none" xmlns="http://www.w3.org/2000/svg">
<path d="M5 3.75C4.30964 3.75 3.75 4.30964 3.75 5V7C3.75 7.41421 3.41421 7.75 3 7.75C2.58579 7.75 2.25 7.41421 2.25 7V5C2.25 3.48122 3.48122 2.25 5 2.25H8C8.41421 2.25 8.75 2.58579 8.75 3C8.75 3.41421 8.41421 3.75 8 3.75H5Z" fill="#2B2B2B"/>
<path d="M5 20.25C4.30964 20.25 3.75 19.6904 3.75 19V17C3.75 16.5858 3.41421 16.25 3 16.25C2.58579 16.25 2.25 16.5858 2.25 17V19C2.25 20.5188 3.48122 21.75 5 21.75H8C8.41421 21.75 8.75 21.4142 8.75 21C8.75 20.5858 8.41421 20.25 8 20.25H5Z" fill="#2B2B2B"/>
<path d="M20.25 5C20.25 4.30964 19.6904 3.75 19 3.75H16C15.5858 3.75 15.25 3.41421 15.25 3C15.25 2.58579 15.5858 2.25 16 2.25H19C20.5188 2.25 21.75 3.48122 21.75 5V7C21.75 7.41421 21.4142 7.75 21 7.75C20.5858 7.75 20.25 7.41421 20.25 7V5Z" fill="#2B2B2B"/>
<path d="M19 20.25C19.6904 20.25 20.25 19.6904 20.25 19V17C20.25 16.5858 20.5858 16.25 21 16.25C21.4142 16.25 21.75 16.5858 21.75 17V19C21.75 20.5188 20.5188 21.75 19 21.75H16C15.5858 21.75 15.25 21.4142 15.25 21C15.25 20.5858 15.5858 20.25 16 20.25H19Z" fill="#2B2B2B"/>
<path d="M3 11.25C2.58579 11.25 2.25 11.5858 2.25 12C2.25 12.4142 2.58579 12.75 3 12.75H21C21.4142 12.75 21.75 12.4142 21.75 12C21.75 11.5858 21.4142 11.25 21 11.25H3Z" fill="#2B2B2B"/>
</svg>
