<svg width="24" height="24" viewBox="0 0 24 24" fill="none" xmlns="http://www.w3.org/2000/svg">
<path fill-rule="evenodd" clip-rule="evenodd" d="M12 2.25C6.61522 2.25 2.25 6.61522 2.25 12C2.25 17.3848 6.61522 21.75 12 21.75C14.43 21.75 16.6523 20.8611 18.3596 19.3906C18.39 19.4404 18.4266 19.4873 18.4697 19.5303L21.4697 22.5303C21.7626 22.8232 22.2374 22.8232 22.5303 22.5303C22.8232 22.2374 22.8232 21.7626 22.5303 21.4697L19.5303 18.4697C19.4873 18.4266 19.4404 18.39 19.3906 18.3596C20.8611 16.6523 21.75 14.43 21.75 12C21.75 6.61522 17.3848 2.25 12 2.25ZM3.75 12C3.75 7.44365 7.44365 3.75 12 3.75C16.5563 3.75 20.25 7.44365 20.25 12C20.25 16.5563 16.5563 20.25 12 20.25C7.44365 20.25 3.75 16.5563 3.75 12Z" fill="#2B2B2B"/>
</svg>
