<svg width="24" height="24" viewBox="0 0 24 24" fill="none" xmlns="http://www.w3.org/2000/svg">
<path fill-rule="evenodd" clip-rule="evenodd" d="M7.25 8C7.25 5.37665 9.37665 3.25 12 3.25C14.6234 3.25 16.75 5.37665 16.75 8C16.75 10.6234 14.6234 12.75 12 12.75C9.37665 12.75 7.25 10.6234 7.25 8ZM12 4.75C10.2051 4.75 8.75 6.20507 8.75 8C8.75 9.79493 10.2051 11.25 12 11.25C13.7949 11.25 15.25 9.79493 15.25 8C15.25 6.20507 13.7949 4.75 12 4.75Z" fill="#2B2B2B"/>
<path d="M20.5303 16.4697C20.8232 16.7626 20.8232 17.2374 20.5303 17.5303L16.5303 21.5303C16.2374 21.8232 15.7626 21.8232 15.4697 21.5303L13.4697 19.5303C13.1768 19.2374 13.1768 18.7626 13.4697 18.4697C13.7626 18.1768 14.2374 18.1768 14.5303 18.4697L16 19.9393L19.4697 16.4697C19.7626 16.1768 20.2374 16.1768 20.5303 16.4697Z" fill="#2B2B2B"/>
<path d="M11.975 13.25C10.8342 13.25 9.70304 13.4524 8.64552 13.8471C7.58797 14.2418 6.62233 14.822 5.80546 15.558C4.98844 16.2941 4.33566 17.1723 3.88861 18.1448C3.55519 18.8701 3.34158 19.6362 3.25455 20.4181C3.20873 20.8298 3.50531 21.2007 3.91698 21.2465C4.32865 21.2923 4.69952 20.9957 4.74534 20.5841C4.81439 19.9637 4.98412 19.3529 5.25149 18.7713C5.61003 17.9914 6.13802 17.2774 6.80953 16.6724C7.4812 16.0672 8.2827 15.5835 9.17001 15.2524C10.0574 14.9212 11.0107 14.75 11.975 14.75C12.9393 14.75 13.8926 14.9212 14.78 15.2524C15.3755 15.4746 15.9326 15.7657 16.4377 16.1162C16.7781 16.3523 17.2454 16.2679 17.4815 15.9276C17.7176 15.5872 17.6332 15.1199 17.2929 14.8838C16.6831 14.4607 16.0146 14.1121 15.3045 13.8471C14.2469 13.4524 13.1158 13.25 11.975 13.25Z" fill="#2B2B2B"/>
</svg>
