<svg width="24" height="24" viewBox="0 0 24 24" fill="none" xmlns="http://www.w3.org/2000/svg">
<path fill-rule="evenodd" clip-rule="evenodd" d="M4.70198 9.98753C3.04362 10.8167 3.04362 13.1833 4.70198 14.0125L16.0199 19.6714C17.6711 20.497 19.5591 19.0923 19.2428 17.2734L18.4561 12.75L14.3043 12.75C13.8901 12.75 13.5543 12.4142 13.5543 12C13.5543 11.5858 13.8901 11.25 14.3043 11.25L18.4561 11.25L19.2428 6.72657C19.5591 4.9077 17.6711 3.50296 16.0199 4.32859L4.70198 9.98753ZM19.8482 12L20.7206 17.0164C21.2478 20.0479 18.1011 22.3891 15.349 21.013L4.03115 15.3541C1.26722 13.9721 1.26722 10.0279 4.03116 8.64589L15.349 2.98695C18.1011 1.6109 21.2478 3.95214 20.7206 6.98358L19.8482 12Z" fill="#2B2B2B"/>
</svg>
