<svg width="24" height="24" viewBox="0 0 24 24" fill="none" xmlns="http://www.w3.org/2000/svg">
<g clip-path="url(#clip0_10_742)">
<path fill-rule="evenodd" clip-rule="evenodd" d="M20.2467 6.44367C20.876 4.66079 19.159 2.94385 17.3761 3.5731L4.78562 8.01681C3.05432 8.62785 2.74423 10.9434 4.25375 11.9885L8.10466 14.6545L11.1976 11.5615C11.4905 11.2687 11.9654 11.2687 12.2583 11.5615C12.5511 11.8544 12.5511 12.3293 12.2583 12.6222L9.16532 15.7151L11.8313 19.566C12.8764 21.0756 15.1919 20.7655 15.803 19.0342L20.2467 6.44367ZM7.65336 16.1664L3.39994 13.2218C0.884071 11.48 1.40089 7.62073 4.28639 6.60232L16.8769 2.15861C19.8484 1.10986 22.7099 3.97144 21.6612 6.9429L17.2175 19.5334C16.1991 22.4189 12.3398 22.9357 10.598 20.4199L7.65336 16.1664Z" fill="#2B2B2B"/>
</g>
<defs>
<clipPath id="clip0_10_742">
<rect width="24" height="24" rx="4" fill="white"/>
</clipPath>
</defs>
</svg>
