<svg width="24" height="24" viewBox="0 0 24 24" fill="none" xmlns="http://www.w3.org/2000/svg">
<path d="M5.45926 4.39862C5.75216 4.69152 5.75216 5.16639 5.45926 5.45929C4.60032 6.31823 3.91897 7.33794 3.45411 8.4602C2.98926 9.58246 2.75 10.7853 2.75 12C2.75 13.2148 2.98926 14.4176 3.45412 15.5398C3.91897 16.6621 4.60032 17.6818 5.45926 18.5408C5.75216 18.8337 5.75216 19.3085 5.45926 19.6014C5.16637 19.8943 4.6915 19.8943 4.3986 19.6014C3.40037 18.6032 2.60853 17.4181 2.0683 16.1139C1.52806 14.8096 1.25 13.4117 1.25 12C1.25 10.5883 1.52806 9.19043 2.06829 7.88618C2.60853 6.58193 3.40037 5.39686 4.3986 4.39863C4.69149 4.10573 5.16637 4.10573 5.45926 4.39862Z" fill="#2B2B2B"/>
<path d="M7.9948 7.93415C8.28769 8.22704 8.28769 8.70191 7.9948 8.99481C7.60015 9.38946 7.28709 9.85797 7.07351 10.3736C6.85993 10.8892 6.75 11.4419 6.75 12C6.75 12.5581 6.85993 13.1108 7.07351 13.6264C7.2871 14.142 7.60015 14.6106 7.9948 15.0052C8.28769 15.2981 8.28769 15.773 7.9948 16.0659C7.7019 16.3588 7.22703 16.3588 6.93414 16.0659C6.4002 15.5319 5.97666 14.8981 5.68769 14.2004C5.39873 13.5028 5.25 12.7551 5.25 12C5.25 11.2449 5.39873 10.4972 5.68769 9.79958C5.97666 9.10196 6.4002 8.46808 6.93414 7.93415C7.22703 7.64125 7.7019 7.64125 7.9948 7.93415Z" fill="#2B2B2B"/>
<path d="M19.6014 4.39862C19.3085 4.10573 18.8336 4.10573 18.5407 4.39863C18.2478 4.69152 18.2478 5.16639 18.5407 5.45929C19.3997 6.31823 20.081 7.33794 20.5459 8.4602C21.0107 9.58246 21.25 10.7853 21.25 12C21.25 13.2148 21.0107 14.4176 20.5459 15.5398C20.081 16.6621 19.3997 17.6818 18.5407 18.5408C18.2478 18.8337 18.2478 19.3085 18.5407 19.6014C18.8336 19.8943 19.3085 19.8943 19.6014 19.6014C20.5996 18.6032 21.3914 17.4181 21.9317 16.1139C22.4719 14.8096 22.75 13.4117 22.75 12C22.75 10.5883 22.4719 9.19043 21.9317 7.88618C21.3914 6.58193 20.5996 5.39685 19.6014 4.39862Z" fill="#2B2B2B"/>
<path d="M16.0053 7.93415C16.2982 7.64125 16.7731 7.64125 17.066 7.93415C17.5999 8.46808 18.0235 9.10196 18.3124 9.79958C18.6014 10.4972 18.7501 11.2449 18.7501 12C18.7501 12.7551 18.6014 13.5028 18.3124 14.2004C18.0235 14.8981 17.5999 15.5319 17.066 16.0659C16.7731 16.3588 16.2982 16.3588 16.0053 16.0659C15.7124 15.773 15.7124 15.2981 16.0053 15.0052C16.4 14.6106 16.713 14.142 16.9266 13.6264C17.1402 13.1108 17.2501 12.5581 17.2501 12C17.2501 11.4419 17.1402 10.8892 16.9266 10.3736C16.713 9.85797 16.4 9.38946 16.0053 8.99481C15.7124 8.70191 15.7124 8.22704 16.0053 7.93415Z" fill="#2B2B2B"/>
<path d="M12 15C13.6569 15 15 13.6569 15 12C15 10.3431 13.6569 9 12 9C10.3431 9 9 10.3431 9 12C9 13.6569 10.3431 15 12 15Z" fill="#2B2B2B"/>
</svg>
