<svg width="24" height="24" viewBox="0 0 24 24" fill="none" xmlns="http://www.w3.org/2000/svg">
<path d="M6 8.25C6.41421 8.25 6.75 8.58579 6.75 9C6.75 9.41421 6.41421 9.75 6 9.75H5C4.58579 9.75 4.25 9.41421 4.25 9C4.25 8.58579 4.58579 8.25 5 8.25H6Z" fill="#2B2B2B"/>
<path d="M6 5.25C6.41421 5.25 6.75 5.58579 6.75 6C6.75 6.41421 6.41421 6.75 6 6.75H5C4.58579 6.75 4.25 6.41421 4.25 6C4.25 5.58579 4.58579 5.25 5 5.25H6Z" fill="#2B2B2B"/>
<path d="M13 8.25C13.4142 8.25 13.75 8.58579 13.75 9C13.75 9.41421 13.4142 9.75 13 9.75H11C10.5858 9.75 10.25 9.41421 10.25 9C10.25 8.58579 10.5858 8.25 11 8.25H13Z" fill="#2B2B2B"/>
<path d="M13 5.25C13.4142 5.25 13.75 5.58579 13.75 6C13.75 6.41421 13.4142 6.75 13 6.75H11C10.5858 6.75 10.25 6.41421 10.25 6C10.25 5.58579 10.5858 5.25 11 5.25H13Z" fill="#2B2B2B"/>
<path d="M19 8.25C19.4142 8.25 19.75 8.58579 19.75 9C19.75 9.41421 19.4142 9.75 19 9.75H18C17.5858 9.75 17.25 9.41421 17.25 9C17.25 8.58579 17.5858 8.25 18 8.25H19Z" fill="#2B2B2B"/>
<path d="M19 5.25C19.4142 5.25 19.75 5.58579 19.75 6C19.75 6.41421 19.4142 6.75 19 6.75H18C17.5858 6.75 17.25 6.41421 17.25 6C17.25 5.58579 17.5858 5.25 18 5.25H19Z" fill="#2B2B2B"/>
<path fill-rule="evenodd" clip-rule="evenodd" d="M7 2C7.59805 2 8.1335 2.26363 8.5 2.67969C8.8665 2.26363 9.40195 2 10 2H14L14.2041 2.01074C14.7191 2.06296 15.1758 2.31108 15.5 2.67871C15.8665 2.26297 16.4022 2 17 2H20C21.1046 2 22 2.89543 22 4V20L21.9893 20.2041C21.8938 21.1457 21.1457 21.8938 20.2041 21.9893L20 22H17L16.7959 21.9893C16.2805 21.937 15.8242 21.6883 15.5 21.3203C15.1336 21.7365 14.5981 22 14 22H10C9.40166 22 8.86541 21.7367 8.49902 21.3203C8.17489 21.6881 7.71923 21.937 7.2041 21.9893L7 22H4L3.7959 21.9893C2.85435 21.8938 2.1062 21.1457 2.01074 20.2041L2 20V4C2 2.89543 2.89543 2 4 2H7ZM4 3.5C3.72386 3.5 3.5 3.72386 3.5 4V20C3.5 20.2761 3.72386 20.5 4 20.5H7C7.27614 20.5 7.5 20.2761 7.5 20V4C7.5 3.72386 7.27614 3.5 7 3.5H4ZM10 3.5C9.72386 3.5 9.5 3.72386 9.5 4V20C9.5 20.2761 9.72386 20.5 10 20.5H14C14.2761 20.5 14.5 20.2761 14.5 20V4C14.5 3.72386 14.2761 3.5 14 3.5H10ZM17 3.5C16.7239 3.5 16.5 3.72386 16.5 4V20C16.5 20.2761 16.7239 20.5 17 20.5H20C20.2761 20.5 20.5 20.2761 20.5 20V4C20.5 3.72386 20.2761 3.5 20 3.5H17Z" fill="#2B2B2B"/>
</svg>
