<svg width="24" height="24" viewBox="0 0 24 24" fill="none" xmlns="http://www.w3.org/2000/svg">
<path fill-rule="evenodd" clip-rule="evenodd" d="M9.72723 2.4466C9.96543 1.732 10.6342 1.25 11.3874 1.25H12.6126C13.3658 1.25 14.0346 1.732 14.2728 2.4466L14.6808 3.6708C15.1326 3.8162 15.5718 3.99812 15.9941 4.21476L17.1482 3.63769C17.8219 3.30082 18.6356 3.43287 19.1682 3.9655L20.0346 4.83181C20.5672 5.36444 20.6992 6.17814 20.3624 6.85187L19.7853 8.00603C20.0019 8.42827 20.1838 8.86743 20.3292 9.31916L21.5534 9.72723C22.268 9.96543 22.75 10.6342 22.75 11.3874V12.6126C22.75 13.3658 22.268 14.0346 21.5534 14.2728L20.3292 14.6808C20.1838 15.1326 20.0019 15.5717 19.7853 15.9939L20.3624 17.1482C20.6993 17.8219 20.5673 18.6356 20.0346 19.1682L19.1683 20.0346C18.6357 20.5672 17.822 20.6992 17.1483 20.3624L15.994 19.7853C15.5718 20.0019 15.1326 20.1838 14.6808 20.3292L14.2728 21.5534C14.0346 22.268 13.3658 22.75 12.6126 22.75H11.3874C10.6342 22.75 9.96543 22.268 9.72723 21.5534L9.31916 20.3292C8.86743 20.1838 8.42827 20.0019 8.00603 19.7853L6.85187 20.3624C6.17814 20.6992 5.36444 20.5672 4.83181 20.0346L3.9655 19.1682C3.43287 18.6356 3.30082 17.8219 3.63769 17.1482L4.21476 15.9941C3.99812 15.5718 3.81619 15.1326 3.67078 14.6808L2.44672 14.2728C1.73212 14.0346 1.25012 13.3658 1.25012 12.6126V11.3874C1.25012 10.6342 1.73212 9.96543 2.44672 9.72723L3.67078 9.31921C3.81619 8.86742 3.99813 8.4282 4.21477 8.00591L3.63775 6.85187C3.30089 6.17814 3.43293 5.36444 3.96556 4.83181L4.83187 3.9655C5.3645 3.43287 6.1782 3.30082 6.85193 3.63769L8.00601 4.21472C8.42825 3.99811 8.86742 3.8162 9.31916 3.6708L9.72723 2.4466ZM12 16C14.2091 16 16 14.2091 16 12C16 9.79086 14.2091 8 12 8C9.79086 8 8 9.79086 8 12C8 14.2091 9.79086 16 12 16Z" fill="#2B2B2B"/>
</svg>
