<svg width="24" height="24" viewBox="0 0 24 24" fill="none" xmlns="http://www.w3.org/2000/svg">
<path fill-rule="evenodd" clip-rule="evenodd" d="M9.72723 2.4466C9.96543 1.732 10.6342 1.25 11.3874 1.25H12.6126C13.3658 1.25 14.0346 1.732 14.2728 2.4466L14.6808 3.6708C15.1326 3.8162 15.5718 3.99812 15.9941 4.21476L17.1482 3.63769C17.8219 3.30082 18.6356 3.43287 19.1682 3.9655L20.0346 4.83181C20.5672 5.36444 20.6992 6.17814 20.3624 6.85187L19.7853 8.00603C20.0019 8.42827 20.1838 8.86743 20.3292 9.31916L21.5534 9.72723C22.268 9.96543 22.75 10.6342 22.75 11.3874V12.6126C22.75 13.3658 22.268 14.0346 21.5534 14.2728L20.3292 14.6808C20.1838 15.1326 20.0019 15.5717 19.7853 15.9939L20.3624 17.1482C20.6993 17.8219 20.5673 18.6356 20.0346 19.1682L19.1683 20.0346C18.6357 20.5672 17.822 20.6992 17.1483 20.3624L15.994 19.7853C15.5718 20.0019 15.1326 20.1838 14.6808 20.3292L14.2728 21.5534C14.0346 22.268 13.3658 22.75 12.6126 22.75H11.3874C10.6342 22.75 9.96543 22.268 9.72723 21.5534L9.31916 20.3292C8.86743 20.1838 8.42827 20.0019 8.00603 19.7853L6.85187 20.3624C6.17814 20.6992 5.36444 20.5672 4.83181 20.0346L3.9655 19.1682C3.43287 18.6356 3.30082 17.8219 3.63769 17.1482L4.21476 15.9941C3.99812 15.5718 3.81619 15.1326 3.67078 14.6808L2.44672 14.2728C1.73212 14.0346 1.25012 13.3658 1.25012 12.6126V11.3874C1.25012 10.6342 1.73212 9.96543 2.44672 9.72723L3.67078 9.31921C3.81619 8.86742 3.99813 8.4282 4.21477 8.00591L3.63775 6.85187C3.30089 6.17814 3.43293 5.36444 3.96556 4.83181L4.83187 3.9655C5.3645 3.43287 6.1782 3.30082 6.85193 3.63769L8.00601 4.21472C8.42825 3.99811 8.86742 3.8162 9.31916 3.6708L9.72723 2.4466ZM2.91833 12.8488C2.81775 12.814 2.75012 12.7192 2.75012 12.6126V11.3874C2.75012 11.2798 2.81898 11.1843 2.92107 11.1503L4.21296 10.7196L4.4606 10.6555C4.72218 10.5878 4.9271 10.3846 4.99704 10.1236C5.16102 9.51156 5.40452 8.9237 5.72132 8.375C5.8564 8.14103 5.85521 7.85248 5.71819 7.61964L5.58842 7.39911L4.97939 6.18105C4.93127 6.0848 4.95013 5.96856 5.02622 5.89247L5.89253 5.02616C5.96862 4.95007 6.08487 4.93121 6.18111 4.97933L7.39907 5.58831L7.61944 5.71807C7.85231 5.8552 8.14096 5.85644 8.375 5.72132C8.9237 5.40452 9.51156 5.16102 10.1236 4.99704C10.3846 4.92709 10.5878 4.72213 10.6555 4.46051L10.7196 4.2128L11.1503 2.92094C11.1843 2.81886 11.2798 2.75 11.3874 2.75H12.6126C12.7202 2.75 12.8157 2.81886 12.8497 2.92094L13.2804 4.2128L13.3445 4.46051C13.4122 4.72213 13.6154 4.92709 13.8764 4.99704C14.4884 5.16102 15.0763 5.40452 15.625 5.72132C15.859 5.85641 16.1476 5.8552 16.3804 5.71816L16.601 5.58834L17.819 4.97933C17.9153 4.93121 18.0315 4.95007 18.1076 5.02616L18.9739 5.89247C19.05 5.96856 19.0689 6.0848 19.0207 6.18105L18.4118 7.39898L18.2819 7.6194C18.1448 7.85228 18.1436 8.14094 18.2787 8.375C18.5955 8.9237 18.839 9.51157 19.003 10.1236C19.0729 10.3846 19.2779 10.5878 19.5395 10.6555L19.7872 10.7196L21.0791 11.1503C21.1811 11.1843 21.25 11.2798 21.25 11.3874V12.6126C21.25 12.7202 21.1811 12.8157 21.0791 12.8497L19.7872 13.2804L19.5395 13.3445C19.2779 13.4122 19.0729 13.6154 19.003 13.8764C18.839 14.4884 18.5955 15.0763 18.2787 15.625C18.1435 15.8591 18.1448 16.1478 18.282 16.3807L18.4118 16.6011L19.0208 17.819C19.0689 17.9153 19.0501 18.0315 18.974 18.1076L18.1077 18.9739C18.0316 19.05 17.9153 19.0689 17.8191 19.0207L16.6011 18.4117L16.3805 18.2819C16.1476 18.1448 15.859 18.1436 15.625 18.2787C15.0763 18.5955 14.4884 18.839 13.8764 19.003C13.6154 19.0729 13.4122 19.2779 13.3445 19.5395L13.2804 19.7872L12.8497 21.0791C12.8157 21.1811 12.7202 21.25 12.6126 21.25H11.3874C11.2798 21.25 11.1843 21.1811 11.1503 21.0791L10.7196 19.7872L10.6555 19.5395C10.5878 19.2779 10.3846 19.0729 10.1236 19.003C9.51156 18.839 8.9237 18.5955 8.375 18.2787C8.15414 18.1512 7.88362 18.1446 7.65685 18.2613L6.17839 19.022C6.08267 19.0685 5.96786 19.0493 5.89247 18.9739L5.02616 18.1076C4.95007 18.0315 4.93121 17.9153 4.97933 17.819L5.58834 16.601L5.71816 16.3804C5.8552 16.1476 5.85641 15.859 5.72132 15.625C5.40452 15.0763 5.16102 14.4884 4.99704 13.8764C4.93104 13.6301 4.74439 13.4342 4.50155 13.3564L2.91833 12.8488ZM12 9.75C10.7574 9.75 9.75 10.7574 9.75 12C9.75 13.2426 10.7574 14.25 12 14.25C13.2426 14.25 14.25 13.2426 14.25 12C14.25 10.7574 13.2426 9.75 12 9.75ZM8.25 12C8.25 9.92893 9.92893 8.25 12 8.25C14.0711 8.25 15.75 9.92893 15.75 12C15.75 14.0711 14.0711 15.75 12 15.75C9.92893 15.75 8.25 14.0711 8.25 12Z" fill="#2B2B2B"/>
</svg>
