<svg width="24" height="24" viewBox="0 0 24 24" fill="none" xmlns="http://www.w3.org/2000/svg">
<path fill-rule="evenodd" clip-rule="evenodd" d="M14.1168 3.76507C14.0286 3.79879 13.9208 3.89771 13.9208 4.10631V8.5C13.9208 8.91421 13.585 9.25 13.1708 9.25C10.0154 9.25 7.43072 10.4604 5.62684 12.5025C4.166 14.1562 3.1901 16.3876 2.86727 19.0304C3.07966 18.827 3.3111 18.6114 3.55831 18.3898C4.80275 17.2745 6.51265 15.9467 8.23579 15.2981C9.46658 14.8348 10.7265 14.7034 11.6615 14.6831C12.1325 14.6728 12.5297 14.6906 12.8116 14.7112C12.9527 14.7215 13.0653 14.7326 13.1445 14.7413C13.184 14.7457 13.2153 14.7495 13.2375 14.7523L13.264 14.7558L13.2721 14.7569L13.2748 14.7572L13.2758 14.7574C13.276 14.7574 13.2766 14.7575 13.1708 15.5L13.2758 14.7574C13.6454 14.8101 13.9208 15.1267 13.9208 15.5V19.8937C13.9208 20.1023 14.0286 20.2012 14.1168 20.2349C14.1644 20.2531 14.2071 20.2532 14.2405 20.2439C14.2692 20.2359 14.3178 20.2139 14.3726 20.1393C14.3841 20.1237 14.3961 20.1086 14.4088 20.0939L21.1854 12.2283C21.2716 12.0953 21.2716 11.9047 21.1854 11.7717L14.4088 3.9061C14.3961 3.89144 14.3841 3.87629 14.3726 3.86069C14.3178 3.78607 14.2692 3.76415 14.2405 3.75615C14.2071 3.74681 14.1644 3.74691 14.1168 3.76507ZM12.4208 16.1908C12.2154 16.1816 11.9694 16.1767 11.6941 16.1827C10.8553 16.201 9.77983 16.3196 8.76421 16.7019C7.31101 17.2489 5.77091 18.4211 4.55943 19.5069C3.96222 20.0421 3.46093 20.5416 3.10935 20.9069C2.93376 21.0894 2.79605 21.2378 2.70295 21.3398C2.65642 21.3908 2.62107 21.4301 2.59776 21.4563L2.57193 21.4854L2.566 21.4921L2.56481 21.4934C2.35916 21.7287 2.02906 21.812 1.73648 21.7022C1.44384 21.5924 1.25 21.3126 1.25 21C1.25 17.1915 2.40878 13.8797 4.50264 11.5094C6.45472 9.29953 9.18341 7.95085 12.4208 7.77069V4.10631C12.4208 3.27121 12.9166 2.61775 13.5817 2.36377C14.2485 2.10914 15.0512 2.27463 15.5619 2.94646L22.346 10.8207C22.3586 10.8354 22.3707 10.8505 22.3821 10.8661C22.8726 11.5336 22.8726 12.4664 22.3821 13.1339C22.3707 13.1495 22.3586 13.1646 22.346 13.1793L15.5619 21.0535C15.0512 21.7254 14.2485 21.8909 13.5817 21.6362C12.9166 21.3822 12.4208 20.7288 12.4208 19.8937V16.1908Z" fill="#2B2B2B"/>
</svg>
