<svg width="24" height="24" viewBox="0 0 24 24" fill="none" xmlns="http://www.w3.org/2000/svg">
<path d="M5.25 10C5.25 9.58579 5.58579 9.25 6 9.25H8C8.41421 9.25 8.75 9.58579 8.75 10C8.75 10.4142 8.41421 10.75 8 10.75H6C5.58579 10.75 5.25 10.4142 5.25 10Z" fill="#2B2B2B"/>
<path fill-rule="evenodd" clip-rule="evenodd" d="M1.25 7C1.25 5.48122 2.48122 4.25 4 4.25H14C15.5188 4.25 16.75 5.48122 16.75 7V7.29268C16.8282 7.26504 16.9123 7.25 17 7.25H18.4708C19.3589 7.25 20.1923 7.67891 20.7085 8.4016L22.2378 10.5425C22.5709 11.0089 22.75 11.5678 22.75 12.1409V16C22.75 17.5188 21.5188 18.75 20 18.75H19.6465C19.32 19.9043 18.2588 20.75 17 20.75C15.7412 20.75 14.68 19.9043 14.3535 18.75H9.64648C9.32002 19.9043 8.25878 20.75 7 20.75C5.74122 20.75 4.67998 19.9043 4.35352 18.75H4C2.48122 18.75 1.25 17.5188 1.25 16V7ZM19.6465 17.25H20C20.6904 17.25 21.25 16.6904 21.25 16V12.1409C21.25 11.8804 21.1686 11.6264 21.0172 11.4144L19.4879 9.27345C19.2533 8.94496 18.8745 8.75 18.4708 8.75H17C16.9123 8.75 16.8282 8.73496 16.75 8.70732V15.2612C16.8323 15.2538 16.9157 15.25 17 15.25C18.2588 15.25 19.32 16.0957 19.6465 17.25ZM15.25 7V15.8786C14.8252 16.2294 14.5076 16.7054 14.3535 17.25H9.64648C9.32002 16.0957 8.25878 15.25 7 15.25C5.74122 15.25 4.67998 16.0957 4.35352 17.25H4C3.30964 17.25 2.75 16.6904 2.75 16V7C2.75 6.30964 3.30964 5.75 4 5.75H14C14.6904 5.75 15.25 6.30964 15.25 7ZM17 19.25C16.3096 19.25 15.75 18.6904 15.75 18C15.75 17.3096 16.3096 16.75 17 16.75C17.6904 16.75 18.25 17.3096 18.25 18C18.25 18.6904 17.6904 19.25 17 19.25ZM7 16.75C7.69036 16.75 8.25 17.3096 8.25 18C8.25 18.6904 7.69036 19.25 7 19.25C6.30964 19.25 5.75 18.6904 5.75 18C5.75 17.3096 6.30964 16.75 7 16.75Z" fill="#2B2B2B"/>
</svg>
