<svg width="24" height="24" viewBox="0 0 24 24" fill="none" xmlns="http://www.w3.org/2000/svg">
<path d="M8.03033 7.53033C8.32322 7.23744 8.32322 6.76256 8.03033 6.46967C7.73744 6.17678 7.26256 6.17678 6.96967 6.46967L5.5 7.93934L5.03033 7.46967C4.73744 7.17678 4.26256 7.17678 3.96967 7.46967C3.67678 7.76256 3.67678 8.23744 3.96967 8.53033L4.96967 9.53033C5.26256 9.82322 5.73744 9.82322 6.03033 9.53033L8.03033 7.53033Z" fill="#2B2B2B"/>
<path fill-rule="evenodd" clip-rule="evenodd" d="M6 3.25C3.37665 3.25 1.25 5.37665 1.25 8V16C1.25 17.5188 2.48122 18.75 4 18.75H4.35352C4.67998 19.9043 5.74122 20.75 7 20.75C8.25878 20.75 9.32002 19.9043 9.64648 18.75H14.3535C14.68 19.9043 15.7412 20.75 17 20.75C18.2588 20.75 19.32 19.9043 19.6465 18.75H20C21.5188 18.75 22.75 17.5188 22.75 16V12.1409C22.75 11.5678 22.5709 11.0089 22.2378 10.5425L20.7085 8.4016C20.1923 7.67891 19.3589 7.25 18.4708 7.25H17C16.9123 7.25 16.8282 7.26504 16.75 7.29268V7C16.75 5.48122 15.5188 4.25 14 4.25H9C8.97335 4.25 8.94702 4.25139 8.92109 4.2541C8.1154 3.62492 7.10148 3.25 6 3.25ZM2.75 8C2.75 6.20507 4.20507 4.75 6 4.75C7.79493 4.75 9.25 6.20507 9.25 8C9.25 9.79493 7.79493 11.25 6 11.25C4.20507 11.25 2.75 9.79493 2.75 8ZM16.75 8.70732V15.2612C16.8323 15.2538 16.9157 15.25 17 15.25C18.2588 15.25 19.32 16.0957 19.6465 17.25H20C20.6904 17.25 21.25 16.6904 21.25 16V12.1409C21.25 11.8804 21.1686 11.6264 21.0172 11.4144L19.4879 9.27345C19.2533 8.94496 18.8745 8.75 18.4708 8.75H17C16.9123 8.75 16.8282 8.73496 16.75 8.70732ZM4 17.25H4.35352C4.67998 16.0957 5.74122 15.25 7 15.25C8.25878 15.25 9.32002 16.0957 9.64648 17.25H14.3535C14.5076 16.7054 14.8252 16.2294 15.25 15.8786V7C15.25 6.30964 14.6904 5.75 14 5.75H10.1843C10.5452 6.4197 10.75 7.18593 10.75 8C10.75 10.6234 8.62335 12.75 6 12.75C4.74279 12.75 3.59965 12.2616 2.75 11.4641V16C2.75 16.6904 3.30964 17.25 4 17.25ZM7 16.75C7.69036 16.75 8.25 17.3096 8.25 18C8.25 18.6904 7.69036 19.25 7 19.25C6.30964 19.25 5.75 18.6904 5.75 18C5.75 17.3096 6.30964 16.75 7 16.75ZM17 19.25C16.3096 19.25 15.75 18.6904 15.75 18C15.75 17.3096 16.3096 16.75 17 16.75C17.6904 16.75 18.25 17.3096 18.25 18C18.25 18.6904 17.6904 19.25 17 19.25Z" fill="#2B2B2B"/>
</svg>
