<svg width="24" height="24" viewBox="0 0 24 24" fill="none" xmlns="http://www.w3.org/2000/svg">
<path fill-rule="evenodd" clip-rule="evenodd" d="M12 1.25C9.92893 1.25 8.25 2.92893 8.25 5V5.25H7C4.92893 5.25 3.25 6.92893 3.25 9V19C3.25 21.0711 4.92893 22.75 7 22.75H17C19.0711 22.75 20.75 21.0711 20.75 19V9C20.75 6.92893 19.0711 5.25 17 5.25H15.75V5C15.75 2.92893 14.0711 1.25 12 1.25ZM14.25 6.75V9C14.25 9.41421 14.5858 9.75 15 9.75C15.4142 9.75 15.75 9.41421 15.75 9V6.75H17C18.2426 6.75 19.25 7.75736 19.25 9V19C19.25 20.2426 18.2426 21.25 17 21.25H7C5.75736 21.25 4.75 20.2426 4.75 19V9C4.75 7.75736 5.75736 6.75 7 6.75H8.25V9C8.25 9.41421 8.58579 9.75 9 9.75C9.41421 9.75 9.75 9.41421 9.75 9V6.75H14.25ZM14.25 5.25V5C14.25 3.75736 13.2426 2.75 12 2.75C10.7574 2.75 9.75 3.75736 9.75 5V5.25H14.25Z" fill="#2B2B2B"/>
</svg>
