<svg width="24" height="24" viewBox="0 0 24 24" fill="none" xmlns="http://www.w3.org/2000/svg">
<path d="M12.75 2C12.75 1.58579 12.4142 1.25 12 1.25C11.5858 1.25 11.25 1.58579 11.25 2V3C11.25 3.41421 11.5858 3.75 12 3.75C12.4142 3.75 12.75 3.41421 12.75 3V2Z" fill="#2B2B2B"/>
<path d="M4.53033 4.46967C4.23744 4.17678 3.76256 4.17678 3.46967 4.46967C3.17678 4.76256 3.17678 5.23744 3.46967 5.53033L4.46967 6.53033C4.76256 6.82322 5.23744 6.82322 5.53033 6.53033C5.82322 6.23744 5.82322 5.76256 5.53033 5.46967L4.53033 4.46967Z" fill="#2B2B2B"/>
<path d="M20.5303 5.53033C20.8232 5.23744 20.8232 4.76256 20.5303 4.46967C20.2374 4.17678 19.7626 4.17678 19.4697 4.46967L18.4697 5.46967C18.1768 5.76256 18.1768 6.23744 18.4697 6.53033C18.7626 6.82322 19.2374 6.82322 19.5303 6.53033L20.5303 5.53033Z" fill="#2B2B2B"/>
<path fill-rule="evenodd" clip-rule="evenodd" d="M4.25 13V17.3535C3.09575 17.68 2.25 18.7412 2.25 20C2.25 21.5188 3.48122 22.75 5 22.75H19C20.5188 22.75 21.75 21.5188 21.75 20C21.75 18.7412 20.9043 17.68 19.75 17.3535V13C19.75 8.71979 16.2802 5.25 12 5.25C7.71979 5.25 4.25 8.71979 4.25 13ZM12 6.75C8.54822 6.75 5.75 9.54822 5.75 13V17.25H18.25V13C18.25 9.54822 15.4518 6.75 12 6.75ZM5 18.75C4.30964 18.75 3.75 19.3096 3.75 20C3.75 20.6904 4.30964 21.25 5 21.25H19C19.6904 21.25 20.25 20.6904 20.25 20C20.25 19.3096 19.6904 18.75 19 18.75H5Z" fill="#2B2B2B"/>
</svg>
