<svg width="24" height="24" viewBox="0 0 24 24" fill="none" xmlns="http://www.w3.org/2000/svg">
<path fill-rule="evenodd" clip-rule="evenodd" d="M8 1.25C5.92893 1.25 4.25 2.92893 4.25 5V19C4.25 21.0711 5.92893 22.75 8 22.75H16C18.0711 22.75 19.75 21.0711 19.75 19V5C19.75 2.92893 18.0711 1.25 16 1.25H8ZM5.75 5C5.75 3.75736 6.75736 2.75 8 2.75H9.29268C9.26504 2.82819 9.25 2.91234 9.25 3C9.25 3.41421 9.58579 3.75 10 3.75H14C14.4142 3.75 14.75 3.41421 14.75 3C14.75 2.91234 14.735 2.82819 14.7073 2.75H16C17.2426 2.75 18.25 3.75736 18.25 5V19C18.25 20.2426 17.2426 21.25 16 21.25H8C6.75736 21.25 5.75 20.2426 5.75 19V5Z" fill="#2B2B2B"/>
</svg>
