<svg width="24" height="24" viewBox="0 0 24 24" fill="none" xmlns="http://www.w3.org/2000/svg">
<path d="M8 13C7.44825 13 7 12.5514 7 11.9992C7 11.4486 7.44825 11 8 11C8.55175 11 9 11.4486 9 11.9992C9 12.5514 8.55175 13 8 13Z" fill="#2B2B2B"/>
<path d="M12 13C11.4482 13 11 12.5514 11 11.9992C11 11.4486 11.4482 11 12 11C12.5518 11 13 11.4486 13 11.9992C13 12.5514 12.5518 13 12 13Z" fill="#2B2B2B"/>
<path d="M15 11.9992C15 12.5514 15.4482 13 16 13C16.5518 13 17 12.5514 17 11.9992C17 11.4486 16.5518 11 16 11C15.4482 11 15 11.4486 15 11.9992Z" fill="#2B2B2B"/>
<path fill-rule="evenodd" clip-rule="evenodd" d="M6 2.25C3.37665 2.25 1.25 4.37665 1.25 7V23C1.25 23.3114 1.44241 23.5904 1.73346 23.701C2.02452 23.8117 2.35368 23.731 2.56056 23.4983L3.88775 22.0052C4.31473 21.5248 4.92674 21.25 5.56942 21.25H18C20.6234 21.25 22.75 19.1234 22.75 16.5V7C22.75 4.37665 20.6234 2.25 18 2.25H6ZM2.75 7C2.75 5.20507 4.20507 3.75 6 3.75H18C19.7949 3.75 21.25 5.20507 21.25 7V16.5C21.25 18.2949 19.7949 19.75 18 19.75H5.56942C4.49828 19.75 3.47826 20.2081 2.76664 21.0086L2.75 21.0274V7Z" fill="#2B2B2B"/>
</svg>
