<svg width="24" height="24" viewBox="0 0 24 24" fill="none" xmlns="http://www.w3.org/2000/svg">
<path fill-rule="evenodd" clip-rule="evenodd" d="M6.25 5C6.25 4.58579 6.58579 4.25 7 4.25H14C15.5188 4.25 16.75 5.48122 16.75 7V7.29268C16.8282 7.26504 16.9123 7.25 17 7.25H18.4708C19.3589 7.25 20.1923 7.67891 20.7085 8.4016L22.2378 10.5425C22.5709 11.0089 22.75 11.5678 22.75 12.1409V16C22.75 17.5188 21.5188 18.75 20 18.75H19.6465C19.32 19.9043 18.2588 20.75 17 20.75C15.7412 20.75 14.68 19.9043 14.3535 18.75H9.64648C9.32002 19.9043 8.25878 20.75 7 20.75C5.74122 20.75 4.67998 19.9043 4.35352 18.75H2C1.58579 18.75 1.25 18.4142 1.25 18C1.25 17.5858 1.58579 17.25 2 17.25H4.35352C4.67998 16.0957 5.74122 15.25 7 15.25C8.25878 15.25 9.32002 16.0957 9.64648 17.25H14.3535C14.5076 16.7054 14.8252 16.2294 15.25 15.8786V7C15.25 6.30964 14.6904 5.75 14 5.75H7C6.58579 5.75 6.25 5.41421 6.25 5ZM19.6465 17.25H20C20.6904 17.25 21.25 16.6904 21.25 16V12.1409C21.25 11.8804 21.1686 11.6264 21.0172 11.4144L19.4879 9.27345C19.2533 8.94496 18.8745 8.75 18.4708 8.75H17C16.9123 8.75 16.8282 8.73496 16.75 8.70732V15.2612C16.8323 15.2538 16.9157 15.25 17 15.25C18.2588 15.25 19.32 16.0957 19.6465 17.25ZM17 19.25C16.3096 19.25 15.75 18.6904 15.75 18C15.75 17.3096 16.3096 16.75 17 16.75C17.6904 16.75 18.25 17.3096 18.25 18C18.25 18.6904 17.6904 19.25 17 19.25ZM7 16.75C7.69036 16.75 8.25 17.3096 8.25 18C8.25 18.6904 7.69036 19.25 7 19.25C6.30964 19.25 5.75 18.6904 5.75 18C5.75 17.3096 6.30964 16.75 7 16.75Z" fill="#2B2B2B"/>
<path d="M2 7.25C1.58579 7.25 1.25 7.58579 1.25 8C1.25 8.41421 1.58579 8.75 2 8.75H8C8.41421 8.75 8.75 8.41421 8.75 8C8.75 7.58579 8.41421 7.25 8 7.25H2Z" fill="#2B2B2B"/>
<path d="M4 10.25C3.58579 10.25 3.25 10.5858 3.25 11C3.25 11.4142 3.58579 11.75 4 11.75H10C10.4142 11.75 10.75 11.4142 10.75 11C10.75 10.5858 10.4142 10.25 10 10.25H4Z" fill="#2B2B2B"/>
</svg>
