<svg width="24" height="24" viewBox="0 0 24 24" fill="none" xmlns="http://www.w3.org/2000/svg">
<path d="M17.5411 8.4806C17.8279 8.77941 17.8182 9.25419 17.5194 9.54104L11.2694 15.541C10.9979 15.8017 10.5754 15.8207 10.2815 15.5857L6.53151 12.5857C6.20806 12.3269 6.15562 11.8549 6.41438 11.5315C6.67313 11.208 7.1451 11.1556 7.46855 11.4143L10.705 14.0035L16.4806 8.45896C16.7794 8.1721 17.2542 8.18179 17.5411 8.4806Z" fill="#2B2B2B"/>
<path fill-rule="evenodd" clip-rule="evenodd" d="M7 2.25C4.37665 2.25 2.25 4.37665 2.25 7V17C2.25 19.6234 4.37665 21.75 7 21.75H17C19.6234 21.75 21.75 19.6234 21.75 17V7C21.75 4.37665 19.6234 2.25 17 2.25H7ZM3.75 7C3.75 5.20507 5.20507 3.75 7 3.75H17C18.7949 3.75 20.25 5.20507 20.25 7V17C20.25 18.7949 18.7949 20.25 17 20.25H7C5.20507 20.25 3.75 18.7949 3.75 17V7Z" fill="#2B2B2B"/>
</svg>
