<svg width="24" height="24" viewBox="0 0 24 24" fill="none" xmlns="http://www.w3.org/2000/svg">
<path fill-rule="evenodd" clip-rule="evenodd" d="M10.448 2.24817C11.0759 0.917281 12.9241 0.917275 13.5519 2.24817L15.8873 7.19899C15.9273 7.28371 15.9955 7.32596 16.0553 7.33505L21.2775 8.12895C22.7266 8.34925 23.2141 10.1408 22.2402 11.134L18.4613 14.9877C18.4033 15.0469 18.3693 15.1425 18.3858 15.2434L19.2779 20.6849C19.5026 22.0559 18.0946 23.2704 16.7628 22.5378L12.0918 19.9687C12.0331 19.9364 11.9668 19.9364 11.9081 19.9687L7.23716 22.5378C5.90533 23.2704 4.49731 22.0559 4.72207 20.6849L5.61413 15.2434C5.63067 15.1425 5.59667 15.0469 5.53857 14.9877L1.75972 11.134C0.785844 10.1409 1.27332 8.34925 2.72242 8.12895L7.94466 7.33505C8.00446 7.32596 8.07262 7.28371 8.11259 7.19899L10.448 2.24817ZM12 2.75C11.9312 2.75 11.8546 2.78224 11.8047 2.88813L9.46922 7.83896C9.22537 8.35587 8.74492 8.73063 8.17011 8.81801L2.94786 9.61191C2.87041 9.62369 2.79921 9.67628 2.76496 9.78655C2.73037 9.89792 2.75522 10.0068 2.83073 10.0838L6.60958 13.9375C7.0107 14.3465 7.18624 14.9257 7.09437 15.4861L6.20231 20.9276C6.1812 21.0563 6.2324 21.1519 6.3036 21.206C6.33982 21.2335 6.37645 21.2463 6.40703 21.2493C6.434 21.2519 6.46872 21.2486 6.51426 21.2235L11.1852 18.6544C11.6941 18.3745 12.3059 18.3745 12.8148 18.6544L17.4857 21.2235C17.5312 21.2486 17.5659 21.2519 17.5929 21.2493C17.6235 21.2463 17.6601 21.2335 17.6963 21.206C17.7675 21.1519 17.8187 21.0563 17.7976 20.9276L16.9056 15.4861C16.8137 14.9257 16.9892 14.3466 17.3903 13.9375L21.1692 10.0838C21.2447 10.0068 21.2696 9.89792 21.235 9.78655C21.2007 9.67628 21.1295 9.62369 21.0521 9.61191L15.8298 8.81801C15.255 8.73063 14.7746 8.35587 14.5307 7.83896L12.1952 2.88813C12.1453 2.78223 12.0688 2.75 12 2.75Z" fill="#2B2B2B"/>
</svg>
