<svg width="24" height="24" viewBox="0 0 24 24" fill="none" xmlns="http://www.w3.org/2000/svg">
<path fill-rule="evenodd" clip-rule="evenodd" d="M5 3.25C3.48122 3.25 2.25 4.48122 2.25 6V9C2.25 9.98454 2.62941 10.8805 3.25 11.5495V18C3.25 19.5188 4.48122 20.75 6 20.75H18C19.5188 20.75 20.75 19.5188 20.75 18V11.5495C21.3706 10.8805 21.75 9.98454 21.75 9V6C21.75 4.48122 20.5188 3.25 19 3.25H5ZM15.75 4.75V9C15.75 10.2426 16.7574 11.25 18 11.25C19.2426 11.25 20.25 10.2426 20.25 9V6C20.25 5.30964 19.6904 4.75 19 4.75H15.75ZM14.25 9V4.75H9.75V9C9.75 10.2426 10.7574 11.25 12 11.25C13.2426 11.25 14.25 10.2426 14.25 9ZM15 11.2504C15.6842 12.161 16.7733 12.75 18 12.75C18.4383 12.75 18.859 12.6748 19.25 12.5366V18C19.25 18.6904 18.6904 19.25 18 19.25H6C5.30964 19.25 4.75 18.6904 4.75 18V12.5366C5.14097 12.6748 5.56171 12.75 6 12.75C7.2267 12.75 8.31583 12.161 9 11.2504C9.68417 12.161 10.7733 12.75 12 12.75C13.2267 12.75 14.3158 12.161 15 11.2504ZM8.25 4.75V9C8.25 10.2426 7.24264 11.25 6 11.25C4.75736 11.25 3.75 10.2426 3.75 9V6C3.75 5.30964 4.30964 4.75 5 4.75H8.25Z" fill="#2B2B2B"/>
</svg>
