<svg width="24" height="24" viewBox="0 0 24 24" fill="none" xmlns="http://www.w3.org/2000/svg">
<path fill-rule="evenodd" clip-rule="evenodd" d="M5 3.25C3.48122 3.25 2.25 4.48122 2.25 6V9C2.25 9.98454 2.62941 10.8805 3.25 11.5495V18C3.25 19.5188 4.48122 20.75 6 20.75H18C19.5188 20.75 20.75 19.5188 20.75 18V11.5495C21.3706 10.8805 21.75 9.98454 21.75 9V6C21.75 4.48122 20.5188 3.25 19 3.25H5ZM14.25 4.75V9C14.25 10.2426 13.2426 11.25 12 11.25C10.7574 11.25 9.75 10.2426 9.75 9V4.75H14.25ZM15.75 9V4.75H19C19.6904 4.75 20.25 5.30964 20.25 6V9C20.25 10.2426 19.2426 11.25 18 11.25C16.7574 11.25 15.75 10.2426 15.75 9ZM8.25 4.75H5C4.30964 4.75 3.75 5.30964 3.75 6V9C3.75 10.2426 4.75736 11.25 6 11.25C7.24264 11.25 8.25 10.2426 8.25 9V4.75Z" fill="#2B2B2B"/>
</svg>
