<svg width="24" height="24" viewBox="0 0 24 24" fill="none" xmlns="http://www.w3.org/2000/svg">
<path d="M8.25 10C8.25 9.58579 8.58579 9.25 9 9.25H15C15.4142 9.25 15.75 9.58579 15.75 10C15.75 10.4142 15.4142 10.75 15 10.75H9C8.58579 10.75 8.25 10.4142 8.25 10Z" fill="#2B2B2B"/>
<path d="M9 13.25C8.58579 13.25 8.25 13.5858 8.25 14C8.25 14.4142 8.58579 14.75 9 14.75H13C13.4142 14.75 13.75 14.4142 13.75 14C13.75 13.5858 13.4142 13.25 13 13.25H9Z" fill="#2B2B2B"/>
<path fill-rule="evenodd" clip-rule="evenodd" d="M1.25412 11.6995C1.41348 5.90115 6.16345 1.25 12 1.25C17.9371 1.25 22.75 6.06294 22.75 12C22.75 17.8366 18.0988 22.5865 12.3005 22.7459L12.2902 22.7462L12 22.7501L6 22.75C3.37665 22.75 1.25 20.6234 1.25 18V11.9897L1.25412 11.6995ZM2.7537 11.7356L2.75 12.0051V18C2.75 19.7949 4.20507 21.25 6 21.25H11.9949L12.2643 21.2463C17.2505 21.1066 21.25 17.0202 21.25 12C21.25 6.89137 17.1086 2.75 12 2.75C6.97977 2.75 2.89342 6.74948 2.7537 11.7356Z" fill="#2B2B2B"/>
</svg>
