<svg width="24" height="24" viewBox="0 0 24 24" fill="none" xmlns="http://www.w3.org/2000/svg">
<path d="M15.75 14C15.75 13.5858 15.4142 13.25 15 13.25C14.5858 13.25 14.25 13.5858 14.25 14V15C14.25 15.4142 14.5858 15.75 15 15.75C15.4142 15.75 15.75 15.4142 15.75 15V14Z" fill="#2B2B2B"/>
<path d="M15 8.25C15.4142 8.25 15.75 8.58579 15.75 9V10C15.75 10.4142 15.4142 10.75 15 10.75C14.5858 10.75 14.25 10.4142 14.25 10V9C14.25 8.58579 14.5858 8.25 15 8.25Z" fill="#2B2B2B"/>
<path fill-rule="evenodd" clip-rule="evenodd" d="M1.25 7C1.25 4.92893 2.92893 3.25 5 3.25H19C21.0711 3.25 22.75 4.92893 22.75 7V8.65463C22.75 9.20323 22.4851 9.71807 22.0386 10.0369C20.6917 10.9991 20.6917 13.0009 22.0386 13.9631C22.4851 14.2819 22.75 14.7968 22.75 15.3454V17C22.75 19.0711 21.0711 20.75 19 20.75H5C2.92893 20.75 1.25 19.0711 1.25 17V15.3454C1.25 14.7968 1.51494 14.2819 1.96136 13.9631C3.30833 13.0009 3.30833 10.9991 1.96136 10.0369C1.51494 9.71807 1.25 9.20323 1.25 8.65463V7ZM15.75 19.25V18C15.75 17.5858 15.4142 17.25 15 17.25C14.5858 17.25 14.25 17.5858 14.25 18V19.25H5C3.75736 19.25 2.75 18.2426 2.75 17V15.3454C2.75 15.2812 2.78099 15.221 2.83322 15.1837C5.01771 13.6233 5.01771 10.3767 2.83322 8.81634C2.78099 8.77903 2.75 8.7188 2.75 8.65463V7C2.75 5.75736 3.75736 4.75 5 4.75H14.25V6C14.25 6.41421 14.5858 6.75 15 6.75C15.4142 6.75 15.75 6.41421 15.75 6V4.75H19C20.2426 4.75 21.25 5.75736 21.25 7V8.65463C21.25 8.7188 21.219 8.77903 21.1668 8.81634C18.9823 10.3767 18.9823 13.6233 21.1668 15.1837C21.219 15.221 21.25 15.2812 21.25 15.3454V17C21.25 18.2426 20.2426 19.25 19 19.25H15.75Z" fill="#2B2B2B"/>
</svg>
