<svg width="24" height="24" viewBox="0 0 24 24" fill="none" xmlns="http://www.w3.org/2000/svg">
<path d="M12 22L10.9941 19.0118H3.98225C3.42998 19.0118 2.96174 18.8146 2.57751 18.4201C2.19251 18.0256 2 17.5523 2 17V4.01183C2 3.45957 2.19251 2.98619 2.57751 2.59172C2.96174 2.19724 3.42998 2 3.98225 2H9.98816L10.8757 4.98817H20.0177C20.5897 4.98817 21.0631 5.17554 21.4379 5.5503C21.8126 5.92505 22 6.40828 22 7V19.9882C22 20.5404 21.8126 21.0138 21.4379 21.4083C21.0631 21.8028 20.5897 22 20.0177 22H12ZM7.14793 14.6035C8.31164 14.6035 9.25838 14.2335 9.98816 13.4935C10.7179 12.7542 11.0828 11.783 11.0828 10.5799V10.1953C11.0828 10.0966 11.0631 9.99803 11.0237 9.89941H7.05917V11.4379H9.30769C9.16962 11.9112 8.91321 12.2809 8.53846 12.5467C8.16371 12.8134 7.71006 12.9467 7.17751 12.9467C6.52663 12.9467 5.96962 12.7053 5.50651 12.2225C5.0426 11.7389 4.81065 11.1617 4.81065 10.4911C4.81065 9.82051 5.0426 9.24852 5.50651 8.77515C5.96962 8.30177 6.52663 8.06509 7.17751 8.06509C7.47337 8.06509 7.75424 8.11913 8.02012 8.22722C8.28678 8.33609 8.5286 8.49901 8.74556 8.71598L9.95858 7.56213C9.60355 7.2071 9.18461 6.92584 8.70177 6.71834C8.21815 6.51164 7.7002 6.40828 7.14793 6.40828C6.02367 6.40828 5.06706 6.80749 4.27811 7.60592C3.48915 8.40513 3.09467 9.36686 3.09467 10.4911C3.09467 11.6351 3.48915 12.6067 4.27811 13.4059C5.06706 14.2043 6.02367 14.6035 7.14793 14.6035ZM13.8343 15.1065L14.3964 14.574C14.1795 14.2781 13.9677 14.002 13.7609 13.7456C13.5535 13.4892 13.3609 13.213 13.1834 12.9172L13.8343 15.1065ZM15.1065 13.8047C15.5799 13.2722 15.9349 12.7542 16.1716 12.2509C16.4083 11.7483 16.5759 11.3491 16.6746 11.0533H12.6805L12.9763 12.1183H13.9527C14.0907 12.3748 14.2533 12.6458 14.4402 12.9314C14.628 13.2177 14.8501 13.5089 15.1065 13.8047ZM13.0059 21.0237H20.0177C20.3136 21.0237 20.5554 20.925 20.7432 20.7278C20.9302 20.5306 21.0237 20.2939 21.0237 20.0177V7C21.0237 6.70414 20.9302 6.46233 20.7432 6.27456C20.5554 6.08757 20.3136 5.99408 20.0177 5.99408H11.1716L12.355 10.0473H14.3373V9.01183H15.3432V10.0473H19.0118V11.0533H17.7396C17.5621 11.6844 17.3105 12.3006 16.9846 12.9018C16.6596 13.5037 16.2702 14.071 15.8166 14.6035L18.5385 17.2959L17.8284 18.0059L15.1065 15.3136L14.1893 16.2308L15.0178 19.0118L13.0059 21.0237Z" fill="#2B2B2B"/>
</svg>
