<svg width="24" height="24" viewBox="0 0 24 24" fill="none" xmlns="http://www.w3.org/2000/svg">
<path d="M9.75 3C9.75 2.58579 9.41421 2.25 9 2.25C8.58579 2.25 8.25 2.58579 8.25 3V4.25H2C1.58579 4.25 1.25 4.58579 1.25 5C1.25 5.41421 1.58579 5.75 2 5.75H12.5427L8.76703 11.0359L5.61279 6.56743C5.37392 6.22903 4.90595 6.14834 4.56755 6.38721C4.22915 6.62608 4.14847 7.09405 4.38734 7.43245L7.84357 12.3288L3.38976 18.5641C3.149 18.9012 3.22707 19.3696 3.56413 19.6104C3.90119 19.8511 4.3696 19.773 4.61036 19.436L8.7598 13.6268L10.3873 15.9325C10.6262 16.2709 11.0942 16.3515 11.4326 16.1127C11.771 15.8738 11.8517 15.4058 11.6128 15.0674L9.68326 12.3339L14.3861 5.75H16C16.4142 5.75 16.75 5.41421 16.75 5C16.75 4.58579 16.4142 4.25 16 4.25H9.75V3Z" fill="#2B2B2B"/>
<path fill-rule="evenodd" clip-rule="evenodd" d="M16.5 7.25C16.8012 7.25 17.0733 7.43029 17.1907 7.70777L22.6907 20.7078C22.8521 21.0892 22.6737 21.5293 22.2922 21.6907C21.9107 21.8521 21.4706 21.6737 21.3092 21.2922L19.8106 17.75H13.1893L11.6907 21.2922C11.5293 21.6737 11.0892 21.8521 10.7077 21.6907C10.3262 21.5293 10.1478 21.0892 10.3092 20.7078L15.8092 7.70777C15.9266 7.43029 16.1987 7.25 16.5 7.25ZM13.8239 16.25H19.176L16.5 9.92485L13.8239 16.25Z" fill="#2B2B2B"/>
</svg>
