<svg width="24" height="24" viewBox="0 0 24 24" fill="none" xmlns="http://www.w3.org/2000/svg">
<path fill-rule="evenodd" clip-rule="evenodd" d="M19.3085 4.71231C17.844 3.24784 15.4697 3.24784 14.0052 4.71231L10.8232 7.89429C10.5303 8.18718 10.0555 8.18718 9.76257 7.89429C9.46968 7.6014 9.46968 7.12652 9.76257 6.83363L12.9446 3.65165C14.9948 1.6014 18.3189 1.6014 20.3692 3.65165C22.4194 5.7019 22.4194 9.02602 20.3692 11.0763L17.1872 14.2583C16.8943 14.5511 16.4194 14.5511 16.1265 14.2583C15.8336 13.9654 15.8336 13.4905 16.1265 13.1976L19.3085 10.0156C20.773 8.55114 20.773 6.17678 19.3085 4.71231ZM9 2.25C9.41421 2.25 9.75 2.58579 9.75 3V5C9.75 5.41421 9.41421 5.75 9 5.75C8.58579 5.75 8.25 5.41421 8.25 5V3C8.25 2.58579 8.58579 2.25 9 2.25ZM3.46961 3.46967C3.76251 3.17678 4.23738 3.17678 4.53027 3.46967L7.3587 6.2981C7.65159 6.59099 7.65159 7.06587 7.3587 7.35876C7.06581 7.65165 6.59093 7.65165 6.29804 7.35876L3.46961 4.53033C3.17672 4.23744 3.17672 3.76257 3.46961 3.46967ZM2.25 9C2.25 8.58579 2.58579 8.25 3 8.25H5C5.41421 8.25 5.75 8.58579 5.75 9C5.75 9.41421 5.41421 9.75 5 9.75H3C2.58579 9.75 2.25 9.41421 2.25 9ZM7.89434 9.76256C8.18724 10.0555 8.18724 10.5303 7.89434 10.8232L4.71236 14.0052C3.2479 15.4697 3.2479 17.844 4.71236 19.3085C6.17683 20.773 8.5512 20.773 10.0157 19.3085L13.1976 16.1265C13.4905 15.8336 13.9654 15.8336 14.2583 16.1265C14.5512 16.4194 14.5512 16.8943 14.2583 17.1872L11.0763 20.3692C9.02607 22.4194 5.70196 22.4194 3.6517 20.3692C1.60145 18.3189 1.60145 14.9948 3.6517 12.9445L6.83368 9.76256C7.12658 9.46967 7.60145 9.46967 7.89434 9.76256ZM18.25 15C18.25 14.5858 18.5858 14.25 19 14.25H21C21.4142 14.25 21.75 14.5858 21.75 15C21.75 15.4142 21.4142 15.75 21 15.75H19C18.5858 15.75 18.25 15.4142 18.25 15ZM16.4696 16.4697C16.7625 16.1768 17.2374 16.1768 17.5303 16.4697L20.3587 19.2981C20.6516 19.591 20.6516 20.0659 20.3587 20.3588C20.0658 20.6517 19.5909 20.6517 19.298 20.3588L16.4696 17.5303C16.1767 17.2374 16.1767 16.7626 16.4696 16.4697ZM15 18.25C15.4142 18.25 15.75 18.5858 15.75 19V21C15.75 21.4142 15.4142 21.75 15 21.75C14.5858 21.75 14.25 21.4142 14.25 21V19C14.25 18.5858 14.5858 18.25 15 18.25Z" fill="#2B2B2B"/>
</svg>
