<svg width="24" height="24" viewBox="0 0 24 24" fill="none" xmlns="http://www.w3.org/2000/svg">
<path d="M10 16.25C9.58579 16.25 9.25 16.5858 9.25 17C9.25 17.4142 9.58579 17.75 10 17.75H14C14.4142 17.75 14.75 17.4142 14.75 17C14.75 16.5858 14.4142 16.25 14 16.25H10Z" fill="#2B2B2B"/>
<path fill-rule="evenodd" clip-rule="evenodd" d="M10.1822 1.61157C11.1483 1.21143 12.2194 1.14122 13.2294 1.41185C14.2394 1.68249 15.1319 2.27882 15.7684 3.10838C16.405 3.93794 16.75 4.95436 16.75 6V8.58275C18.5073 9.27954 19.75 10.9946 19.75 13V17C19.75 19.6234 17.6234 21.75 15 21.75H9C6.37665 21.75 4.25 19.6234 4.25 17V13C4.25 10.3766 6.37665 8.25 9 8.25H15C15.0839 8.25 15.1672 8.25217 15.25 8.25647V6C15.25 5.28457 15.0139 4.58912 14.5784 4.02153C14.1429 3.45393 13.5322 3.04591 12.8412 2.86074C12.1501 2.67557 11.4172 2.72361 10.7563 2.99739C10.0953 3.27118 9.54313 3.75542 9.18541 4.375C8.9783 4.73372 8.51961 4.85663 8.16089 4.64952C7.80217 4.44241 7.67927 3.98372 7.88637 3.625C8.40919 2.71945 9.2162 2.01172 10.1822 1.61157ZM9 9.75C7.20507 9.75 5.75 11.2051 5.75 13V17C5.75 18.7949 7.20507 20.25 9 20.25H15C16.7949 20.25 18.25 18.7949 18.25 17V13C18.25 11.2051 16.7949 9.75 15 9.75H9Z" fill="#2B2B2B"/>
</svg>
