<svg width="24" height="24" viewBox="0 0 24 24" fill="none" xmlns="http://www.w3.org/2000/svg">
<path d="M17.4847 5.66301C17.8008 5.93073 17.84 6.40399 17.5723 6.72005C17.3045 7.03612 16.8313 7.0753 16.5152 6.80758L12.75 3.6182V14C12.75 14.4142 12.4142 14.75 12 14.75C11.5858 14.75 11.25 14.4142 11.25 14V3.6182L7.48474 6.80758C7.16868 7.0753 6.69542 7.03612 6.4277 6.72005C6.15998 6.40399 6.19916 5.93073 6.51523 5.66301L11.5152 1.42772C11.795 1.19076 12.205 1.19076 12.4847 1.42772L17.4847 5.66301Z" fill="#2B2B2B"/>
<path d="M3.75 15C3.75 14.5858 3.41421 14.25 3 14.25C2.58579 14.25 2.25 14.5858 2.25 15V18.6C2.25 20.2934 3.54829 21.75 5.25 21.75H18.75C20.4517 21.75 21.75 20.2934 21.75 18.6V15C21.75 14.5858 21.4142 14.25 21 14.25C20.5858 14.25 20.25 14.5858 20.25 15V18.6C20.25 19.5576 19.5336 20.25 18.75 20.25H5.25C4.46643 20.25 3.75 19.5576 3.75 18.6V15Z" fill="#2B2B2B"/>
</svg>
