<svg width="24" height="24" viewBox="0 0 24 24" fill="none" xmlns="http://www.w3.org/2000/svg">
<path fill-rule="evenodd" clip-rule="evenodd" d="M3.25 6C3.25 4.48122 4.48122 3.25 6 3.25H8C9.51878 3.25 10.75 4.48122 10.75 6V8C10.75 9.51878 9.51878 10.75 8 10.75H6C4.48122 10.75 3.25 9.51878 3.25 8V6ZM6 4.75C5.30964 4.75 4.75 5.30964 4.75 6V8C4.75 8.69036 5.30964 9.25 6 9.25H8C8.69036 9.25 9.25 8.69036 9.25 8V6C9.25 5.30964 8.69036 4.75 8 4.75H6ZM13.25 6C13.25 4.48122 14.4812 3.25 16 3.25H18C19.5188 3.25 20.75 4.48122 20.75 6V8C20.75 9.51878 19.5188 10.75 18 10.75H16C14.4812 10.75 13.25 9.51878 13.25 8V6ZM16 4.75C15.3096 4.75 14.75 5.30964 14.75 6V8C14.75 8.69036 15.3096 9.25 16 9.25H18C18.6904 9.25 19.25 8.69036 19.25 8V6C19.25 5.30964 18.6904 4.75 18 4.75H16ZM3.25 16C3.25 14.4812 4.48122 13.25 6 13.25H8C9.51878 13.25 10.75 14.4812 10.75 16V18C10.75 19.5188 9.51878 20.75 8 20.75H6C4.48122 20.75 3.25 19.5188 3.25 18V16ZM6 14.75C5.30964 14.75 4.75 15.3096 4.75 16V18C4.75 18.6904 5.30964 19.25 6 19.25H8C8.69036 19.25 9.25 18.6904 9.25 18V16C9.25 15.3096 8.69036 14.75 8 14.75H6ZM13.25 15C13.25 14.5858 13.5858 14.25 14 14.25H20C20.4142 14.25 20.75 14.5858 20.75 15C20.75 15.4142 20.4142 15.75 20 15.75H14C13.5858 15.75 13.25 15.4142 13.25 15ZM13.25 19C13.25 18.5858 13.5858 18.25 14 18.25H20C20.4142 18.25 20.75 18.5858 20.75 19C20.75 19.4142 20.4142 19.75 20 19.75H14C13.5858 19.75 13.25 19.4142 13.25 19Z" fill="#2B2B2B"/>
</svg>
