<svg width="374" height="40" viewBox="0 0 374 40" fill="none" xmlns="http://www.w3.org/2000/svg">
<path d="M262.454 5.961C268.175 5.96101 272.679 8.63188 273.966 13.0377C274.081 13.3574 274.15 13.7459 274.15 14.2253C274.15 15.5492 273.208 16.4168 271.876 16.417C270.635 16.4168 269.876 15.8459 269.347 14.659C268.221 11.6228 265.693 10.3211 262.384 10.3211C258.501 10.3215 255.629 12.1939 255.629 15.2071C255.629 17.6039 257.353 19.2023 261.649 20.1155L265.257 20.8683C272.22 22.3295 275.069 25.0923 275.069 29.8865C275.069 36.0961 270.152 40 262.408 40C255.974 39.9998 251.562 37.2376 250.275 33.4025C250.114 32.9005 249.999 32.3523 249.999 31.8046C249.999 30.3209 250.919 29.362 252.32 29.3616C253.492 29.3616 254.25 29.887 254.755 31.1196C255.79 34.2012 258.8 35.6396 262.637 35.6399C266.842 35.6399 269.853 33.4932 269.853 30.5482C269.853 27.9914 268.106 26.393 263.671 25.4342L260.041 24.6813C253.423 23.2886 250.413 20.2291 250.413 15.4807C250.413 9.84206 255.4 5.96128 262.454 5.961Z" fill="#888888"/>
<path fill-rule="evenodd" clip-rule="evenodd" d="M362.533 15.0015C369.426 15.0018 374 19.7274 374 27.4435C374 35.1825 369.449 39.9084 362.533 39.9088C355.617 39.9087 351.067 35.1827 351.067 27.4435C351.067 19.7272 355.64 15.0015 362.533 15.0015ZM362.533 19.0647C358.65 19.0648 356.122 22.1243 356.122 27.4435C356.122 32.7856 358.65 35.8445 362.533 35.8446C366.439 35.8442 368.944 32.7853 368.944 27.4435C368.944 22.1246 366.416 19.0651 362.533 19.0647Z" fill="#888888"/>
<path d="M310.574 15.0015C312.044 15.0015 313.056 15.9831 313.056 17.6269V37.3746C313.056 38.9041 312.113 39.8855 310.689 39.8855C309.265 39.8853 308.299 38.9042 308.299 37.3979V35.3886H308.184C306.851 38.2649 304.392 39.8855 300.693 39.8855C295.431 39.8853 292.213 36.4836 292.213 30.9819V17.6269C292.213 15.9833 293.225 15.0017 294.696 15.0015C296.143 15.0017 297.177 15.9833 297.177 17.6269V30.0233C297.177 33.6758 298.924 35.6396 302.347 35.6399C305.932 35.6399 308.092 33.1736 308.092 29.4295V17.6269C308.092 15.9834 309.126 15.0018 310.574 15.0015Z" fill="#888888"/>
<path fill-rule="evenodd" clip-rule="evenodd" d="M336.243 6.07548C337.691 6.07572 338.725 7.05688 338.725 8.6776V37.4202C338.725 38.9723 337.714 39.8851 336.267 39.8855C334.865 39.8855 333.738 38.9726 333.738 37.4202V35.1829H333.67C332.429 37.9908 329.878 39.863 326.11 39.8632C319.997 39.8632 315.953 35.0229 315.953 27.4435C315.953 19.8641 319.997 15.0471 326.064 15.0471C329.533 15.0472 332.291 16.7824 333.647 19.4305H333.738V8.6776C333.738 7.0567 334.773 6.0755 336.243 6.07548ZM327.419 19.2025C323.49 19.2026 321.032 22.3983 321.032 27.4435C321.032 32.5116 323.49 35.6853 327.419 35.6855C331.233 35.6852 333.784 32.4658 333.784 27.4435C333.784 22.4669 331.233 19.2028 327.419 19.2025Z" fill="#888888"/>
<path d="M345.527 15.0015C347.02 15.0015 348.009 16.0288 348.009 17.6269V37.2834C348.009 38.8586 347.02 39.8855 345.527 39.8855C344.033 39.8852 343.045 38.8583 343.045 37.2834V17.6269C343.045 16.029 344.033 15.0018 345.527 15.0015Z" fill="#888888"/>
<path fill-rule="evenodd" clip-rule="evenodd" d="M131.038 0C143.268 9.78449e-05 151.932 8.27774 151.932 19.87C151.932 31.4624 143.236 39.7399 131.038 39.74C118.809 39.74 110.082 31.4312 110.082 19.87C110.083 8.30905 118.809 0 131.038 0ZM131.038 9.69826C125.249 9.69826 120.994 13.9819 120.994 19.87C120.994 25.7585 125.248 30.0437 131.038 30.0437L131.575 30.031C137.085 29.7762 141.019 25.6053 141.019 19.871C141.019 13.9521 136.828 9.69837 131.038 9.69826Z" fill="#222222"/>
<path d="M282.103 9.24808C283.596 9.24831 284.584 10.2986 284.584 11.8735V15.4351H287.411C288.697 15.4352 289.479 16.189 289.479 17.3989C289.479 18.6086 288.697 19.3392 287.411 19.3393H284.584V32.6031C284.584 34.5208 285.251 35.3884 287.043 35.5254L287.434 35.5487C288.858 35.6857 289.571 36.256 289.571 37.4202C289.571 38.9041 288.421 39.6575 285.986 39.6575H285.734C281.667 39.6575 279.598 37.6715 279.598 33.6994V19.3393H277.852C276.565 19.3393 275.784 18.6087 275.784 17.3989C275.784 16.166 276.565 15.4351 277.852 15.4351H279.598V11.8735C279.598 10.2984 280.586 9.24808 282.103 9.24808Z" fill="#888888"/>
<path fill-rule="evenodd" clip-rule="evenodd" d="M16.4892 0.956631C24.6902 0.956878 30.6346 6.43616 30.6346 14.3436C30.6345 18.9854 28.3546 22.7894 24.5965 25.0267L30.95 36.5984C31.4902 37.5831 30.7736 38.7832 29.6454 38.7834H21.3466C20.7966 38.7833 20.2918 38.4817 20.0341 37.9984L14.2802 27.2097H10.4804V37.3057C10.4803 38.1214 9.81535 38.783 8.99507 38.7834H1.48632C0.665796 38.7833 0.00010074 38.1216 0 37.3057V2.43427C0 1.61829 0.665734 0.956687 1.48632 0.956631H16.4892ZM10.4804 18.4302H15.2675C18.1972 18.4302 19.8846 16.6763 19.8847 14.3116C19.8846 11.947 18.1972 10.2164 15.2675 10.2164H10.4804V18.4302Z" fill="#222222"/>
<path d="M56.6208 0.956631C57.4414 0.956718 58.1071 1.61831 58.1071 2.43427V8.48647C58.1069 9.30228 57.4413 9.96402 56.6208 9.9641H44.2V15.5341H55.2077C56.0284 15.5341 56.694 16.1957 56.694 17.0117V22.6041C56.6939 23.42 56.0283 24.0817 55.2077 24.0817H44.2V29.7448H57.0808C57.9012 29.7451 58.5671 30.4076 58.5671 31.2234V37.3057C58.5671 38.1216 57.9012 38.7831 57.0808 38.7834H35.2518C34.4311 38.7834 33.7654 38.1217 33.7654 37.3057V2.43427C33.7654 1.61826 34.4311 0.956631 35.2518 0.956631H56.6208Z" fill="#222222"/>
<path d="M82.4595 0.956631C82.9332 0.956646 83.3788 1.1809 83.6587 1.56107L97.8218 20.8024V2.43427C97.8218 1.61842 98.4867 0.956894 99.3071 0.956631H106.492C107.312 0.956823 107.977 1.61838 107.977 2.43427V37.3057C107.977 38.1216 107.311 38.7834 106.491 38.7834H100.064C99.5902 38.7834 99.1434 38.5583 98.8637 38.1779L84.1968 18.2556V37.3057C84.1967 38.1216 83.531 38.7833 82.7105 38.7834H75.5269C74.7065 38.7833 74.0407 38.1216 74.0406 37.3057V2.43427C74.0406 1.61832 74.7064 0.956724 75.5269 0.956631H82.4595Z" fill="#222222"/>
<path d="M158.404 0.956631C159.303 0.956631 160.101 1.52976 160.381 2.37897L167.678 24.4707L174.791 2.39449C175.067 1.53813 175.868 0.956824 176.773 0.956631H184.99C186.032 0.956939 186.75 1.9949 186.378 2.96206L172.955 37.8345C172.735 38.4062 172.182 38.7832 171.566 38.7834H163.843C163.231 38.7834 162.682 38.4105 162.459 37.8442L148.746 2.97274C148.365 2.0037 149.084 0.95676 150.13 0.956631H158.404Z" fill="#222222"/>
<path d="M210.558 0.956631C211.379 0.956639 212.045 1.61826 212.045 2.43427V8.48647C212.045 9.30233 211.379 9.9641 210.558 9.9641H198.137V15.5341H209.145C209.966 15.5342 210.632 16.1958 210.632 17.0117V22.6041C210.632 23.4199 209.966 24.0816 209.145 24.0817H198.137V29.7448H211.018C211.839 29.745 212.505 30.4075 212.505 31.2234V37.3057C212.505 38.1216 211.839 38.7832 211.018 38.7834H189.188C188.368 38.7831 187.703 38.1216 187.703 37.3057V2.43427C187.703 1.61841 188.368 0.956871 189.188 0.956631H210.558Z" fill="#222222"/>
<path d="M224.973 0.956631C225.794 0.956692 226.46 1.6183 226.46 2.43427V29.2403H238.512C239.333 29.2403 239.999 29.9021 239.999 30.718V37.3057C239.999 38.1216 239.333 38.7832 238.512 38.7834H217.327C216.506 38.7834 215.841 38.1217 215.841 37.3057V2.43427C215.841 1.61826 216.506 0.956631 217.327 0.956631H224.973Z" fill="#222222"/>
<path d="M63.6344 27.491C66.151 26.17 69.2677 27.1272 70.5963 29.6294C71.9248 32.1318 70.9617 35.2318 68.445 36.5528C65.9285 37.8735 62.8117 36.9163 61.4831 34.4145C60.1546 31.9121 61.1178 28.8122 63.6344 27.491Z" fill="#222222"/>
<path d="M63.6344 11.1352C66.1511 9.81415 69.2677 10.7713 70.5963 13.2735C71.9248 15.776 70.9617 18.8759 68.445 20.197C65.9284 21.5177 62.8116 20.5598 61.4831 18.0576C60.1548 15.5553 61.1179 12.4563 63.6344 11.1352Z" fill="#222222"/>
<path d="M345.527 6.16668C347.135 6.16668 348.422 7.39923 348.422 8.97448C348.422 10.5269 347.135 11.8056 345.527 11.8056C343.941 11.8052 342.655 10.5266 342.654 8.97448C342.654 7.39945 343.941 6.16703 345.527 6.16668Z" fill="#888888"/>
</svg>
