<svg width="24" height="24" viewBox="0 0 24 24" fill="none" xmlns="http://www.w3.org/2000/svg">
<rect width="24" height="24" rx="12" fill="#FDB812"/>
<path fill-rule="evenodd" clip-rule="evenodd" d="M12.0091 5.59051L15.1662 4L12.0091 9.99622L8.85986 4L12.0091 5.59051ZM16.2148 8.59607L16.2625 8.63583H16.2546C17.6622 9.86847 18.4733 11.6498 18.4733 13.5187C18.4733 17.0894 15.5707 20 12 20C8.42929 20 5.52661 17.0894 5.52661 13.5187C5.52661 11.6498 6.33776 9.86847 7.74536 8.63583L7.79308 8.59607L5.54252 7.64972V4.4846L9.4472 6.15464C9.4472 6.15464 11.5626 10.1627 11.6103 10.2581C9.95617 10.457 8.70762 11.8407 8.70762 13.5187C8.70762 15.3319 10.1788 16.811 12 16.811C13.8211 16.811 15.2923 15.3319 15.2923 13.5187C15.2923 11.8486 14.0517 10.457 12.3896 10.2581C12.4374 10.1627 14.5527 6.15464 14.5527 6.15464L18.4654 4.4846V7.64972L16.2148 8.59607Z" fill="white"/>
</svg>
